ISO-10303-21;
HEADER;
/* Generated by software containing ST-Developer
 * from STEP Tools, Inc. (www.steptools.com) 
 */

FILE_DESCRIPTION(
/* description */ (''),
/* implementation_level */ '2;1');

FILE_NAME(
/* name */ 'enclosure v7.step',
/* time_stamp */ '2025-06-02T14:31:17+03:00',
/* author */ (''),
/* organization */ (''),
/* preprocessor_version */ 'ST-DEVELOPER v20.1',
/* originating_system */ 'Autodesk Translation Framework v14.10.0.0',
/* authorisation */ '');

FILE_SCHEMA (('AUTOMOTIVE_DESIGN { 1 0 10303 214 3 1 1 }'));
ENDSEC;

DATA;
#10=MECHANICAL_DESIGN_GEOMETRIC_PRESENTATION_REPRESENTATION('',(#43,#44,
#45,#46,#47,#48,#49,#50,#51,#52),#2205);
#11=ITEM_DEFINED_TRANSFORMATION($,$,#1315,#1449);
#12=ITEM_DEFINED_TRANSFORMATION($,$,#1342,#1450);
#13=(
REPRESENTATION_RELATIONSHIP($,$,#2219,#2218)
REPRESENTATION_RELATIONSHIP_WITH_TRANSFORMATION(#11)
SHAPE_REPRESENTATION_RELATIONSHIP()
);
#14=(
REPRESENTATION_RELATIONSHIP($,$,#2220,#2218)
REPRESENTATION_RELATIONSHIP_WITH_TRANSFORMATION(#12)
SHAPE_REPRESENTATION_RELATIONSHIP()
);
#15=CONTEXT_DEPENDENT_SHAPE_REPRESENTATION(#13,#2216);
#16=CONTEXT_DEPENDENT_SHAPE_REPRESENTATION(#14,#2217);
#17=NEXT_ASSEMBLY_USAGE_OCCURRENCE('Component1:1','Component1:1',
'Component1:1',#2222,#2223,'Component1:1');
#18=NEXT_ASSEMBLY_USAGE_OCCURRENCE('Component2:1','Component2:1',
'Component2:1',#2222,#2224,'Component2:1');
#19=FACE_BOUND('',#208,.T.);
#20=FACE_BOUND('',#232,.T.);
#21=FACE_BOUND('',#236,.T.);
#22=FACE_BOUND('',#238,.T.);
#23=FACE_BOUND('',#242,.T.);
#24=FACE_BOUND('',#244,.T.);
#25=FACE_BOUND('',#248,.T.);
#26=FACE_BOUND('',#250,.T.);
#27=FACE_BOUND('',#254,.T.);
#28=FACE_BOUND('',#256,.T.);
#29=FACE_BOUND('',#260,.T.);
#30=FACE_BOUND('',#262,.T.);
#31=FACE_BOUND('',#266,.T.);
#32=FACE_BOUND('',#268,.T.);
#33=FACE_BOUND('',#272,.T.);
#34=FACE_BOUND('',#274,.T.);
#35=FACE_BOUND('',#278,.T.);
#36=FACE_BOUND('',#280,.T.);
#37=SHAPE_REPRESENTATION_RELATIONSHIP('SRR','None',#2219,#40);
#38=SHAPE_REPRESENTATION_RELATIONSHIP('SRR','None',#2220,#41);
#39=SHAPE_REPRESENTATION_RELATIONSHIP('SRR','None',#2218,#42);
#40=ADVANCED_BREP_SHAPE_REPRESENTATION('',(#53),#2203);
#41=ADVANCED_BREP_SHAPE_REPRESENTATION('',(#54),#2204);
#42=ADVANCED_BREP_SHAPE_REPRESENTATION('',(#55,#56,#57,#58,#59,#60,#61,
#62),#2202);
#43=STYLED_ITEM('',(#2237),#53);
#44=STYLED_ITEM('',(#2237),#54);
#45=STYLED_ITEM('',(#2237),#55);
#46=STYLED_ITEM('',(#2237),#56);
#47=STYLED_ITEM('',(#2237),#57);
#48=STYLED_ITEM('',(#2237),#58);
#49=STYLED_ITEM('',(#2237),#59);
#50=STYLED_ITEM('',(#2237),#60);
#51=STYLED_ITEM('',(#2237),#61);
#52=STYLED_ITEM('',(#2237),#62);
#53=MANIFOLD_SOLID_BREP('Body1',#1281);
#54=MANIFOLD_SOLID_BREP('Body1',#1282);
#55=MANIFOLD_SOLID_BREP('Body3',#1283);
#56=MANIFOLD_SOLID_BREP('Body4',#1284);
#57=MANIFOLD_SOLID_BREP('Body5',#1285);
#58=MANIFOLD_SOLID_BREP('Body6',#1286);
#59=MANIFOLD_SOLID_BREP('Body7',#1287);
#60=MANIFOLD_SOLID_BREP('Body8',#1288);
#61=MANIFOLD_SOLID_BREP('Body9',#1289);
#62=MANIFOLD_SOLID_BREP('Body10',#1290);
#63=PLANE('',#1319);
#64=PLANE('',#1323);
#65=PLANE('',#1327);
#66=PLANE('',#1331);
#67=PLANE('',#1332);
#68=PLANE('',#1333);
#69=PLANE('',#1334);
#70=PLANE('',#1335);
#71=PLANE('',#1336);
#72=PLANE('',#1337);
#73=PLANE('',#1338);
#74=PLANE('',#1339);
#75=PLANE('',#1340);
#76=PLANE('',#1341);
#77=PLANE('',#1346);
#78=PLANE('',#1347);
#79=PLANE('',#1357);
#80=PLANE('',#1360);
#81=PLANE('',#1363);
#82=PLANE('',#1366);
#83=PLANE('',#1371);
#84=PLANE('',#1374);
#85=PLANE('',#1375);
#86=PLANE('',#1376);
#87=PLANE('',#1377);
#88=PLANE('',#1378);
#89=PLANE('',#1379);
#90=PLANE('',#1380);
#91=PLANE('',#1381);
#92=PLANE('',#1382);
#93=PLANE('',#1383);
#94=PLANE('',#1384);
#95=PLANE('',#1391);
#96=PLANE('',#1392);
#97=PLANE('',#1399);
#98=PLANE('',#1400);
#99=PLANE('',#1407);
#100=PLANE('',#1408);
#101=PLANE('',#1415);
#102=PLANE('',#1416);
#103=PLANE('',#1423);
#104=PLANE('',#1424);
#105=PLANE('',#1431);
#106=PLANE('',#1432);
#107=PLANE('',#1439);
#108=PLANE('',#1440);
#109=PLANE('',#1447);
#110=PLANE('',#1448);
#111=FACE_OUTER_BOUND('',#187,.T.);
#112=FACE_OUTER_BOUND('',#188,.T.);
#113=FACE_OUTER_BOUND('',#189,.T.);
#114=FACE_OUTER_BOUND('',#190,.T.);
#115=FACE_OUTER_BOUND('',#191,.T.);
#116=FACE_OUTER_BOUND('',#192,.T.);
#117=FACE_OUTER_BOUND('',#193,.T.);
#118=FACE_OUTER_BOUND('',#194,.T.);
#119=FACE_OUTER_BOUND('',#195,.T.);
#120=FACE_OUTER_BOUND('',#196,.T.);
#121=FACE_OUTER_BOUND('',#197,.T.);
#122=FACE_OUTER_BOUND('',#198,.T.);
#123=FACE_OUTER_BOUND('',#199,.T.);
#124=FACE_OUTER_BOUND('',#200,.T.);
#125=FACE_OUTER_BOUND('',#201,.T.);
#126=FACE_OUTER_BOUND('',#202,.T.);
#127=FACE_OUTER_BOUND('',#203,.T.);
#128=FACE_OUTER_BOUND('',#204,.T.);
#129=FACE_OUTER_BOUND('',#205,.T.);
#130=FACE_OUTER_BOUND('',#206,.T.);
#131=FACE_OUTER_BOUND('',#207,.T.);
#132=FACE_OUTER_BOUND('',#209,.T.);
#133=FACE_OUTER_BOUND('',#210,.T.);
#134=FACE_OUTER_BOUND('',#211,.T.);
#135=FACE_OUTER_BOUND('',#212,.T.);
#136=FACE_OUTER_BOUND('',#213,.T.);
#137=FACE_OUTER_BOUND('',#214,.T.);
#138=FACE_OUTER_BOUND('',#215,.T.);
#139=FACE_OUTER_BOUND('',#216,.T.);
#140=FACE_OUTER_BOUND('',#217,.T.);
#141=FACE_OUTER_BOUND('',#218,.T.);
#142=FACE_OUTER_BOUND('',#219,.T.);
#143=FACE_OUTER_BOUND('',#220,.T.);
#144=FACE_OUTER_BOUND('',#221,.T.);
#145=FACE_OUTER_BOUND('',#222,.T.);
#146=FACE_OUTER_BOUND('',#223,.T.);
#147=FACE_OUTER_BOUND('',#224,.T.);
#148=FACE_OUTER_BOUND('',#225,.T.);
#149=FACE_OUTER_BOUND('',#226,.T.);
#150=FACE_OUTER_BOUND('',#227,.T.);
#151=FACE_OUTER_BOUND('',#228,.T.);
#152=FACE_OUTER_BOUND('',#229,.T.);
#153=FACE_OUTER_BOUND('',#230,.T.);
#154=FACE_OUTER_BOUND('',#231,.T.);
#155=FACE_OUTER_BOUND('',#233,.T.);
#156=FACE_OUTER_BOUND('',#234,.T.);
#157=FACE_OUTER_BOUND('',#235,.T.);
#158=FACE_OUTER_BOUND('',#237,.T.);
#159=FACE_OUTER_BOUND('',#239,.T.);
#160=FACE_OUTER_BOUND('',#240,.T.);
#161=FACE_OUTER_BOUND('',#241,.T.);
#162=FACE_OUTER_BOUND('',#243,.T.);
#163=FACE_OUTER_BOUND('',#245,.T.);
#164=FACE_OUTER_BOUND('',#246,.T.);
#165=FACE_OUTER_BOUND('',#247,.T.);
#166=FACE_OUTER_BOUND('',#249,.T.);
#167=FACE_OUTER_BOUND('',#251,.T.);
#168=FACE_OUTER_BOUND('',#252,.T.);
#169=FACE_OUTER_BOUND('',#253,.T.);
#170=FACE_OUTER_BOUND('',#255,.T.);
#171=FACE_OUTER_BOUND('',#257,.T.);
#172=FACE_OUTER_BOUND('',#258,.T.);
#173=FACE_OUTER_BOUND('',#259,.T.);
#174=FACE_OUTER_BOUND('',#261,.T.);
#175=FACE_OUTER_BOUND('',#263,.T.);
#176=FACE_OUTER_BOUND('',#264,.T.);
#177=FACE_OUTER_BOUND('',#265,.T.);
#178=FACE_OUTER_BOUND('',#267,.T.);
#179=FACE_OUTER_BOUND('',#269,.T.);
#180=FACE_OUTER_BOUND('',#270,.T.);
#181=FACE_OUTER_BOUND('',#271,.T.);
#182=FACE_OUTER_BOUND('',#273,.T.);
#183=FACE_OUTER_BOUND('',#275,.T.);
#184=FACE_OUTER_BOUND('',#276,.T.);
#185=FACE_OUTER_BOUND('',#277,.T.);
#186=FACE_OUTER_BOUND('',#279,.T.);
#187=EDGE_LOOP('',(#841,#842,#843,#844));
#188=EDGE_LOOP('',(#845,#846,#847,#848));
#189=EDGE_LOOP('',(#849,#850,#851,#852));
#190=EDGE_LOOP('',(#853,#854,#855,#856));
#191=EDGE_LOOP('',(#857,#858,#859,#860));
#192=EDGE_LOOP('',(#861,#862,#863,#864));
#193=EDGE_LOOP('',(#865,#866,#867,#868));
#194=EDGE_LOOP('',(#869,#870,#871,#872));
#195=EDGE_LOOP('',(#873,#874,#875,#876));
#196=EDGE_LOOP('',(#877,#878,#879,#880));
#197=EDGE_LOOP('',(#881,#882,#883,#884));
#198=EDGE_LOOP('',(#885,#886,#887,#888));
#199=EDGE_LOOP('',(#889,#890,#891,#892));
#200=EDGE_LOOP('',(#893,#894,#895,#896));
#201=EDGE_LOOP('',(#897,#898,#899,#900));
#202=EDGE_LOOP('',(#901,#902,#903,#904));
#203=EDGE_LOOP('',(#905,#906,#907,#908,#909,#910,#911,#912,#913,#914,#915,
#916,#917,#918,#919,#920));
#204=EDGE_LOOP('',(#921,#922,#923,#924,#925,#926,#927,#928,#929,#930,#931,
#932,#933,#934,#935,#936));
#205=EDGE_LOOP('',(#937,#938,#939,#940));
#206=EDGE_LOOP('',(#941,#942,#943,#944));
#207=EDGE_LOOP('',(#945,#946,#947,#948,#949,#950,#951,#952));
#208=EDGE_LOOP('',(#953,#954,#955,#956,#957,#958,#959,#960,#961,#962,#963,
#964,#965,#966,#967,#968));
#209=EDGE_LOOP('',(#969,#970,#971,#972));
#210=EDGE_LOOP('',(#973,#974,#975,#976));
#211=EDGE_LOOP('',(#977,#978,#979,#980));
#212=EDGE_LOOP('',(#981,#982,#983,#984));
#213=EDGE_LOOP('',(#985,#986,#987,#988));
#214=EDGE_LOOP('',(#989,#990,#991,#992));
#215=EDGE_LOOP('',(#993,#994,#995,#996));
#216=EDGE_LOOP('',(#997,#998,#999,#1000));
#217=EDGE_LOOP('',(#1001,#1002,#1003,#1004));
#218=EDGE_LOOP('',(#1005,#1006,#1007,#1008));
#219=EDGE_LOOP('',(#1009,#1010,#1011,#1012));
#220=EDGE_LOOP('',(#1013,#1014,#1015,#1016));
#221=EDGE_LOOP('',(#1017,#1018,#1019,#1020));
#222=EDGE_LOOP('',(#1021,#1022,#1023,#1024));
#223=EDGE_LOOP('',(#1025,#1026,#1027,#1028));
#224=EDGE_LOOP('',(#1029,#1030,#1031,#1032));
#225=EDGE_LOOP('',(#1033,#1034,#1035,#1036));
#226=EDGE_LOOP('',(#1037,#1038,#1039,#1040));
#227=EDGE_LOOP('',(#1041,#1042,#1043,#1044));
#228=EDGE_LOOP('',(#1045,#1046,#1047,#1048));
#229=EDGE_LOOP('',(#1049,#1050,#1051,#1052));
#230=EDGE_LOOP('',(#1053,#1054,#1055,#1056));
#231=EDGE_LOOP('',(#1057,#1058,#1059,#1060,#1061,#1062,#1063,#1064));
#232=EDGE_LOOP('',(#1065,#1066,#1067,#1068,#1069,#1070,#1071,#1072,#1073,
#1074,#1075,#1076,#1077,#1078,#1079,#1080));
#233=EDGE_LOOP('',(#1081,#1082,#1083,#1084));
#234=EDGE_LOOP('',(#1085,#1086,#1087,#1088));
#235=EDGE_LOOP('',(#1089));
#236=EDGE_LOOP('',(#1090));
#237=EDGE_LOOP('',(#1091));
#238=EDGE_LOOP('',(#1092));
#239=EDGE_LOOP('',(#1093,#1094,#1095,#1096));
#240=EDGE_LOOP('',(#1097,#1098,#1099,#1100));
#241=EDGE_LOOP('',(#1101));
#242=EDGE_LOOP('',(#1102));
#243=EDGE_LOOP('',(#1103));
#244=EDGE_LOOP('',(#1104));
#245=EDGE_LOOP('',(#1105,#1106,#1107,#1108));
#246=EDGE_LOOP('',(#1109,#1110,#1111,#1112));
#247=EDGE_LOOP('',(#1113));
#248=EDGE_LOOP('',(#1114));
#249=EDGE_LOOP('',(#1115));
#250=EDGE_LOOP('',(#1116));
#251=EDGE_LOOP('',(#1117,#1118,#1119,#1120));
#252=EDGE_LOOP('',(#1121,#1122,#1123,#1124));
#253=EDGE_LOOP('',(#1125));
#254=EDGE_LOOP('',(#1126));
#255=EDGE_LOOP('',(#1127));
#256=EDGE_LOOP('',(#1128));
#257=EDGE_LOOP('',(#1129,#1130,#1131,#1132));
#258=EDGE_LOOP('',(#1133,#1134,#1135,#1136));
#259=EDGE_LOOP('',(#1137));
#260=EDGE_LOOP('',(#1138));
#261=EDGE_LOOP('',(#1139));
#262=EDGE_LOOP('',(#1140));
#263=EDGE_LOOP('',(#1141,#1142,#1143,#1144));
#264=EDGE_LOOP('',(#1145,#1146,#1147,#1148));
#265=EDGE_LOOP('',(#1149));
#266=EDGE_LOOP('',(#1150));
#267=EDGE_LOOP('',(#1151));
#268=EDGE_LOOP('',(#1152));
#269=EDGE_LOOP('',(#1153,#1154,#1155,#1156));
#270=EDGE_LOOP('',(#1157,#1158,#1159,#1160));
#271=EDGE_LOOP('',(#1161));
#272=EDGE_LOOP('',(#1162));
#273=EDGE_LOOP('',(#1163));
#274=EDGE_LOOP('',(#1164));
#275=EDGE_LOOP('',(#1165,#1166,#1167,#1168));
#276=EDGE_LOOP('',(#1169,#1170,#1171,#1172));
#277=EDGE_LOOP('',(#1173));
#278=EDGE_LOOP('',(#1174));
#279=EDGE_LOOP('',(#1175));
#280=EDGE_LOOP('',(#1176));
#281=LINE('',#1844,#393);
#282=LINE('',#1847,#394);
#283=LINE('',#1850,#395);
#284=LINE('',#1852,#396);
#285=LINE('',#1853,#397);
#286=LINE('',#1859,#398);
#287=LINE('',#1862,#399);
#288=LINE('',#1865,#400);
#289=LINE('',#1867,#401);
#290=LINE('',#1868,#402);
#291=LINE('',#1874,#403);
#292=LINE('',#1877,#404);
#293=LINE('',#1880,#405);
#294=LINE('',#1882,#406);
#295=LINE('',#1883,#407);
#296=LINE('',#1889,#408);
#297=LINE('',#1892,#409);
#298=LINE('',#1895,#410);
#299=LINE('',#1897,#411);
#300=LINE('',#1898,#412);
#301=LINE('',#1901,#413);
#302=LINE('',#1903,#414);
#303=LINE('',#1904,#415);
#304=LINE('',#1906,#416);
#305=LINE('',#1907,#417);
#306=LINE('',#1910,#418);
#307=LINE('',#1912,#419);
#308=LINE('',#1913,#420);
#309=LINE('',#1915,#421);
#310=LINE('',#1916,#422);
#311=LINE('',#1919,#423);
#312=LINE('',#1921,#424);
#313=LINE('',#1922,#425);
#314=LINE('',#1924,#426);
#315=LINE('',#1925,#427);
#316=LINE('',#1928,#428);
#317=LINE('',#1930,#429);
#318=LINE('',#1931,#430);
#319=LINE('',#1933,#431);
#320=LINE('',#1934,#432);
#321=LINE('',#1943,#433);
#322=LINE('',#1946,#434);
#323=LINE('',#1949,#435);
#324=LINE('',#1951,#436);
#325=LINE('',#1952,#437);
#326=LINE('',#1955,#438);
#327=LINE('',#1959,#439);
#328=LINE('',#1963,#440);
#329=LINE('',#1969,#441);
#330=LINE('',#1971,#442);
#331=LINE('',#1973,#443);
#332=LINE('',#1977,#444);
#333=LINE('',#1979,#445);
#334=LINE('',#1981,#446);
#335=LINE('',#1985,#447);
#336=LINE('',#1987,#448);
#337=LINE('',#1989,#449);
#338=LINE('',#1993,#450);
#339=LINE('',#1995,#451);
#340=LINE('',#1996,#452);
#341=LINE('',#2000,#453);
#342=LINE('',#2003,#454);
#343=LINE('',#2004,#455);
#344=LINE('',#2009,#456);
#345=LINE('',#2010,#457);
#346=LINE('',#2013,#458);
#347=LINE('',#2014,#459);
#348=LINE('',#2019,#460);
#349=LINE('',#2020,#461);
#350=LINE('',#2023,#462);
#351=LINE('',#2024,#463);
#352=LINE('',#2029,#464);
#353=LINE('',#2030,#465);
#354=LINE('',#2033,#466);
#355=LINE('',#2034,#467);
#356=LINE('',#2041,#468);
#357=LINE('',#2042,#469);
#358=LINE('',#2045,#470);
#359=LINE('',#2046,#471);
#360=LINE('',#2051,#472);
#361=LINE('',#2052,#473);
#362=LINE('',#2055,#474);
#363=LINE('',#2056,#475);
#364=LINE('',#2059,#476);
#365=LINE('',#2060,#477);
#366=LINE('',#2062,#478);
#367=LINE('',#2065,#479);
#368=LINE('',#2066,#480);
#369=LINE('',#2068,#481);
#370=LINE('',#2071,#482);
#371=LINE('',#2072,#483);
#372=LINE('',#2074,#484);
#373=LINE('',#2077,#485);
#374=LINE('',#2078,#486);
#375=LINE('',#2080,#487);
#376=LINE('',#2082,#488);
#377=LINE('',#2088,#489);
#378=LINE('',#2094,#490);
#379=LINE('',#2102,#491);
#380=LINE('',#2108,#492);
#381=LINE('',#2116,#493);
#382=LINE('',#2122,#494);
#383=LINE('',#2130,#495);
#384=LINE('',#2136,#496);
#385=LINE('',#2144,#497);
#386=LINE('',#2150,#498);
#387=LINE('',#2158,#499);
#388=LINE('',#2164,#500);
#389=LINE('',#2172,#501);
#390=LINE('',#2178,#502);
#391=LINE('',#2186,#503);
#392=LINE('',#2192,#504);
#393=VECTOR('',#1459,10.);
#394=VECTOR('',#1462,10.);
#395=VECTOR('',#1465,10.);
#396=VECTOR('',#1466,10.);
#397=VECTOR('',#1467,10.);
#398=VECTOR('',#1472,10.);
#399=VECTOR('',#1475,10.);
#400=VECTOR('',#1478,10.);
#401=VECTOR('',#1479,10.);
#402=VECTOR('',#1480,10.);
#403=VECTOR('',#1485,10.);
#404=VECTOR('',#1488,10.);
#405=VECTOR('',#1491,10.);
#406=VECTOR('',#1492,10.);
#407=VECTOR('',#1493,10.);
#408=VECTOR('',#1498,10.);
#409=VECTOR('',#1501,10.);
#410=VECTOR('',#1504,10.);
#411=VECTOR('',#1505,10.);
#412=VECTOR('',#1506,10.);
#413=VECTOR('',#1509,10.);
#414=VECTOR('',#1510,10.);
#415=VECTOR('',#1511,10.);
#416=VECTOR('',#1514,10.);
#417=VECTOR('',#1515,10.);
#418=VECTOR('',#1518,10.);
#419=VECTOR('',#1519,10.);
#420=VECTOR('',#1520,10.);
#421=VECTOR('',#1523,10.);
#422=VECTOR('',#1524,10.);
#423=VECTOR('',#1527,10.);
#424=VECTOR('',#1528,10.);
#425=VECTOR('',#1529,10.);
#426=VECTOR('',#1532,10.);
#427=VECTOR('',#1533,10.);
#428=VECTOR('',#1536,10.);
#429=VECTOR('',#1537,10.);
#430=VECTOR('',#1538,10.);
#431=VECTOR('',#1541,10.);
#432=VECTOR('',#1542,10.);
#433=VECTOR('',#1553,10.);
#434=VECTOR('',#1556,10.);
#435=VECTOR('',#1559,10.);
#436=VECTOR('',#1560,10.);
#437=VECTOR('',#1561,10.);
#438=VECTOR('',#1564,10.);
#439=VECTOR('',#1567,10.);
#440=VECTOR('',#1570,10.);
#441=VECTOR('',#1575,10.);
#442=VECTOR('',#1576,10.);
#443=VECTOR('',#1577,10.);
#444=VECTOR('',#1580,10.);
#445=VECTOR('',#1581,10.);
#446=VECTOR('',#1582,10.);
#447=VECTOR('',#1585,10.);
#448=VECTOR('',#1586,10.);
#449=VECTOR('',#1587,10.);
#450=VECTOR('',#1590,10.);
#451=VECTOR('',#1591,10.);
#452=VECTOR('',#1592,10.);
#453=VECTOR('',#1597,10.);
#454=VECTOR('',#1600,10.);
#455=VECTOR('',#1601,10.);
#456=VECTOR('',#1606,10.);
#457=VECTOR('',#1607,10.);
#458=VECTOR('',#1610,10.);
#459=VECTOR('',#1611,10.);
#460=VECTOR('',#1616,10.);
#461=VECTOR('',#1617,10.);
#462=VECTOR('',#1620,10.);
#463=VECTOR('',#1621,10.);
#464=VECTOR('',#1626,10.);
#465=VECTOR('',#1627,10.);
#466=VECTOR('',#1630,10.);
#467=VECTOR('',#1631,10.);
#468=VECTOR('',#1640,10.);
#469=VECTOR('',#1641,10.);
#470=VECTOR('',#1644,10.);
#471=VECTOR('',#1645,10.);
#472=VECTOR('',#1650,10.);
#473=VECTOR('',#1651,10.);
#474=VECTOR('',#1654,10.);
#475=VECTOR('',#1655,10.);
#476=VECTOR('',#1658,10.);
#477=VECTOR('',#1659,10.);
#478=VECTOR('',#1662,10.);
#479=VECTOR('',#1665,10.);
#480=VECTOR('',#1666,10.);
#481=VECTOR('',#1669,10.);
#482=VECTOR('',#1672,10.);
#483=VECTOR('',#1673,10.);
#484=VECTOR('',#1676,10.);
#485=VECTOR('',#1679,10.);
#486=VECTOR('',#1680,10.);
#487=VECTOR('',#1683,10.);
#488=VECTOR('',#1686,10.);
#489=VECTOR('',#1693,1.5);
#490=VECTOR('',#1700,2.50000001490116);
#491=VECTOR('',#1711,1.5);
#492=VECTOR('',#1718,2.5);
#493=VECTOR('',#1729,1.5);
#494=VECTOR('',#1736,2.50000001490116);
#495=VECTOR('',#1747,1.5);
#496=VECTOR('',#1754,2.50000001490116);
#497=VECTOR('',#1765,1.5);
#498=VECTOR('',#1772,2.50000001490116);
#499=VECTOR('',#1783,1.5);
#500=VECTOR('',#1790,2.50000001490116);
#501=VECTOR('',#1801,1.5);
#502=VECTOR('',#1808,2.50000001490116);
#503=VECTOR('',#1819,1.5);
#504=VECTOR('',#1826,2.50000001490116);
#505=CIRCLE('',#1317,9.);
#506=CIRCLE('',#1318,9.);
#507=CIRCLE('',#1321,9.);
#508=CIRCLE('',#1322,9.);
#509=CIRCLE('',#1325,9.);
#510=CIRCLE('',#1326,9.);
#511=CIRCLE('',#1329,9.);
#512=CIRCLE('',#1330,9.);
#513=CIRCLE('',#1344,9.);
#514=CIRCLE('',#1345,9.);
#515=CIRCLE('',#1348,9.);
#516=CIRCLE('',#1349,9.);
#517=CIRCLE('',#1350,9.);
#518=CIRCLE('',#1351,9.);
#519=CIRCLE('',#1352,9.);
#520=CIRCLE('',#1353,9.);
#521=CIRCLE('',#1354,9.);
#522=CIRCLE('',#1356,9.);
#523=CIRCLE('',#1359,9.);
#524=CIRCLE('',#1362,9.);
#525=CIRCLE('',#1365,9.);
#526=CIRCLE('',#1368,9.);
#527=CIRCLE('',#1370,9.);
#528=CIRCLE('',#1373,9.);
#529=CIRCLE('',#1386,1.5);
#530=CIRCLE('',#1387,1.5);
#531=CIRCLE('',#1389,2.50000001490116);
#532=CIRCLE('',#1390,2.50000001490116);
#533=CIRCLE('',#1394,1.5);
#534=CIRCLE('',#1395,1.5);
#535=CIRCLE('',#1397,2.5);
#536=CIRCLE('',#1398,2.5);
#537=CIRCLE('',#1402,1.5);
#538=CIRCLE('',#1403,1.5);
#539=CIRCLE('',#1405,2.50000001490116);
#540=CIRCLE('',#1406,2.50000001490116);
#541=CIRCLE('',#1410,1.5);
#542=CIRCLE('',#1411,1.5);
#543=CIRCLE('',#1413,2.50000001490116);
#544=CIRCLE('',#1414,2.50000001490116);
#545=CIRCLE('',#1418,1.5);
#546=CIRCLE('',#1419,1.5);
#547=CIRCLE('',#1421,2.50000001490116);
#548=CIRCLE('',#1422,2.50000001490116);
#549=CIRCLE('',#1426,1.5);
#550=CIRCLE('',#1427,1.5);
#551=CIRCLE('',#1429,2.50000001490116);
#552=CIRCLE('',#1430,2.50000001490116);
#553=CIRCLE('',#1434,1.5);
#554=CIRCLE('',#1435,1.5);
#555=CIRCLE('',#1437,2.50000001490116);
#556=CIRCLE('',#1438,2.50000001490116);
#557=CIRCLE('',#1442,1.5);
#558=CIRCLE('',#1443,1.5);
#559=CIRCLE('',#1445,2.50000001490116);
#560=CIRCLE('',#1446,2.50000001490116);
#561=VERTEX_POINT('',#1840);
#562=VERTEX_POINT('',#1841);
#563=VERTEX_POINT('',#1843);
#564=VERTEX_POINT('',#1845);
#565=VERTEX_POINT('',#1849);
#566=VERTEX_POINT('',#1851);
#567=VERTEX_POINT('',#1855);
#568=VERTEX_POINT('',#1856);
#569=VERTEX_POINT('',#1858);
#570=VERTEX_POINT('',#1860);
#571=VERTEX_POINT('',#1864);
#572=VERTEX_POINT('',#1866);
#573=VERTEX_POINT('',#1870);
#574=VERTEX_POINT('',#1871);
#575=VERTEX_POINT('',#1873);
#576=VERTEX_POINT('',#1875);
#577=VERTEX_POINT('',#1879);
#578=VERTEX_POINT('',#1881);
#579=VERTEX_POINT('',#1885);
#580=VERTEX_POINT('',#1886);
#581=VERTEX_POINT('',#1888);
#582=VERTEX_POINT('',#1890);
#583=VERTEX_POINT('',#1894);
#584=VERTEX_POINT('',#1896);
#585=VERTEX_POINT('',#1900);
#586=VERTEX_POINT('',#1902);
#587=VERTEX_POINT('',#1909);
#588=VERTEX_POINT('',#1911);
#589=VERTEX_POINT('',#1918);
#590=VERTEX_POINT('',#1920);
#591=VERTEX_POINT('',#1927);
#592=VERTEX_POINT('',#1929);
#593=VERTEX_POINT('',#1939);
#594=VERTEX_POINT('',#1940);
#595=VERTEX_POINT('',#1942);
#596=VERTEX_POINT('',#1944);
#597=VERTEX_POINT('',#1948);
#598=VERTEX_POINT('',#1950);
#599=VERTEX_POINT('',#1954);
#600=VERTEX_POINT('',#1956);
#601=VERTEX_POINT('',#1958);
#602=VERTEX_POINT('',#1960);
#603=VERTEX_POINT('',#1962);
#604=VERTEX_POINT('',#1965);
#605=VERTEX_POINT('',#1966);
#606=VERTEX_POINT('',#1968);
#607=VERTEX_POINT('',#1970);
#608=VERTEX_POINT('',#1972);
#609=VERTEX_POINT('',#1974);
#610=VERTEX_POINT('',#1976);
#611=VERTEX_POINT('',#1978);
#612=VERTEX_POINT('',#1980);
#613=VERTEX_POINT('',#1982);
#614=VERTEX_POINT('',#1984);
#615=VERTEX_POINT('',#1986);
#616=VERTEX_POINT('',#1988);
#617=VERTEX_POINT('',#1990);
#618=VERTEX_POINT('',#1992);
#619=VERTEX_POINT('',#1994);
#620=VERTEX_POINT('',#1998);
#621=VERTEX_POINT('',#2002);
#622=VERTEX_POINT('',#2006);
#623=VERTEX_POINT('',#2007);
#624=VERTEX_POINT('',#2012);
#625=VERTEX_POINT('',#2016);
#626=VERTEX_POINT('',#2017);
#627=VERTEX_POINT('',#2022);
#628=VERTEX_POINT('',#2026);
#629=VERTEX_POINT('',#2027);
#630=VERTEX_POINT('',#2032);
#631=VERTEX_POINT('',#2038);
#632=VERTEX_POINT('',#2039);
#633=VERTEX_POINT('',#2044);
#634=VERTEX_POINT('',#2048);
#635=VERTEX_POINT('',#2049);
#636=VERTEX_POINT('',#2054);
#637=VERTEX_POINT('',#2058);
#638=VERTEX_POINT('',#2064);
#639=VERTEX_POINT('',#2070);
#640=VERTEX_POINT('',#2076);
#641=VERTEX_POINT('',#2085);
#642=VERTEX_POINT('',#2087);
#643=VERTEX_POINT('',#2091);
#644=VERTEX_POINT('',#2093);
#645=VERTEX_POINT('',#2099);
#646=VERTEX_POINT('',#2101);
#647=VERTEX_POINT('',#2105);
#648=VERTEX_POINT('',#2107);
#649=VERTEX_POINT('',#2113);
#650=VERTEX_POINT('',#2115);
#651=VERTEX_POINT('',#2119);
#652=VERTEX_POINT('',#2121);
#653=VERTEX_POINT('',#2127);
#654=VERTEX_POINT('',#2129);
#655=VERTEX_POINT('',#2133);
#656=VERTEX_POINT('',#2135);
#657=VERTEX_POINT('',#2141);
#658=VERTEX_POINT('',#2143);
#659=VERTEX_POINT('',#2147);
#660=VERTEX_POINT('',#2149);
#661=VERTEX_POINT('',#2155);
#662=VERTEX_POINT('',#2157);
#663=VERTEX_POINT('',#2161);
#664=VERTEX_POINT('',#2163);
#665=VERTEX_POINT('',#2169);
#666=VERTEX_POINT('',#2171);
#667=VERTEX_POINT('',#2175);
#668=VERTEX_POINT('',#2177);
#669=VERTEX_POINT('',#2183);
#670=VERTEX_POINT('',#2185);
#671=VERTEX_POINT('',#2189);
#672=VERTEX_POINT('',#2191);
#673=EDGE_CURVE('',#561,#562,#505,.T.);
#674=EDGE_CURVE('',#562,#563,#281,.T.);
#675=EDGE_CURVE('',#563,#564,#506,.T.);
#676=EDGE_CURVE('',#564,#561,#282,.T.);
#677=EDGE_CURVE('',#565,#562,#283,.T.);
#678=EDGE_CURVE('',#565,#566,#284,.T.);
#679=EDGE_CURVE('',#563,#566,#285,.T.);
#680=EDGE_CURVE('',#567,#568,#507,.T.);
#681=EDGE_CURVE('',#568,#569,#286,.T.);
#682=EDGE_CURVE('',#569,#570,#508,.T.);
#683=EDGE_CURVE('',#570,#567,#287,.T.);
#684=EDGE_CURVE('',#571,#568,#288,.T.);
#685=EDGE_CURVE('',#571,#572,#289,.T.);
#686=EDGE_CURVE('',#569,#572,#290,.T.);
#687=EDGE_CURVE('',#573,#574,#509,.T.);
#688=EDGE_CURVE('',#574,#575,#291,.T.);
#689=EDGE_CURVE('',#575,#576,#510,.T.);
#690=EDGE_CURVE('',#576,#573,#292,.T.);
#691=EDGE_CURVE('',#574,#577,#293,.T.);
#692=EDGE_CURVE('',#577,#578,#294,.T.);
#693=EDGE_CURVE('',#575,#578,#295,.T.);
#694=EDGE_CURVE('',#579,#580,#511,.T.);
#695=EDGE_CURVE('',#580,#581,#296,.T.);
#696=EDGE_CURVE('',#581,#582,#512,.T.);
#697=EDGE_CURVE('',#582,#579,#297,.T.);
#698=EDGE_CURVE('',#580,#583,#298,.T.);
#699=EDGE_CURVE('',#583,#584,#299,.T.);
#700=EDGE_CURVE('',#581,#584,#300,.T.);
#701=EDGE_CURVE('',#585,#564,#301,.T.);
#702=EDGE_CURVE('',#586,#585,#302,.T.);
#703=EDGE_CURVE('',#561,#586,#303,.T.);
#704=EDGE_CURVE('',#577,#586,#304,.T.);
#705=EDGE_CURVE('',#578,#585,#305,.T.);
#706=EDGE_CURVE('',#587,#576,#306,.T.);
#707=EDGE_CURVE('',#588,#587,#307,.T.);
#708=EDGE_CURVE('',#588,#573,#308,.T.);
#709=EDGE_CURVE('',#571,#588,#309,.T.);
#710=EDGE_CURVE('',#572,#587,#310,.T.);
#711=EDGE_CURVE('',#589,#570,#311,.T.);
#712=EDGE_CURVE('',#590,#589,#312,.T.);
#713=EDGE_CURVE('',#567,#590,#313,.T.);
#714=EDGE_CURVE('',#583,#590,#314,.T.);
#715=EDGE_CURVE('',#584,#589,#315,.T.);
#716=EDGE_CURVE('',#591,#582,#316,.T.);
#717=EDGE_CURVE('',#592,#591,#317,.T.);
#718=EDGE_CURVE('',#592,#579,#318,.T.);
#719=EDGE_CURVE('',#565,#592,#319,.T.);
#720=EDGE_CURVE('',#566,#591,#320,.T.);
#721=EDGE_CURVE('',#593,#594,#513,.T.);
#722=EDGE_CURVE('',#594,#595,#321,.T.);
#723=EDGE_CURVE('',#595,#596,#514,.T.);
#724=EDGE_CURVE('',#596,#593,#322,.T.);
#725=EDGE_CURVE('',#596,#597,#323,.T.);
#726=EDGE_CURVE('',#598,#597,#324,.T.);
#727=EDGE_CURVE('',#593,#598,#325,.T.);
#728=EDGE_CURVE('',#595,#599,#326,.T.);
#729=EDGE_CURVE('',#600,#599,#515,.T.);
#730=EDGE_CURVE('',#601,#600,#327,.T.);
#731=EDGE_CURVE('',#602,#601,#516,.T.);
#732=EDGE_CURVE('',#602,#603,#328,.T.);
#733=EDGE_CURVE('',#597,#603,#517,.T.);
#734=EDGE_CURVE('',#604,#605,#518,.T.);
#735=EDGE_CURVE('',#606,#604,#329,.T.);
#736=EDGE_CURVE('',#607,#606,#330,.T.);
#737=EDGE_CURVE('',#608,#607,#331,.T.);
#738=EDGE_CURVE('',#609,#608,#519,.T.);
#739=EDGE_CURVE('',#610,#609,#332,.T.);
#740=EDGE_CURVE('',#611,#610,#333,.T.);
#741=EDGE_CURVE('',#612,#611,#334,.T.);
#742=EDGE_CURVE('',#613,#612,#520,.T.);
#743=EDGE_CURVE('',#614,#613,#335,.T.);
#744=EDGE_CURVE('',#615,#614,#336,.T.);
#745=EDGE_CURVE('',#616,#615,#337,.T.);
#746=EDGE_CURVE('',#617,#616,#521,.T.);
#747=EDGE_CURVE('',#618,#617,#338,.T.);
#748=EDGE_CURVE('',#619,#618,#339,.T.);
#749=EDGE_CURVE('',#605,#619,#340,.T.);
#750=EDGE_CURVE('',#620,#598,#522,.T.);
#751=EDGE_CURVE('',#603,#620,#341,.T.);
#752=EDGE_CURVE('',#621,#602,#342,.T.);
#753=EDGE_CURVE('',#620,#621,#343,.T.);
#754=EDGE_CURVE('',#622,#623,#523,.T.);
#755=EDGE_CURVE('',#623,#604,#344,.T.);
#756=EDGE_CURVE('',#605,#622,#345,.T.);
#757=EDGE_CURVE('',#619,#624,#346,.T.);
#758=EDGE_CURVE('',#622,#624,#347,.T.);
#759=EDGE_CURVE('',#625,#626,#524,.T.);
#760=EDGE_CURVE('',#626,#609,#348,.T.);
#761=EDGE_CURVE('',#608,#625,#349,.T.);
#762=EDGE_CURVE('',#607,#627,#350,.T.);
#763=EDGE_CURVE('',#625,#627,#351,.T.);
#764=EDGE_CURVE('',#628,#629,#525,.T.);
#765=EDGE_CURVE('',#629,#600,#352,.T.);
#766=EDGE_CURVE('',#599,#628,#353,.T.);
#767=EDGE_CURVE('',#630,#629,#354,.T.);
#768=EDGE_CURVE('',#601,#630,#355,.T.);
#769=EDGE_CURVE('',#630,#621,#526,.T.);
#770=EDGE_CURVE('',#631,#632,#527,.T.);
#771=EDGE_CURVE('',#632,#613,#356,.T.);
#772=EDGE_CURVE('',#612,#631,#357,.T.);
#773=EDGE_CURVE('',#611,#633,#358,.T.);
#774=EDGE_CURVE('',#631,#633,#359,.T.);
#775=EDGE_CURVE('',#634,#635,#528,.T.);
#776=EDGE_CURVE('',#635,#617,#360,.T.);
#777=EDGE_CURVE('',#616,#634,#361,.T.);
#778=EDGE_CURVE('',#636,#635,#362,.T.);
#779=EDGE_CURVE('',#618,#636,#363,.T.);
#780=EDGE_CURVE('',#615,#637,#364,.T.);
#781=EDGE_CURVE('',#634,#637,#365,.T.);
#782=EDGE_CURVE('',#624,#636,#366,.T.);
#783=EDGE_CURVE('',#638,#623,#367,.T.);
#784=EDGE_CURVE('',#606,#638,#368,.T.);
#785=EDGE_CURVE('',#627,#638,#369,.T.);
#786=EDGE_CURVE('',#639,#626,#370,.T.);
#787=EDGE_CURVE('',#610,#639,#371,.T.);
#788=EDGE_CURVE('',#633,#639,#372,.T.);
#789=EDGE_CURVE('',#640,#632,#373,.T.);
#790=EDGE_CURVE('',#614,#640,#374,.T.);
#791=EDGE_CURVE('',#637,#640,#375,.T.);
#792=EDGE_CURVE('',#628,#594,#376,.T.);
#793=EDGE_CURVE('',#641,#641,#529,.T.);
#794=EDGE_CURVE('',#641,#642,#377,.T.);
#795=EDGE_CURVE('',#642,#642,#530,.T.);
#796=EDGE_CURVE('',#643,#643,#531,.T.);
#797=EDGE_CURVE('',#643,#644,#378,.T.);
#798=EDGE_CURVE('',#644,#644,#532,.T.);
#799=EDGE_CURVE('',#645,#645,#533,.T.);
#800=EDGE_CURVE('',#645,#646,#379,.T.);
#801=EDGE_CURVE('',#646,#646,#534,.T.);
#802=EDGE_CURVE('',#647,#647,#535,.T.);
#803=EDGE_CURVE('',#647,#648,#380,.T.);
#804=EDGE_CURVE('',#648,#648,#536,.T.);
#805=EDGE_CURVE('',#649,#649,#537,.T.);
#806=EDGE_CURVE('',#649,#650,#381,.T.);
#807=EDGE_CURVE('',#650,#650,#538,.T.);
#808=EDGE_CURVE('',#651,#651,#539,.T.);
#809=EDGE_CURVE('',#651,#652,#382,.T.);
#810=EDGE_CURVE('',#652,#652,#540,.T.);
#811=EDGE_CURVE('',#653,#653,#541,.T.);
#812=EDGE_CURVE('',#653,#654,#383,.T.);
#813=EDGE_CURVE('',#654,#654,#542,.T.);
#814=EDGE_CURVE('',#655,#655,#543,.T.);
#815=EDGE_CURVE('',#655,#656,#384,.T.);
#816=EDGE_CURVE('',#656,#656,#544,.T.);
#817=EDGE_CURVE('',#657,#657,#545,.T.);
#818=EDGE_CURVE('',#657,#658,#385,.T.);
#819=EDGE_CURVE('',#658,#658,#546,.T.);
#820=EDGE_CURVE('',#659,#659,#547,.T.);
#821=EDGE_CURVE('',#659,#660,#386,.T.);
#822=EDGE_CURVE('',#660,#660,#548,.T.);
#823=EDGE_CURVE('',#661,#661,#549,.T.);
#824=EDGE_CURVE('',#661,#662,#387,.T.);
#825=EDGE_CURVE('',#662,#662,#550,.T.);
#826=EDGE_CURVE('',#663,#663,#551,.T.);
#827=EDGE_CURVE('',#663,#664,#388,.T.);
#828=EDGE_CURVE('',#664,#664,#552,.T.);
#829=EDGE_CURVE('',#665,#665,#553,.T.);
#830=EDGE_CURVE('',#665,#666,#389,.T.);
#831=EDGE_CURVE('',#666,#666,#554,.T.);
#832=EDGE_CURVE('',#667,#667,#555,.T.);
#833=EDGE_CURVE('',#667,#668,#390,.T.);
#834=EDGE_CURVE('',#668,#668,#556,.T.);
#835=EDGE_CURVE('',#669,#669,#557,.T.);
#836=EDGE_CURVE('',#669,#670,#391,.T.);
#837=EDGE_CURVE('',#670,#670,#558,.T.);
#838=EDGE_CURVE('',#671,#671,#559,.T.);
#839=EDGE_CURVE('',#671,#672,#392,.T.);
#840=EDGE_CURVE('',#672,#672,#560,.T.);
#841=ORIENTED_EDGE('',*,*,#673,.T.);
#842=ORIENTED_EDGE('',*,*,#674,.T.);
#843=ORIENTED_EDGE('',*,*,#675,.T.);
#844=ORIENTED_EDGE('',*,*,#676,.T.);
#845=ORIENTED_EDGE('',*,*,#674,.F.);
#846=ORIENTED_EDGE('',*,*,#677,.F.);
#847=ORIENTED_EDGE('',*,*,#678,.T.);
#848=ORIENTED_EDGE('',*,*,#679,.F.);
#849=ORIENTED_EDGE('',*,*,#680,.T.);
#850=ORIENTED_EDGE('',*,*,#681,.T.);
#851=ORIENTED_EDGE('',*,*,#682,.T.);
#852=ORIENTED_EDGE('',*,*,#683,.T.);
#853=ORIENTED_EDGE('',*,*,#681,.F.);
#854=ORIENTED_EDGE('',*,*,#684,.F.);
#855=ORIENTED_EDGE('',*,*,#685,.T.);
#856=ORIENTED_EDGE('',*,*,#686,.F.);
#857=ORIENTED_EDGE('',*,*,#687,.T.);
#858=ORIENTED_EDGE('',*,*,#688,.T.);
#859=ORIENTED_EDGE('',*,*,#689,.T.);
#860=ORIENTED_EDGE('',*,*,#690,.T.);
#861=ORIENTED_EDGE('',*,*,#688,.F.);
#862=ORIENTED_EDGE('',*,*,#691,.T.);
#863=ORIENTED_EDGE('',*,*,#692,.T.);
#864=ORIENTED_EDGE('',*,*,#693,.F.);
#865=ORIENTED_EDGE('',*,*,#694,.T.);
#866=ORIENTED_EDGE('',*,*,#695,.T.);
#867=ORIENTED_EDGE('',*,*,#696,.T.);
#868=ORIENTED_EDGE('',*,*,#697,.T.);
#869=ORIENTED_EDGE('',*,*,#695,.F.);
#870=ORIENTED_EDGE('',*,*,#698,.T.);
#871=ORIENTED_EDGE('',*,*,#699,.T.);
#872=ORIENTED_EDGE('',*,*,#700,.F.);
#873=ORIENTED_EDGE('',*,*,#676,.F.);
#874=ORIENTED_EDGE('',*,*,#701,.F.);
#875=ORIENTED_EDGE('',*,*,#702,.F.);
#876=ORIENTED_EDGE('',*,*,#703,.F.);
#877=ORIENTED_EDGE('',*,*,#704,.T.);
#878=ORIENTED_EDGE('',*,*,#702,.T.);
#879=ORIENTED_EDGE('',*,*,#705,.F.);
#880=ORIENTED_EDGE('',*,*,#692,.F.);
#881=ORIENTED_EDGE('',*,*,#690,.F.);
#882=ORIENTED_EDGE('',*,*,#706,.F.);
#883=ORIENTED_EDGE('',*,*,#707,.F.);
#884=ORIENTED_EDGE('',*,*,#708,.T.);
#885=ORIENTED_EDGE('',*,*,#709,.T.);
#886=ORIENTED_EDGE('',*,*,#707,.T.);
#887=ORIENTED_EDGE('',*,*,#710,.F.);
#888=ORIENTED_EDGE('',*,*,#685,.F.);
#889=ORIENTED_EDGE('',*,*,#683,.F.);
#890=ORIENTED_EDGE('',*,*,#711,.F.);
#891=ORIENTED_EDGE('',*,*,#712,.F.);
#892=ORIENTED_EDGE('',*,*,#713,.F.);
#893=ORIENTED_EDGE('',*,*,#714,.T.);
#894=ORIENTED_EDGE('',*,*,#712,.T.);
#895=ORIENTED_EDGE('',*,*,#715,.F.);
#896=ORIENTED_EDGE('',*,*,#699,.F.);
#897=ORIENTED_EDGE('',*,*,#697,.F.);
#898=ORIENTED_EDGE('',*,*,#716,.F.);
#899=ORIENTED_EDGE('',*,*,#717,.F.);
#900=ORIENTED_EDGE('',*,*,#718,.T.);
#901=ORIENTED_EDGE('',*,*,#719,.T.);
#902=ORIENTED_EDGE('',*,*,#717,.T.);
#903=ORIENTED_EDGE('',*,*,#720,.F.);
#904=ORIENTED_EDGE('',*,*,#678,.F.);
#905=ORIENTED_EDGE('',*,*,#720,.T.);
#906=ORIENTED_EDGE('',*,*,#716,.T.);
#907=ORIENTED_EDGE('',*,*,#696,.F.);
#908=ORIENTED_EDGE('',*,*,#700,.T.);
#909=ORIENTED_EDGE('',*,*,#715,.T.);
#910=ORIENTED_EDGE('',*,*,#711,.T.);
#911=ORIENTED_EDGE('',*,*,#682,.F.);
#912=ORIENTED_EDGE('',*,*,#686,.T.);
#913=ORIENTED_EDGE('',*,*,#710,.T.);
#914=ORIENTED_EDGE('',*,*,#706,.T.);
#915=ORIENTED_EDGE('',*,*,#689,.F.);
#916=ORIENTED_EDGE('',*,*,#693,.T.);
#917=ORIENTED_EDGE('',*,*,#705,.T.);
#918=ORIENTED_EDGE('',*,*,#701,.T.);
#919=ORIENTED_EDGE('',*,*,#675,.F.);
#920=ORIENTED_EDGE('',*,*,#679,.T.);
#921=ORIENTED_EDGE('',*,*,#719,.F.);
#922=ORIENTED_EDGE('',*,*,#677,.T.);
#923=ORIENTED_EDGE('',*,*,#673,.F.);
#924=ORIENTED_EDGE('',*,*,#703,.T.);
#925=ORIENTED_EDGE('',*,*,#704,.F.);
#926=ORIENTED_EDGE('',*,*,#691,.F.);
#927=ORIENTED_EDGE('',*,*,#687,.F.);
#928=ORIENTED_EDGE('',*,*,#708,.F.);
#929=ORIENTED_EDGE('',*,*,#709,.F.);
#930=ORIENTED_EDGE('',*,*,#684,.T.);
#931=ORIENTED_EDGE('',*,*,#680,.F.);
#932=ORIENTED_EDGE('',*,*,#713,.T.);
#933=ORIENTED_EDGE('',*,*,#714,.F.);
#934=ORIENTED_EDGE('',*,*,#698,.F.);
#935=ORIENTED_EDGE('',*,*,#694,.F.);
#936=ORIENTED_EDGE('',*,*,#718,.F.);
#937=ORIENTED_EDGE('',*,*,#721,.T.);
#938=ORIENTED_EDGE('',*,*,#722,.T.);
#939=ORIENTED_EDGE('',*,*,#723,.T.);
#940=ORIENTED_EDGE('',*,*,#724,.T.);
#941=ORIENTED_EDGE('',*,*,#724,.F.);
#942=ORIENTED_EDGE('',*,*,#725,.T.);
#943=ORIENTED_EDGE('',*,*,#726,.F.);
#944=ORIENTED_EDGE('',*,*,#727,.F.);
#945=ORIENTED_EDGE('',*,*,#723,.F.);
#946=ORIENTED_EDGE('',*,*,#728,.T.);
#947=ORIENTED_EDGE('',*,*,#729,.F.);
#948=ORIENTED_EDGE('',*,*,#730,.F.);
#949=ORIENTED_EDGE('',*,*,#731,.F.);
#950=ORIENTED_EDGE('',*,*,#732,.T.);
#951=ORIENTED_EDGE('',*,*,#733,.F.);
#952=ORIENTED_EDGE('',*,*,#725,.F.);
#953=ORIENTED_EDGE('',*,*,#734,.F.);
#954=ORIENTED_EDGE('',*,*,#735,.F.);
#955=ORIENTED_EDGE('',*,*,#736,.F.);
#956=ORIENTED_EDGE('',*,*,#737,.F.);
#957=ORIENTED_EDGE('',*,*,#738,.F.);
#958=ORIENTED_EDGE('',*,*,#739,.F.);
#959=ORIENTED_EDGE('',*,*,#740,.F.);
#960=ORIENTED_EDGE('',*,*,#741,.F.);
#961=ORIENTED_EDGE('',*,*,#742,.F.);
#962=ORIENTED_EDGE('',*,*,#743,.F.);
#963=ORIENTED_EDGE('',*,*,#744,.F.);
#964=ORIENTED_EDGE('',*,*,#745,.F.);
#965=ORIENTED_EDGE('',*,*,#746,.F.);
#966=ORIENTED_EDGE('',*,*,#747,.F.);
#967=ORIENTED_EDGE('',*,*,#748,.F.);
#968=ORIENTED_EDGE('',*,*,#749,.F.);
#969=ORIENTED_EDGE('',*,*,#750,.T.);
#970=ORIENTED_EDGE('',*,*,#726,.T.);
#971=ORIENTED_EDGE('',*,*,#733,.T.);
#972=ORIENTED_EDGE('',*,*,#751,.T.);
#973=ORIENTED_EDGE('',*,*,#751,.F.);
#974=ORIENTED_EDGE('',*,*,#732,.F.);
#975=ORIENTED_EDGE('',*,*,#752,.F.);
#976=ORIENTED_EDGE('',*,*,#753,.F.);
#977=ORIENTED_EDGE('',*,*,#754,.T.);
#978=ORIENTED_EDGE('',*,*,#755,.T.);
#979=ORIENTED_EDGE('',*,*,#734,.T.);
#980=ORIENTED_EDGE('',*,*,#756,.T.);
#981=ORIENTED_EDGE('',*,*,#756,.F.);
#982=ORIENTED_EDGE('',*,*,#749,.T.);
#983=ORIENTED_EDGE('',*,*,#757,.T.);
#984=ORIENTED_EDGE('',*,*,#758,.F.);
#985=ORIENTED_EDGE('',*,*,#759,.T.);
#986=ORIENTED_EDGE('',*,*,#760,.T.);
#987=ORIENTED_EDGE('',*,*,#738,.T.);
#988=ORIENTED_EDGE('',*,*,#761,.T.);
#989=ORIENTED_EDGE('',*,*,#761,.F.);
#990=ORIENTED_EDGE('',*,*,#737,.T.);
#991=ORIENTED_EDGE('',*,*,#762,.T.);
#992=ORIENTED_EDGE('',*,*,#763,.F.);
#993=ORIENTED_EDGE('',*,*,#764,.T.);
#994=ORIENTED_EDGE('',*,*,#765,.T.);
#995=ORIENTED_EDGE('',*,*,#729,.T.);
#996=ORIENTED_EDGE('',*,*,#766,.T.);
#997=ORIENTED_EDGE('',*,*,#765,.F.);
#998=ORIENTED_EDGE('',*,*,#767,.F.);
#999=ORIENTED_EDGE('',*,*,#768,.F.);
#1000=ORIENTED_EDGE('',*,*,#730,.T.);
#1001=ORIENTED_EDGE('',*,*,#769,.T.);
#1002=ORIENTED_EDGE('',*,*,#752,.T.);
#1003=ORIENTED_EDGE('',*,*,#731,.T.);
#1004=ORIENTED_EDGE('',*,*,#768,.T.);
#1005=ORIENTED_EDGE('',*,*,#770,.T.);
#1006=ORIENTED_EDGE('',*,*,#771,.T.);
#1007=ORIENTED_EDGE('',*,*,#742,.T.);
#1008=ORIENTED_EDGE('',*,*,#772,.T.);
#1009=ORIENTED_EDGE('',*,*,#772,.F.);
#1010=ORIENTED_EDGE('',*,*,#741,.T.);
#1011=ORIENTED_EDGE('',*,*,#773,.T.);
#1012=ORIENTED_EDGE('',*,*,#774,.F.);
#1013=ORIENTED_EDGE('',*,*,#775,.T.);
#1014=ORIENTED_EDGE('',*,*,#776,.T.);
#1015=ORIENTED_EDGE('',*,*,#746,.T.);
#1016=ORIENTED_EDGE('',*,*,#777,.T.);
#1017=ORIENTED_EDGE('',*,*,#776,.F.);
#1018=ORIENTED_EDGE('',*,*,#778,.F.);
#1019=ORIENTED_EDGE('',*,*,#779,.F.);
#1020=ORIENTED_EDGE('',*,*,#747,.T.);
#1021=ORIENTED_EDGE('',*,*,#777,.F.);
#1022=ORIENTED_EDGE('',*,*,#745,.T.);
#1023=ORIENTED_EDGE('',*,*,#780,.T.);
#1024=ORIENTED_EDGE('',*,*,#781,.F.);
#1025=ORIENTED_EDGE('',*,*,#748,.T.);
#1026=ORIENTED_EDGE('',*,*,#779,.T.);
#1027=ORIENTED_EDGE('',*,*,#782,.F.);
#1028=ORIENTED_EDGE('',*,*,#757,.F.);
#1029=ORIENTED_EDGE('',*,*,#755,.F.);
#1030=ORIENTED_EDGE('',*,*,#783,.F.);
#1031=ORIENTED_EDGE('',*,*,#784,.F.);
#1032=ORIENTED_EDGE('',*,*,#735,.T.);
#1033=ORIENTED_EDGE('',*,*,#736,.T.);
#1034=ORIENTED_EDGE('',*,*,#784,.T.);
#1035=ORIENTED_EDGE('',*,*,#785,.F.);
#1036=ORIENTED_EDGE('',*,*,#762,.F.);
#1037=ORIENTED_EDGE('',*,*,#760,.F.);
#1038=ORIENTED_EDGE('',*,*,#786,.F.);
#1039=ORIENTED_EDGE('',*,*,#787,.F.);
#1040=ORIENTED_EDGE('',*,*,#739,.T.);
#1041=ORIENTED_EDGE('',*,*,#740,.T.);
#1042=ORIENTED_EDGE('',*,*,#787,.T.);
#1043=ORIENTED_EDGE('',*,*,#788,.F.);
#1044=ORIENTED_EDGE('',*,*,#773,.F.);
#1045=ORIENTED_EDGE('',*,*,#771,.F.);
#1046=ORIENTED_EDGE('',*,*,#789,.F.);
#1047=ORIENTED_EDGE('',*,*,#790,.F.);
#1048=ORIENTED_EDGE('',*,*,#743,.T.);
#1049=ORIENTED_EDGE('',*,*,#744,.T.);
#1050=ORIENTED_EDGE('',*,*,#790,.T.);
#1051=ORIENTED_EDGE('',*,*,#791,.F.);
#1052=ORIENTED_EDGE('',*,*,#780,.F.);
#1053=ORIENTED_EDGE('',*,*,#722,.F.);
#1054=ORIENTED_EDGE('',*,*,#792,.F.);
#1055=ORIENTED_EDGE('',*,*,#766,.F.);
#1056=ORIENTED_EDGE('',*,*,#728,.F.);
#1057=ORIENTED_EDGE('',*,*,#721,.F.);
#1058=ORIENTED_EDGE('',*,*,#727,.T.);
#1059=ORIENTED_EDGE('',*,*,#750,.F.);
#1060=ORIENTED_EDGE('',*,*,#753,.T.);
#1061=ORIENTED_EDGE('',*,*,#769,.F.);
#1062=ORIENTED_EDGE('',*,*,#767,.T.);
#1063=ORIENTED_EDGE('',*,*,#764,.F.);
#1064=ORIENTED_EDGE('',*,*,#792,.T.);
#1065=ORIENTED_EDGE('',*,*,#754,.F.);
#1066=ORIENTED_EDGE('',*,*,#758,.T.);
#1067=ORIENTED_EDGE('',*,*,#782,.T.);
#1068=ORIENTED_EDGE('',*,*,#778,.T.);
#1069=ORIENTED_EDGE('',*,*,#775,.F.);
#1070=ORIENTED_EDGE('',*,*,#781,.T.);
#1071=ORIENTED_EDGE('',*,*,#791,.T.);
#1072=ORIENTED_EDGE('',*,*,#789,.T.);
#1073=ORIENTED_EDGE('',*,*,#770,.F.);
#1074=ORIENTED_EDGE('',*,*,#774,.T.);
#1075=ORIENTED_EDGE('',*,*,#788,.T.);
#1076=ORIENTED_EDGE('',*,*,#786,.T.);
#1077=ORIENTED_EDGE('',*,*,#759,.F.);
#1078=ORIENTED_EDGE('',*,*,#763,.T.);
#1079=ORIENTED_EDGE('',*,*,#785,.T.);
#1080=ORIENTED_EDGE('',*,*,#783,.T.);
#1081=ORIENTED_EDGE('',*,*,#793,.F.);
#1082=ORIENTED_EDGE('',*,*,#794,.T.);
#1083=ORIENTED_EDGE('',*,*,#795,.T.);
#1084=ORIENTED_EDGE('',*,*,#794,.F.);
#1085=ORIENTED_EDGE('',*,*,#796,.F.);
#1086=ORIENTED_EDGE('',*,*,#797,.T.);
#1087=ORIENTED_EDGE('',*,*,#798,.T.);
#1088=ORIENTED_EDGE('',*,*,#797,.F.);
#1089=ORIENTED_EDGE('',*,*,#796,.T.);
#1090=ORIENTED_EDGE('',*,*,#793,.T.);
#1091=ORIENTED_EDGE('',*,*,#798,.F.);
#1092=ORIENTED_EDGE('',*,*,#795,.F.);
#1093=ORIENTED_EDGE('',*,*,#799,.F.);
#1094=ORIENTED_EDGE('',*,*,#800,.T.);
#1095=ORIENTED_EDGE('',*,*,#801,.T.);
#1096=ORIENTED_EDGE('',*,*,#800,.F.);
#1097=ORIENTED_EDGE('',*,*,#802,.F.);
#1098=ORIENTED_EDGE('',*,*,#803,.T.);
#1099=ORIENTED_EDGE('',*,*,#804,.T.);
#1100=ORIENTED_EDGE('',*,*,#803,.F.);
#1101=ORIENTED_EDGE('',*,*,#802,.T.);
#1102=ORIENTED_EDGE('',*,*,#799,.T.);
#1103=ORIENTED_EDGE('',*,*,#804,.F.);
#1104=ORIENTED_EDGE('',*,*,#801,.F.);
#1105=ORIENTED_EDGE('',*,*,#805,.F.);
#1106=ORIENTED_EDGE('',*,*,#806,.T.);
#1107=ORIENTED_EDGE('',*,*,#807,.T.);
#1108=ORIENTED_EDGE('',*,*,#806,.F.);
#1109=ORIENTED_EDGE('',*,*,#808,.F.);
#1110=ORIENTED_EDGE('',*,*,#809,.T.);
#1111=ORIENTED_EDGE('',*,*,#810,.T.);
#1112=ORIENTED_EDGE('',*,*,#809,.F.);
#1113=ORIENTED_EDGE('',*,*,#808,.T.);
#1114=ORIENTED_EDGE('',*,*,#805,.T.);
#1115=ORIENTED_EDGE('',*,*,#810,.F.);
#1116=ORIENTED_EDGE('',*,*,#807,.F.);
#1117=ORIENTED_EDGE('',*,*,#811,.F.);
#1118=ORIENTED_EDGE('',*,*,#812,.T.);
#1119=ORIENTED_EDGE('',*,*,#813,.T.);
#1120=ORIENTED_EDGE('',*,*,#812,.F.);
#1121=ORIENTED_EDGE('',*,*,#814,.F.);
#1122=ORIENTED_EDGE('',*,*,#815,.T.);
#1123=ORIENTED_EDGE('',*,*,#816,.T.);
#1124=ORIENTED_EDGE('',*,*,#815,.F.);
#1125=ORIENTED_EDGE('',*,*,#814,.T.);
#1126=ORIENTED_EDGE('',*,*,#811,.T.);
#1127=ORIENTED_EDGE('',*,*,#816,.F.);
#1128=ORIENTED_EDGE('',*,*,#813,.F.);
#1129=ORIENTED_EDGE('',*,*,#817,.F.);
#1130=ORIENTED_EDGE('',*,*,#818,.T.);
#1131=ORIENTED_EDGE('',*,*,#819,.T.);
#1132=ORIENTED_EDGE('',*,*,#818,.F.);
#1133=ORIENTED_EDGE('',*,*,#820,.F.);
#1134=ORIENTED_EDGE('',*,*,#821,.T.);
#1135=ORIENTED_EDGE('',*,*,#822,.T.);
#1136=ORIENTED_EDGE('',*,*,#821,.F.);
#1137=ORIENTED_EDGE('',*,*,#820,.T.);
#1138=ORIENTED_EDGE('',*,*,#817,.T.);
#1139=ORIENTED_EDGE('',*,*,#822,.F.);
#1140=ORIENTED_EDGE('',*,*,#819,.F.);
#1141=ORIENTED_EDGE('',*,*,#823,.F.);
#1142=ORIENTED_EDGE('',*,*,#824,.T.);
#1143=ORIENTED_EDGE('',*,*,#825,.T.);
#1144=ORIENTED_EDGE('',*,*,#824,.F.);
#1145=ORIENTED_EDGE('',*,*,#826,.F.);
#1146=ORIENTED_EDGE('',*,*,#827,.T.);
#1147=ORIENTED_EDGE('',*,*,#828,.T.);
#1148=ORIENTED_EDGE('',*,*,#827,.F.);
#1149=ORIENTED_EDGE('',*,*,#826,.T.);
#1150=ORIENTED_EDGE('',*,*,#823,.T.);
#1151=ORIENTED_EDGE('',*,*,#828,.F.);
#1152=ORIENTED_EDGE('',*,*,#825,.F.);
#1153=ORIENTED_EDGE('',*,*,#829,.F.);
#1154=ORIENTED_EDGE('',*,*,#830,.T.);
#1155=ORIENTED_EDGE('',*,*,#831,.T.);
#1156=ORIENTED_EDGE('',*,*,#830,.F.);
#1157=ORIENTED_EDGE('',*,*,#832,.F.);
#1158=ORIENTED_EDGE('',*,*,#833,.T.);
#1159=ORIENTED_EDGE('',*,*,#834,.T.);
#1160=ORIENTED_EDGE('',*,*,#833,.F.);
#1161=ORIENTED_EDGE('',*,*,#832,.T.);
#1162=ORIENTED_EDGE('',*,*,#829,.T.);
#1163=ORIENTED_EDGE('',*,*,#834,.F.);
#1164=ORIENTED_EDGE('',*,*,#831,.F.);
#1165=ORIENTED_EDGE('',*,*,#835,.F.);
#1166=ORIENTED_EDGE('',*,*,#836,.T.);
#1167=ORIENTED_EDGE('',*,*,#837,.T.);
#1168=ORIENTED_EDGE('',*,*,#836,.F.);
#1169=ORIENTED_EDGE('',*,*,#838,.F.);
#1170=ORIENTED_EDGE('',*,*,#839,.T.);
#1171=ORIENTED_EDGE('',*,*,#840,.T.);
#1172=ORIENTED_EDGE('',*,*,#839,.F.);
#1173=ORIENTED_EDGE('',*,*,#838,.T.);
#1174=ORIENTED_EDGE('',*,*,#835,.T.);
#1175=ORIENTED_EDGE('',*,*,#840,.F.);
#1176=ORIENTED_EDGE('',*,*,#837,.F.);
#1177=CYLINDRICAL_SURFACE('',#1316,9.);
#1178=CYLINDRICAL_SURFACE('',#1320,9.);
#1179=CYLINDRICAL_SURFACE('',#1324,9.);
#1180=CYLINDRICAL_SURFACE('',#1328,9.);
#1181=CYLINDRICAL_SURFACE('',#1343,9.);
#1182=CYLINDRICAL_SURFACE('',#1355,9.);
#1183=CYLINDRICAL_SURFACE('',#1358,9.);
#1184=CYLINDRICAL_SURFACE('',#1361,9.);
#1185=CYLINDRICAL_SURFACE('',#1364,9.);
#1186=CYLINDRICAL_SURFACE('',#1367,9.);
#1187=CYLINDRICAL_SURFACE('',#1369,9.);
#1188=CYLINDRICAL_SURFACE('',#1372,9.);
#1189=CYLINDRICAL_SURFACE('',#1385,1.5);
#1190=CYLINDRICAL_SURFACE('',#1388,2.50000001490116);
#1191=CYLINDRICAL_SURFACE('',#1393,1.5);
#1192=CYLINDRICAL_SURFACE('',#1396,2.5);
#1193=CYLINDRICAL_SURFACE('',#1401,1.5);
#1194=CYLINDRICAL_SURFACE('',#1404,2.50000001490116);
#1195=CYLINDRICAL_SURFACE('',#1409,1.5);
#1196=CYLINDRICAL_SURFACE('',#1412,2.50000001490116);
#1197=CYLINDRICAL_SURFACE('',#1417,1.5);
#1198=CYLINDRICAL_SURFACE('',#1420,2.50000001490116);
#1199=CYLINDRICAL_SURFACE('',#1425,1.5);
#1200=CYLINDRICAL_SURFACE('',#1428,2.50000001490116);
#1201=CYLINDRICAL_SURFACE('',#1433,1.5);
#1202=CYLINDRICAL_SURFACE('',#1436,2.50000001490116);
#1203=CYLINDRICAL_SURFACE('',#1441,1.5);
#1204=CYLINDRICAL_SURFACE('',#1444,2.50000001490116);
#1205=ADVANCED_FACE('',(#111),#1177,.F.);
#1206=ADVANCED_FACE('',(#112),#63,.T.);
#1207=ADVANCED_FACE('',(#113),#1178,.F.);
#1208=ADVANCED_FACE('',(#114),#64,.T.);
#1209=ADVANCED_FACE('',(#115),#1179,.F.);
#1210=ADVANCED_FACE('',(#116),#65,.T.);
#1211=ADVANCED_FACE('',(#117),#1180,.F.);
#1212=ADVANCED_FACE('',(#118),#66,.T.);
#1213=ADVANCED_FACE('',(#119),#67,.T.);
#1214=ADVANCED_FACE('',(#120),#68,.T.);
#1215=ADVANCED_FACE('',(#121),#69,.T.);
#1216=ADVANCED_FACE('',(#122),#70,.T.);
#1217=ADVANCED_FACE('',(#123),#71,.T.);
#1218=ADVANCED_FACE('',(#124),#72,.T.);
#1219=ADVANCED_FACE('',(#125),#73,.T.);
#1220=ADVANCED_FACE('',(#126),#74,.T.);
#1221=ADVANCED_FACE('',(#127),#75,.T.);
#1222=ADVANCED_FACE('',(#128),#76,.F.);
#1223=ADVANCED_FACE('',(#129),#1181,.T.);
#1224=ADVANCED_FACE('',(#130),#77,.T.);
#1225=ADVANCED_FACE('',(#131,#19),#78,.F.);
#1226=ADVANCED_FACE('',(#132),#1182,.T.);
#1227=ADVANCED_FACE('',(#133),#79,.T.);
#1228=ADVANCED_FACE('',(#134),#1183,.T.);
#1229=ADVANCED_FACE('',(#135),#80,.T.);
#1230=ADVANCED_FACE('',(#136),#1184,.T.);
#1231=ADVANCED_FACE('',(#137),#81,.T.);
#1232=ADVANCED_FACE('',(#138),#1185,.T.);
#1233=ADVANCED_FACE('',(#139),#82,.T.);
#1234=ADVANCED_FACE('',(#140),#1186,.T.);
#1235=ADVANCED_FACE('',(#141),#1187,.T.);
#1236=ADVANCED_FACE('',(#142),#83,.T.);
#1237=ADVANCED_FACE('',(#143),#1188,.T.);
#1238=ADVANCED_FACE('',(#144),#84,.T.);
#1239=ADVANCED_FACE('',(#145),#85,.T.);
#1240=ADVANCED_FACE('',(#146),#86,.T.);
#1241=ADVANCED_FACE('',(#147),#87,.T.);
#1242=ADVANCED_FACE('',(#148),#88,.T.);
#1243=ADVANCED_FACE('',(#149),#89,.T.);
#1244=ADVANCED_FACE('',(#150),#90,.T.);
#1245=ADVANCED_FACE('',(#151),#91,.T.);
#1246=ADVANCED_FACE('',(#152),#92,.T.);
#1247=ADVANCED_FACE('',(#153),#93,.T.);
#1248=ADVANCED_FACE('',(#154,#20),#94,.T.);
#1249=ADVANCED_FACE('',(#155),#1189,.F.);
#1250=ADVANCED_FACE('',(#156),#1190,.T.);
#1251=ADVANCED_FACE('',(#157,#21),#95,.T.);
#1252=ADVANCED_FACE('',(#158,#22),#96,.F.);
#1253=ADVANCED_FACE('',(#159),#1191,.F.);
#1254=ADVANCED_FACE('',(#160),#1192,.T.);
#1255=ADVANCED_FACE('',(#161,#23),#97,.T.);
#1256=ADVANCED_FACE('',(#162,#24),#98,.F.);
#1257=ADVANCED_FACE('',(#163),#1193,.F.);
#1258=ADVANCED_FACE('',(#164),#1194,.T.);
#1259=ADVANCED_FACE('',(#165,#25),#99,.T.);
#1260=ADVANCED_FACE('',(#166,#26),#100,.F.);
#1261=ADVANCED_FACE('',(#167),#1195,.F.);
#1262=ADVANCED_FACE('',(#168),#1196,.T.);
#1263=ADVANCED_FACE('',(#169,#27),#101,.T.);
#1264=ADVANCED_FACE('',(#170,#28),#102,.F.);
#1265=ADVANCED_FACE('',(#171),#1197,.F.);
#1266=ADVANCED_FACE('',(#172),#1198,.T.);
#1267=ADVANCED_FACE('',(#173,#29),#103,.T.);
#1268=ADVANCED_FACE('',(#174,#30),#104,.F.);
#1269=ADVANCED_FACE('',(#175),#1199,.F.);
#1270=ADVANCED_FACE('',(#176),#1200,.T.);
#1271=ADVANCED_FACE('',(#177,#31),#105,.T.);
#1272=ADVANCED_FACE('',(#178,#32),#106,.F.);
#1273=ADVANCED_FACE('',(#179),#1201,.F.);
#1274=ADVANCED_FACE('',(#180),#1202,.T.);
#1275=ADVANCED_FACE('',(#181,#33),#107,.T.);
#1276=ADVANCED_FACE('',(#182,#34),#108,.F.);
#1277=ADVANCED_FACE('',(#183),#1203,.F.);
#1278=ADVANCED_FACE('',(#184),#1204,.T.);
#1279=ADVANCED_FACE('',(#185,#35),#109,.T.);
#1280=ADVANCED_FACE('',(#186,#36),#110,.F.);
#1281=CLOSED_SHELL('',(#1205,#1206,#1207,#1208,#1209,#1210,#1211,#1212,
#1213,#1214,#1215,#1216,#1217,#1218,#1219,#1220,#1221,#1222));
#1282=CLOSED_SHELL('',(#1223,#1224,#1225,#1226,#1227,#1228,#1229,#1230,
#1231,#1232,#1233,#1234,#1235,#1236,#1237,#1238,#1239,#1240,#1241,#1242,
#1243,#1244,#1245,#1246,#1247,#1248));
#1283=CLOSED_SHELL('',(#1249,#1250,#1251,#1252));
#1284=CLOSED_SHELL('',(#1253,#1254,#1255,#1256));
#1285=CLOSED_SHELL('',(#1257,#1258,#1259,#1260));
#1286=CLOSED_SHELL('',(#1261,#1262,#1263,#1264));
#1287=CLOSED_SHELL('',(#1265,#1266,#1267,#1268));
#1288=CLOSED_SHELL('',(#1269,#1270,#1271,#1272));
#1289=CLOSED_SHELL('',(#1273,#1274,#1275,#1276));
#1290=CLOSED_SHELL('',(#1277,#1278,#1279,#1280));
#1291=DERIVED_UNIT_ELEMENT(#1295,1.);
#1292=DERIVED_UNIT_ELEMENT(#2207,-3.);
#1293=DERIVED_UNIT_ELEMENT(#1295,1.);
#1294=DERIVED_UNIT_ELEMENT(#2207,-3.);
#1295=(
MASS_UNIT()
NAMED_UNIT(*)
SI_UNIT(.KILO.,.GRAM.)
);
#1296=DERIVED_UNIT((#1291,#1292));
#1297=DERIVED_UNIT((#1293,#1294));
#1298=MEASURE_REPRESENTATION_ITEM('density measure',
POSITIVE_RATIO_MEASURE(7850.),#1296);
#1299=MEASURE_REPRESENTATION_ITEM('density measure',
POSITIVE_RATIO_MEASURE(7850.),#1297);
#1300=PROPERTY_DEFINITION_REPRESENTATION(#1310,#1304);
#1301=PROPERTY_DEFINITION_REPRESENTATION(#1311,#1305);
#1302=PROPERTY_DEFINITION_REPRESENTATION(#1312,#1306);
#1303=PROPERTY_DEFINITION_REPRESENTATION(#1313,#1307);
#1304=REPRESENTATION('material name',(#1308),#2203);
#1305=REPRESENTATION('density',(#1298),#2203);
#1306=REPRESENTATION('material name',(#1309),#2204);
#1307=REPRESENTATION('density',(#1299),#2204);
#1308=DESCRIPTIVE_REPRESENTATION_ITEM('Steel','Steel');
#1309=DESCRIPTIVE_REPRESENTATION_ITEM('Steel','Steel');
#1310=PROPERTY_DEFINITION('material property','material name',#2223);
#1311=PROPERTY_DEFINITION('material property','density of part',#2223);
#1312=PROPERTY_DEFINITION('material property','material name',#2224);
#1313=PROPERTY_DEFINITION('material property','density of part',#2224);
#1314=AXIS2_PLACEMENT_3D('',#1837,#1451,#1452);
#1315=AXIS2_PLACEMENT_3D('',#1838,#1453,#1454);
#1316=AXIS2_PLACEMENT_3D('',#1839,#1455,#1456);
#1317=AXIS2_PLACEMENT_3D('',#1842,#1457,#1458);
#1318=AXIS2_PLACEMENT_3D('',#1846,#1460,#1461);
#1319=AXIS2_PLACEMENT_3D('',#1848,#1463,#1464);
#1320=AXIS2_PLACEMENT_3D('',#1854,#1468,#1469);
#1321=AXIS2_PLACEMENT_3D('',#1857,#1470,#1471);
#1322=AXIS2_PLACEMENT_3D('',#1861,#1473,#1474);
#1323=AXIS2_PLACEMENT_3D('',#1863,#1476,#1477);
#1324=AXIS2_PLACEMENT_3D('',#1869,#1481,#1482);
#1325=AXIS2_PLACEMENT_3D('',#1872,#1483,#1484);
#1326=AXIS2_PLACEMENT_3D('',#1876,#1486,#1487);
#1327=AXIS2_PLACEMENT_3D('',#1878,#1489,#1490);
#1328=AXIS2_PLACEMENT_3D('',#1884,#1494,#1495);
#1329=AXIS2_PLACEMENT_3D('',#1887,#1496,#1497);
#1330=AXIS2_PLACEMENT_3D('',#1891,#1499,#1500);
#1331=AXIS2_PLACEMENT_3D('',#1893,#1502,#1503);
#1332=AXIS2_PLACEMENT_3D('',#1899,#1507,#1508);
#1333=AXIS2_PLACEMENT_3D('',#1905,#1512,#1513);
#1334=AXIS2_PLACEMENT_3D('',#1908,#1516,#1517);
#1335=AXIS2_PLACEMENT_3D('',#1914,#1521,#1522);
#1336=AXIS2_PLACEMENT_3D('',#1917,#1525,#1526);
#1337=AXIS2_PLACEMENT_3D('',#1923,#1530,#1531);
#1338=AXIS2_PLACEMENT_3D('',#1926,#1534,#1535);
#1339=AXIS2_PLACEMENT_3D('',#1932,#1539,#1540);
#1340=AXIS2_PLACEMENT_3D('',#1935,#1543,#1544);
#1341=AXIS2_PLACEMENT_3D('',#1936,#1545,#1546);
#1342=AXIS2_PLACEMENT_3D('',#1937,#1547,#1548);
#1343=AXIS2_PLACEMENT_3D('',#1938,#1549,#1550);
#1344=AXIS2_PLACEMENT_3D('',#1941,#1551,#1552);
#1345=AXIS2_PLACEMENT_3D('',#1945,#1554,#1555);
#1346=AXIS2_PLACEMENT_3D('',#1947,#1557,#1558);
#1347=AXIS2_PLACEMENT_3D('',#1953,#1562,#1563);
#1348=AXIS2_PLACEMENT_3D('',#1957,#1565,#1566);
#1349=AXIS2_PLACEMENT_3D('',#1961,#1568,#1569);
#1350=AXIS2_PLACEMENT_3D('',#1964,#1571,#1572);
#1351=AXIS2_PLACEMENT_3D('',#1967,#1573,#1574);
#1352=AXIS2_PLACEMENT_3D('',#1975,#1578,#1579);
#1353=AXIS2_PLACEMENT_3D('',#1983,#1583,#1584);
#1354=AXIS2_PLACEMENT_3D('',#1991,#1588,#1589);
#1355=AXIS2_PLACEMENT_3D('',#1997,#1593,#1594);
#1356=AXIS2_PLACEMENT_3D('',#1999,#1595,#1596);
#1357=AXIS2_PLACEMENT_3D('',#2001,#1598,#1599);
#1358=AXIS2_PLACEMENT_3D('',#2005,#1602,#1603);
#1359=AXIS2_PLACEMENT_3D('',#2008,#1604,#1605);
#1360=AXIS2_PLACEMENT_3D('',#2011,#1608,#1609);
#1361=AXIS2_PLACEMENT_3D('',#2015,#1612,#1613);
#1362=AXIS2_PLACEMENT_3D('',#2018,#1614,#1615);
#1363=AXIS2_PLACEMENT_3D('',#2021,#1618,#1619);
#1364=AXIS2_PLACEMENT_3D('',#2025,#1622,#1623);
#1365=AXIS2_PLACEMENT_3D('',#2028,#1624,#1625);
#1366=AXIS2_PLACEMENT_3D('',#2031,#1628,#1629);
#1367=AXIS2_PLACEMENT_3D('',#2035,#1632,#1633);
#1368=AXIS2_PLACEMENT_3D('',#2036,#1634,#1635);
#1369=AXIS2_PLACEMENT_3D('',#2037,#1636,#1637);
#1370=AXIS2_PLACEMENT_3D('',#2040,#1638,#1639);
#1371=AXIS2_PLACEMENT_3D('',#2043,#1642,#1643);
#1372=AXIS2_PLACEMENT_3D('',#2047,#1646,#1647);
#1373=AXIS2_PLACEMENT_3D('',#2050,#1648,#1649);
#1374=AXIS2_PLACEMENT_3D('',#2053,#1652,#1653);
#1375=AXIS2_PLACEMENT_3D('',#2057,#1656,#1657);
#1376=AXIS2_PLACEMENT_3D('',#2061,#1660,#1661);
#1377=AXIS2_PLACEMENT_3D('',#2063,#1663,#1664);
#1378=AXIS2_PLACEMENT_3D('',#2067,#1667,#1668);
#1379=AXIS2_PLACEMENT_3D('',#2069,#1670,#1671);
#1380=AXIS2_PLACEMENT_3D('',#2073,#1674,#1675);
#1381=AXIS2_PLACEMENT_3D('',#2075,#1677,#1678);
#1382=AXIS2_PLACEMENT_3D('',#2079,#1681,#1682);
#1383=AXIS2_PLACEMENT_3D('',#2081,#1684,#1685);
#1384=AXIS2_PLACEMENT_3D('',#2083,#1687,#1688);
#1385=AXIS2_PLACEMENT_3D('',#2084,#1689,#1690);
#1386=AXIS2_PLACEMENT_3D('',#2086,#1691,#1692);
#1387=AXIS2_PLACEMENT_3D('',#2089,#1694,#1695);
#1388=AXIS2_PLACEMENT_3D('',#2090,#1696,#1697);
#1389=AXIS2_PLACEMENT_3D('',#2092,#1698,#1699);
#1390=AXIS2_PLACEMENT_3D('',#2095,#1701,#1702);
#1391=AXIS2_PLACEMENT_3D('',#2096,#1703,#1704);
#1392=AXIS2_PLACEMENT_3D('',#2097,#1705,#1706);
#1393=AXIS2_PLACEMENT_3D('',#2098,#1707,#1708);
#1394=AXIS2_PLACEMENT_3D('',#2100,#1709,#1710);
#1395=AXIS2_PLACEMENT_3D('',#2103,#1712,#1713);
#1396=AXIS2_PLACEMENT_3D('',#2104,#1714,#1715);
#1397=AXIS2_PLACEMENT_3D('',#2106,#1716,#1717);
#1398=AXIS2_PLACEMENT_3D('',#2109,#1719,#1720);
#1399=AXIS2_PLACEMENT_3D('',#2110,#1721,#1722);
#1400=AXIS2_PLACEMENT_3D('',#2111,#1723,#1724);
#1401=AXIS2_PLACEMENT_3D('',#2112,#1725,#1726);
#1402=AXIS2_PLACEMENT_3D('',#2114,#1727,#1728);
#1403=AXIS2_PLACEMENT_3D('',#2117,#1730,#1731);
#1404=AXIS2_PLACEMENT_3D('',#2118,#1732,#1733);
#1405=AXIS2_PLACEMENT_3D('',#2120,#1734,#1735);
#1406=AXIS2_PLACEMENT_3D('',#2123,#1737,#1738);
#1407=AXIS2_PLACEMENT_3D('',#2124,#1739,#1740);
#1408=AXIS2_PLACEMENT_3D('',#2125,#1741,#1742);
#1409=AXIS2_PLACEMENT_3D('',#2126,#1743,#1744);
#1410=AXIS2_PLACEMENT_3D('',#2128,#1745,#1746);
#1411=AXIS2_PLACEMENT_3D('',#2131,#1748,#1749);
#1412=AXIS2_PLACEMENT_3D('',#2132,#1750,#1751);
#1413=AXIS2_PLACEMENT_3D('',#2134,#1752,#1753);
#1414=AXIS2_PLACEMENT_3D('',#2137,#1755,#1756);
#1415=AXIS2_PLACEMENT_3D('',#2138,#1757,#1758);
#1416=AXIS2_PLACEMENT_3D('',#2139,#1759,#1760);
#1417=AXIS2_PLACEMENT_3D('',#2140,#1761,#1762);
#1418=AXIS2_PLACEMENT_3D('',#2142,#1763,#1764);
#1419=AXIS2_PLACEMENT_3D('',#2145,#1766,#1767);
#1420=AXIS2_PLACEMENT_3D('',#2146,#1768,#1769);
#1421=AXIS2_PLACEMENT_3D('',#2148,#1770,#1771);
#1422=AXIS2_PLACEMENT_3D('',#2151,#1773,#1774);
#1423=AXIS2_PLACEMENT_3D('',#2152,#1775,#1776);
#1424=AXIS2_PLACEMENT_3D('',#2153,#1777,#1778);
#1425=AXIS2_PLACEMENT_3D('',#2154,#1779,#1780);
#1426=AXIS2_PLACEMENT_3D('',#2156,#1781,#1782);
#1427=AXIS2_PLACEMENT_3D('',#2159,#1784,#1785);
#1428=AXIS2_PLACEMENT_3D('',#2160,#1786,#1787);
#1429=AXIS2_PLACEMENT_3D('',#2162,#1788,#1789);
#1430=AXIS2_PLACEMENT_3D('',#2165,#1791,#1792);
#1431=AXIS2_PLACEMENT_3D('',#2166,#1793,#1794);
#1432=AXIS2_PLACEMENT_3D('',#2167,#1795,#1796);
#1433=AXIS2_PLACEMENT_3D('',#2168,#1797,#1798);
#1434=AXIS2_PLACEMENT_3D('',#2170,#1799,#1800);
#1435=AXIS2_PLACEMENT_3D('',#2173,#1802,#1803);
#1436=AXIS2_PLACEMENT_3D('',#2174,#1804,#1805);
#1437=AXIS2_PLACEMENT_3D('',#2176,#1806,#1807);
#1438=AXIS2_PLACEMENT_3D('',#2179,#1809,#1810);
#1439=AXIS2_PLACEMENT_3D('',#2180,#1811,#1812);
#1440=AXIS2_PLACEMENT_3D('',#2181,#1813,#1814);
#1441=AXIS2_PLACEMENT_3D('',#2182,#1815,#1816);
#1442=AXIS2_PLACEMENT_3D('',#2184,#1817,#1818);
#1443=AXIS2_PLACEMENT_3D('',#2187,#1820,#1821);
#1444=AXIS2_PLACEMENT_3D('',#2188,#1822,#1823);
#1445=AXIS2_PLACEMENT_3D('',#2190,#1824,#1825);
#1446=AXIS2_PLACEMENT_3D('',#2193,#1827,#1828);
#1447=AXIS2_PLACEMENT_3D('',#2194,#1829,#1830);
#1448=AXIS2_PLACEMENT_3D('',#2195,#1831,#1832);
#1449=AXIS2_PLACEMENT_3D('',#2196,#1833,#1834);
#1450=AXIS2_PLACEMENT_3D('',#2197,#1835,#1836);
#1451=DIRECTION('axis',(0.,0.,1.));
#1452=DIRECTION('refdir',(1.,0.,0.));
#1453=DIRECTION('axis',(0.,0.,1.));
#1454=DIRECTION('refdir',(1.,0.,0.));
#1455=DIRECTION('center_axis',(0.,1.,0.));
#1456=DIRECTION('ref_axis',(-0.707106781186548,0.,0.707106781186547));
#1457=DIRECTION('center_axis',(0.,-1.,0.));
#1458=DIRECTION('ref_axis',(-0.707106781186548,0.,0.707106781186547));
#1459=DIRECTION('',(0.,1.,0.));
#1460=DIRECTION('center_axis',(0.,1.,0.));
#1461=DIRECTION('ref_axis',(-0.707106781186548,0.,0.707106781186547));
#1462=DIRECTION('',(0.,-1.,0.));
#1463=DIRECTION('center_axis',(1.,0.,0.));
#1464=DIRECTION('ref_axis',(0.,0.,-1.));
#1465=DIRECTION('',(0.,0.,1.));
#1466=DIRECTION('',(0.,1.,0.));
#1467=DIRECTION('',(0.,0.,-1.));
#1468=DIRECTION('center_axis',(0.,1.,0.));
#1469=DIRECTION('ref_axis',(0.707106781186548,0.,-0.707106781186547));
#1470=DIRECTION('center_axis',(0.,-1.,0.));
#1471=DIRECTION('ref_axis',(0.707106781186548,0.,-0.707106781186547));
#1472=DIRECTION('',(0.,1.,0.));
#1473=DIRECTION('center_axis',(0.,1.,0.));
#1474=DIRECTION('ref_axis',(0.707106781186548,0.,-0.707106781186547));
#1475=DIRECTION('',(0.,-1.,0.));
#1476=DIRECTION('center_axis',(-1.,0.,0.));
#1477=DIRECTION('ref_axis',(0.,0.,1.));
#1478=DIRECTION('',(0.,0.,-1.));
#1479=DIRECTION('',(0.,1.,0.));
#1480=DIRECTION('',(0.,0.,1.));
#1481=DIRECTION('center_axis',(0.,1.,0.));
#1482=DIRECTION('ref_axis',(-0.707106781186547,0.,-0.707106781186548));
#1483=DIRECTION('center_axis',(0.,-1.,0.));
#1484=DIRECTION('ref_axis',(-0.707106781186547,0.,-0.707106781186548));
#1485=DIRECTION('',(0.,1.,0.));
#1486=DIRECTION('center_axis',(0.,1.,0.));
#1487=DIRECTION('ref_axis',(-0.707106781186547,0.,-0.707106781186548));
#1488=DIRECTION('',(0.,-1.,0.));
#1489=DIRECTION('center_axis',(0.,0.,1.));
#1490=DIRECTION('ref_axis',(1.,0.,0.));
#1491=DIRECTION('',(1.,0.,0.));
#1492=DIRECTION('',(0.,1.,0.));
#1493=DIRECTION('',(1.,0.,0.));
#1494=DIRECTION('center_axis',(0.,1.,0.));
#1495=DIRECTION('ref_axis',(0.707106781186547,0.,0.707106781186548));
#1496=DIRECTION('center_axis',(0.,-1.,0.));
#1497=DIRECTION('ref_axis',(0.707106781186547,0.,0.707106781186548));
#1498=DIRECTION('',(0.,1.,0.));
#1499=DIRECTION('center_axis',(0.,1.,0.));
#1500=DIRECTION('ref_axis',(0.707106781186547,0.,0.707106781186548));
#1501=DIRECTION('',(0.,-1.,0.));
#1502=DIRECTION('center_axis',(0.,0.,-1.));
#1503=DIRECTION('ref_axis',(-1.,0.,0.));
#1504=DIRECTION('',(-1.,0.,0.));
#1505=DIRECTION('',(0.,1.,0.));
#1506=DIRECTION('',(-1.,0.,0.));
#1507=DIRECTION('center_axis',(0.,0.,-1.));
#1508=DIRECTION('ref_axis',(-1.,0.,0.));
#1509=DIRECTION('',(-1.,0.,0.));
#1510=DIRECTION('',(0.,1.,0.));
#1511=DIRECTION('',(1.,0.,0.));
#1512=DIRECTION('center_axis',(1.,0.,0.));
#1513=DIRECTION('ref_axis',(0.,0.,-1.));
#1514=DIRECTION('',(0.,0.,-1.));
#1515=DIRECTION('',(0.,0.,-1.));
#1516=DIRECTION('center_axis',(1.,0.,0.));
#1517=DIRECTION('ref_axis',(0.,0.,-1.));
#1518=DIRECTION('',(0.,0.,-1.));
#1519=DIRECTION('',(0.,1.,0.));
#1520=DIRECTION('',(0.,0.,-1.));
#1521=DIRECTION('center_axis',(0.,0.,1.));
#1522=DIRECTION('ref_axis',(1.,0.,0.));
#1523=DIRECTION('',(1.,0.,0.));
#1524=DIRECTION('',(1.,0.,0.));
#1525=DIRECTION('center_axis',(0.,0.,1.));
#1526=DIRECTION('ref_axis',(1.,0.,0.));
#1527=DIRECTION('',(1.,0.,0.));
#1528=DIRECTION('',(0.,1.,0.));
#1529=DIRECTION('',(-1.,0.,0.));
#1530=DIRECTION('center_axis',(-1.,0.,-7.93016446160826E-17));
#1531=DIRECTION('ref_axis',(-7.93016446160826E-17,0.,1.));
#1532=DIRECTION('',(-7.93016446160826E-17,0.,1.));
#1533=DIRECTION('',(-7.93016446160826E-17,0.,1.));
#1534=DIRECTION('center_axis',(-1.,0.,0.));
#1535=DIRECTION('ref_axis',(0.,0.,1.));
#1536=DIRECTION('',(0.,0.,1.));
#1537=DIRECTION('',(0.,1.,0.));
#1538=DIRECTION('',(0.,0.,1.));
#1539=DIRECTION('center_axis',(0.,0.,-1.));
#1540=DIRECTION('ref_axis',(-1.,0.,0.));
#1541=DIRECTION('',(-1.,0.,0.));
#1542=DIRECTION('',(-1.,0.,0.));
#1543=DIRECTION('center_axis',(0.,1.,0.));
#1544=DIRECTION('ref_axis',(0.,0.,1.));
#1545=DIRECTION('center_axis',(0.,1.,0.));
#1546=DIRECTION('ref_axis',(1.,0.,0.));
#1547=DIRECTION('axis',(0.,0.,1.));
#1548=DIRECTION('refdir',(1.,0.,0.));
#1549=DIRECTION('center_axis',(0.,1.,0.));
#1550=DIRECTION('ref_axis',(-0.707106781186547,0.,0.707106781186548));
#1551=DIRECTION('center_axis',(0.,-1.,0.));
#1552=DIRECTION('ref_axis',(-0.707106781186547,0.,0.707106781186548));
#1553=DIRECTION('',(0.,-1.,0.));
#1554=DIRECTION('center_axis',(0.,1.,0.));
#1555=DIRECTION('ref_axis',(-0.707106781186547,0.,0.707106781186548));
#1556=DIRECTION('',(0.,1.,0.));
#1557=DIRECTION('center_axis',(0.,0.,1.));
#1558=DIRECTION('ref_axis',(1.,0.,0.));
#1559=DIRECTION('',(1.,0.,0.));
#1560=DIRECTION('',(0.,-1.,0.));
#1561=DIRECTION('',(1.,0.,0.));
#1562=DIRECTION('center_axis',(0.,1.,0.));
#1563=DIRECTION('ref_axis',(1.,0.,0.));
#1564=DIRECTION('',(-4.56516727558456E-32,0.,-1.));
#1565=DIRECTION('center_axis',(0.,1.,0.));
#1566=DIRECTION('ref_axis',(-0.707106781186548,0.,-0.707106781186547));
#1567=DIRECTION('',(-1.,0.,0.));
#1568=DIRECTION('center_axis',(0.,1.,0.));
#1569=DIRECTION('ref_axis',(0.707106781186546,0.,-0.707106781186549));
#1570=DIRECTION('',(0.,0.,1.));
#1571=DIRECTION('center_axis',(0.,1.,0.));
#1572=DIRECTION('ref_axis',(0.707106781186548,0.,0.707106781186547));
#1573=DIRECTION('center_axis',(0.,1.,0.));
#1574=DIRECTION('ref_axis',(0.707106781186548,0.,-0.707106781186547));
#1575=DIRECTION('',(0.,0.,-1.));
#1576=DIRECTION('',(-1.,0.,0.));
#1577=DIRECTION('',(0.,0.,1.));
#1578=DIRECTION('center_axis',(0.,1.,0.));
#1579=DIRECTION('ref_axis',(-0.707106781186548,0.,-0.707106781186547));
#1580=DIRECTION('',(-1.,0.,0.));
#1581=DIRECTION('',(0.,0.,1.));
#1582=DIRECTION('',(1.,0.,0.));
#1583=DIRECTION('center_axis',(0.,1.,0.));
#1584=DIRECTION('ref_axis',(-0.707106781186547,0.,0.707106781186548));
#1585=DIRECTION('',(0.,0.,1.));
#1586=DIRECTION('',(1.,0.,0.));
#1587=DIRECTION('',(0.,0.,-1.));
#1588=DIRECTION('center_axis',(0.,1.,0.));
#1589=DIRECTION('ref_axis',(0.707106781186547,0.,0.707106781186548));
#1590=DIRECTION('',(1.,0.,0.));
#1591=DIRECTION('',(7.93016446160826E-17,0.,-1.));
#1592=DIRECTION('',(-1.,0.,0.));
#1593=DIRECTION('center_axis',(0.,1.,0.));
#1594=DIRECTION('ref_axis',(0.707106781186548,0.,0.707106781186547));
#1595=DIRECTION('center_axis',(0.,-1.,0.));
#1596=DIRECTION('ref_axis',(0.707106781186548,0.,0.707106781186547));
#1597=DIRECTION('',(0.,1.,0.));
#1598=DIRECTION('center_axis',(1.,0.,0.));
#1599=DIRECTION('ref_axis',(0.,0.,-1.));
#1600=DIRECTION('',(0.,-1.,0.));
#1601=DIRECTION('',(0.,0.,-1.));
#1602=DIRECTION('center_axis',(0.,1.,0.));
#1603=DIRECTION('ref_axis',(0.707106781186548,0.,-0.707106781186547));
#1604=DIRECTION('center_axis',(0.,-1.,0.));
#1605=DIRECTION('ref_axis',(0.707106781186548,0.,-0.707106781186547));
#1606=DIRECTION('',(0.,-1.,0.));
#1607=DIRECTION('',(0.,1.,0.));
#1608=DIRECTION('center_axis',(0.,0.,-1.));
#1609=DIRECTION('ref_axis',(-1.,0.,0.));
#1610=DIRECTION('',(0.,1.,0.));
#1611=DIRECTION('',(-1.,0.,0.));
#1612=DIRECTION('center_axis',(0.,1.,0.));
#1613=DIRECTION('ref_axis',(-0.707106781186548,0.,-0.707106781186547));
#1614=DIRECTION('center_axis',(0.,-1.,0.));
#1615=DIRECTION('ref_axis',(-0.707106781186548,0.,-0.707106781186547));
#1616=DIRECTION('',(0.,-1.,0.));
#1617=DIRECTION('',(0.,1.,0.));
#1618=DIRECTION('center_axis',(-1.,0.,0.));
#1619=DIRECTION('ref_axis',(0.,0.,1.));
#1620=DIRECTION('',(0.,1.,0.));
#1621=DIRECTION('',(0.,0.,1.));
#1622=DIRECTION('center_axis',(0.,1.,0.));
#1623=DIRECTION('ref_axis',(-0.707106781186548,0.,-0.707106781186547));
#1624=DIRECTION('center_axis',(0.,-1.,0.));
#1625=DIRECTION('ref_axis',(-0.707106781186548,0.,-0.707106781186547));
#1626=DIRECTION('',(0.,-1.,0.));
#1627=DIRECTION('',(0.,1.,0.));
#1628=DIRECTION('center_axis',(0.,0.,-1.));
#1629=DIRECTION('ref_axis',(-1.,0.,0.));
#1630=DIRECTION('',(-1.,0.,0.));
#1631=DIRECTION('',(0.,1.,0.));
#1632=DIRECTION('center_axis',(0.,1.,0.));
#1633=DIRECTION('ref_axis',(0.707106781186546,0.,-0.707106781186549));
#1634=DIRECTION('center_axis',(0.,-1.,0.));
#1635=DIRECTION('ref_axis',(0.707106781186546,0.,-0.707106781186549));
#1636=DIRECTION('center_axis',(0.,1.,0.));
#1637=DIRECTION('ref_axis',(-0.707106781186547,0.,0.707106781186548));
#1638=DIRECTION('center_axis',(0.,-1.,0.));
#1639=DIRECTION('ref_axis',(-0.707106781186547,0.,0.707106781186548));
#1640=DIRECTION('',(0.,-1.,0.));
#1641=DIRECTION('',(0.,1.,0.));
#1642=DIRECTION('center_axis',(0.,0.,1.));
#1643=DIRECTION('ref_axis',(1.,0.,0.));
#1644=DIRECTION('',(0.,1.,0.));
#1645=DIRECTION('',(1.,0.,0.));
#1646=DIRECTION('center_axis',(0.,1.,0.));
#1647=DIRECTION('ref_axis',(0.707106781186547,0.,0.707106781186548));
#1648=DIRECTION('center_axis',(0.,-1.,0.));
#1649=DIRECTION('ref_axis',(0.707106781186547,0.,0.707106781186548));
#1650=DIRECTION('',(0.,-1.,0.));
#1651=DIRECTION('',(0.,1.,0.));
#1652=DIRECTION('center_axis',(0.,0.,1.));
#1653=DIRECTION('ref_axis',(1.,0.,0.));
#1654=DIRECTION('',(1.,0.,0.));
#1655=DIRECTION('',(0.,1.,0.));
#1656=DIRECTION('center_axis',(1.,0.,0.));
#1657=DIRECTION('ref_axis',(0.,0.,-1.));
#1658=DIRECTION('',(0.,1.,0.));
#1659=DIRECTION('',(0.,0.,-1.));
#1660=DIRECTION('center_axis',(1.,0.,7.93016446160826E-17));
#1661=DIRECTION('ref_axis',(7.93016446160826E-17,0.,-1.));
#1662=DIRECTION('',(7.93016446160826E-17,0.,-1.));
#1663=DIRECTION('center_axis',(1.,0.,0.));
#1664=DIRECTION('ref_axis',(0.,0.,-1.));
#1665=DIRECTION('',(0.,0.,-1.));
#1666=DIRECTION('',(0.,1.,0.));
#1667=DIRECTION('center_axis',(0.,0.,-1.));
#1668=DIRECTION('ref_axis',(-1.,0.,0.));
#1669=DIRECTION('',(-1.,0.,0.));
#1670=DIRECTION('center_axis',(0.,0.,-1.));
#1671=DIRECTION('ref_axis',(-1.,0.,0.));
#1672=DIRECTION('',(-1.,0.,0.));
#1673=DIRECTION('',(0.,1.,0.));
#1674=DIRECTION('center_axis',(-1.,0.,0.));
#1675=DIRECTION('ref_axis',(0.,0.,1.));
#1676=DIRECTION('',(0.,0.,1.));
#1677=DIRECTION('center_axis',(-1.,0.,0.));
#1678=DIRECTION('ref_axis',(0.,0.,1.));
#1679=DIRECTION('',(0.,0.,1.));
#1680=DIRECTION('',(0.,1.,0.));
#1681=DIRECTION('center_axis',(0.,0.,1.));
#1682=DIRECTION('ref_axis',(1.,0.,0.));
#1683=DIRECTION('',(1.,0.,0.));
#1684=DIRECTION('center_axis',(-1.,0.,4.56516727558456E-32));
#1685=DIRECTION('ref_axis',(4.56516727558456E-32,0.,1.));
#1686=DIRECTION('',(4.56516727558456E-32,0.,1.));
#1687=DIRECTION('center_axis',(0.,1.,0.));
#1688=DIRECTION('ref_axis',(0.,0.,1.));
#1689=DIRECTION('center_axis',(0.,1.,0.));
#1690=DIRECTION('ref_axis',(1.,0.,0.));
#1691=DIRECTION('center_axis',(0.,-1.,0.));
#1692=DIRECTION('ref_axis',(1.,0.,0.));
#1693=DIRECTION('',(0.,-1.,0.));
#1694=DIRECTION('center_axis',(0.,-1.,0.));
#1695=DIRECTION('ref_axis',(1.,0.,0.));
#1696=DIRECTION('center_axis',(0.,1.,0.));
#1697=DIRECTION('ref_axis',(1.,0.,0.));
#1698=DIRECTION('center_axis',(0.,1.,0.));
#1699=DIRECTION('ref_axis',(1.,0.,0.));
#1700=DIRECTION('',(0.,-1.,0.));
#1701=DIRECTION('center_axis',(0.,1.,0.));
#1702=DIRECTION('ref_axis',(1.,0.,0.));
#1703=DIRECTION('center_axis',(0.,1.,0.));
#1704=DIRECTION('ref_axis',(1.,0.,0.));
#1705=DIRECTION('center_axis',(0.,1.,0.));
#1706=DIRECTION('ref_axis',(1.,0.,0.));
#1707=DIRECTION('center_axis',(0.,1.,0.));
#1708=DIRECTION('ref_axis',(1.,0.,0.));
#1709=DIRECTION('center_axis',(0.,-1.,0.));
#1710=DIRECTION('ref_axis',(1.,0.,0.));
#1711=DIRECTION('',(0.,-1.,0.));
#1712=DIRECTION('center_axis',(0.,-1.,0.));
#1713=DIRECTION('ref_axis',(1.,0.,0.));
#1714=DIRECTION('center_axis',(0.,1.,0.));
#1715=DIRECTION('ref_axis',(1.,0.,0.));
#1716=DIRECTION('center_axis',(0.,1.,0.));
#1717=DIRECTION('ref_axis',(1.,0.,0.));
#1718=DIRECTION('',(0.,-1.,0.));
#1719=DIRECTION('center_axis',(0.,1.,0.));
#1720=DIRECTION('ref_axis',(1.,0.,0.));
#1721=DIRECTION('center_axis',(0.,1.,0.));
#1722=DIRECTION('ref_axis',(1.,0.,0.));
#1723=DIRECTION('center_axis',(0.,1.,0.));
#1724=DIRECTION('ref_axis',(1.,0.,0.));
#1725=DIRECTION('center_axis',(0.,1.,0.));
#1726=DIRECTION('ref_axis',(1.,0.,0.));
#1727=DIRECTION('center_axis',(0.,-1.,0.));
#1728=DIRECTION('ref_axis',(1.,0.,0.));
#1729=DIRECTION('',(0.,-1.,0.));
#1730=DIRECTION('center_axis',(0.,-1.,0.));
#1731=DIRECTION('ref_axis',(1.,0.,0.));
#1732=DIRECTION('center_axis',(0.,1.,0.));
#1733=DIRECTION('ref_axis',(1.,0.,0.));
#1734=DIRECTION('center_axis',(0.,1.,0.));
#1735=DIRECTION('ref_axis',(1.,0.,0.));
#1736=DIRECTION('',(0.,-1.,0.));
#1737=DIRECTION('center_axis',(0.,1.,0.));
#1738=DIRECTION('ref_axis',(1.,0.,0.));
#1739=DIRECTION('center_axis',(0.,1.,0.));
#1740=DIRECTION('ref_axis',(1.,0.,0.));
#1741=DIRECTION('center_axis',(0.,1.,0.));
#1742=DIRECTION('ref_axis',(1.,0.,0.));
#1743=DIRECTION('center_axis',(0.,1.,0.));
#1744=DIRECTION('ref_axis',(1.,0.,0.));
#1745=DIRECTION('center_axis',(0.,-1.,0.));
#1746=DIRECTION('ref_axis',(1.,0.,0.));
#1747=DIRECTION('',(0.,-1.,0.));
#1748=DIRECTION('center_axis',(0.,-1.,0.));
#1749=DIRECTION('ref_axis',(1.,0.,0.));
#1750=DIRECTION('center_axis',(0.,1.,0.));
#1751=DIRECTION('ref_axis',(1.,0.,0.));
#1752=DIRECTION('center_axis',(0.,1.,0.));
#1753=DIRECTION('ref_axis',(1.,0.,0.));
#1754=DIRECTION('',(0.,-1.,0.));
#1755=DIRECTION('center_axis',(0.,1.,0.));
#1756=DIRECTION('ref_axis',(1.,0.,0.));
#1757=DIRECTION('center_axis',(0.,1.,0.));
#1758=DIRECTION('ref_axis',(1.,0.,0.));
#1759=DIRECTION('center_axis',(0.,1.,0.));
#1760=DIRECTION('ref_axis',(1.,0.,0.));
#1761=DIRECTION('center_axis',(0.,1.,0.));
#1762=DIRECTION('ref_axis',(1.,0.,0.));
#1763=DIRECTION('center_axis',(0.,-1.,0.));
#1764=DIRECTION('ref_axis',(1.,0.,0.));
#1765=DIRECTION('',(0.,-1.,0.));
#1766=DIRECTION('center_axis',(0.,-1.,0.));
#1767=DIRECTION('ref_axis',(1.,0.,0.));
#1768=DIRECTION('center_axis',(0.,1.,0.));
#1769=DIRECTION('ref_axis',(1.,0.,0.));
#1770=DIRECTION('center_axis',(0.,1.,0.));
#1771=DIRECTION('ref_axis',(1.,0.,0.));
#1772=DIRECTION('',(0.,-1.,0.));
#1773=DIRECTION('center_axis',(0.,1.,0.));
#1774=DIRECTION('ref_axis',(1.,0.,0.));
#1775=DIRECTION('center_axis',(0.,1.,0.));
#1776=DIRECTION('ref_axis',(1.,0.,0.));
#1777=DIRECTION('center_axis',(0.,1.,0.));
#1778=DIRECTION('ref_axis',(1.,0.,0.));
#1779=DIRECTION('center_axis',(0.,1.,0.));
#1780=DIRECTION('ref_axis',(1.,0.,0.));
#1781=DIRECTION('center_axis',(0.,-1.,0.));
#1782=DIRECTION('ref_axis',(1.,0.,0.));
#1783=DIRECTION('',(0.,-1.,0.));
#1784=DIRECTION('center_axis',(0.,-1.,0.));
#1785=DIRECTION('ref_axis',(1.,0.,0.));
#1786=DIRECTION('center_axis',(0.,1.,0.));
#1787=DIRECTION('ref_axis',(1.,0.,0.));
#1788=DIRECTION('center_axis',(0.,1.,0.));
#1789=DIRECTION('ref_axis',(1.,0.,0.));
#1790=DIRECTION('',(0.,-1.,0.));
#1791=DIRECTION('center_axis',(0.,1.,0.));
#1792=DIRECTION('ref_axis',(1.,0.,0.));
#1793=DIRECTION('center_axis',(0.,1.,0.));
#1794=DIRECTION('ref_axis',(1.,0.,0.));
#1795=DIRECTION('center_axis',(0.,1.,0.));
#1796=DIRECTION('ref_axis',(1.,0.,0.));
#1797=DIRECTION('center_axis',(0.,1.,0.));
#1798=DIRECTION('ref_axis',(1.,0.,0.));
#1799=DIRECTION('center_axis',(0.,-1.,0.));
#1800=DIRECTION('ref_axis',(1.,0.,0.));
#1801=DIRECTION('',(0.,-1.,0.));
#1802=DIRECTION('center_axis',(0.,-1.,0.));
#1803=DIRECTION('ref_axis',(1.,0.,0.));
#1804=DIRECTION('center_axis',(0.,1.,0.));
#1805=DIRECTION('ref_axis',(1.,0.,0.));
#1806=DIRECTION('center_axis',(0.,1.,0.));
#1807=DIRECTION('ref_axis',(1.,0.,0.));
#1808=DIRECTION('',(0.,-1.,0.));
#1809=DIRECTION('center_axis',(0.,1.,0.));
#1810=DIRECTION('ref_axis',(1.,0.,0.));
#1811=DIRECTION('center_axis',(0.,1.,0.));
#1812=DIRECTION('ref_axis',(1.,0.,0.));
#1813=DIRECTION('center_axis',(0.,1.,0.));
#1814=DIRECTION('ref_axis',(1.,0.,0.));
#1815=DIRECTION('center_axis',(0.,1.,0.));
#1816=DIRECTION('ref_axis',(1.,0.,0.));
#1817=DIRECTION('center_axis',(0.,-1.,0.));
#1818=DIRECTION('ref_axis',(1.,0.,0.));
#1819=DIRECTION('',(0.,-1.,0.));
#1820=DIRECTION('center_axis',(0.,-1.,0.));
#1821=DIRECTION('ref_axis',(1.,0.,0.));
#1822=DIRECTION('center_axis',(0.,1.,0.));
#1823=DIRECTION('ref_axis',(1.,0.,0.));
#1824=DIRECTION('center_axis',(0.,1.,0.));
#1825=DIRECTION('ref_axis',(1.,0.,0.));
#1826=DIRECTION('',(0.,-1.,0.));
#1827=DIRECTION('center_axis',(0.,1.,0.));
#1828=DIRECTION('ref_axis',(1.,0.,0.));
#1829=DIRECTION('center_axis',(0.,1.,0.));
#1830=DIRECTION('ref_axis',(1.,0.,0.));
#1831=DIRECTION('center_axis',(0.,1.,0.));
#1832=DIRECTION('ref_axis',(1.,0.,0.));
#1833=DIRECTION('',(0.,0.,1.));
#1834=DIRECTION('',(1.,0.,0.));
#1835=DIRECTION('',(0.,0.,1.));
#1836=DIRECTION('',(1.,0.,0.));
#1837=CARTESIAN_POINT('',(0.,0.,0.));
#1838=CARTESIAN_POINT('',(0.,0.,0.));
#1839=CARTESIAN_POINT('Origin',(153.8,0.,-77.4));
#1840=CARTESIAN_POINT('',(153.8,0.,-68.4));
#1841=CARTESIAN_POINT('',(144.8,0.,-77.4));
#1842=CARTESIAN_POINT('Origin',(153.8,0.,-77.4));
#1843=CARTESIAN_POINT('',(144.8,3.,-77.4));
#1844=CARTESIAN_POINT('',(144.8,0.,-77.4));
#1845=CARTESIAN_POINT('',(153.8,3.,-68.4));
#1846=CARTESIAN_POINT('Origin',(153.8,3.,-77.4));
#1847=CARTESIAN_POINT('',(153.8,0.,-68.4));
#1848=CARTESIAN_POINT('Origin',(144.8,0.,-68.4));
#1849=CARTESIAN_POINT('',(144.8,0.,-87.));
#1850=CARTESIAN_POINT('',(144.8,0.,-90.));
#1851=CARTESIAN_POINT('',(144.8,3.,-87.));
#1852=CARTESIAN_POINT('',(144.8,0.,-87.));
#1853=CARTESIAN_POINT('',(144.8,3.,-90.));
#1854=CARTESIAN_POINT('Origin',(4.2,0.,-12.6));
#1855=CARTESIAN_POINT('',(4.2,0.,-21.6));
#1856=CARTESIAN_POINT('',(13.2,0.,-12.6));
#1857=CARTESIAN_POINT('Origin',(4.2,0.,-12.6));
#1858=CARTESIAN_POINT('',(13.2,3.,-12.6));
#1859=CARTESIAN_POINT('',(13.2,0.,-12.6));
#1860=CARTESIAN_POINT('',(4.2,3.,-21.6));
#1861=CARTESIAN_POINT('Origin',(4.2,3.,-12.6));
#1862=CARTESIAN_POINT('',(4.2,0.,-21.6));
#1863=CARTESIAN_POINT('Origin',(13.2,0.,-21.6));
#1864=CARTESIAN_POINT('',(13.2,0.,-3.));
#1865=CARTESIAN_POINT('',(13.2,0.,0.));
#1866=CARTESIAN_POINT('',(13.2,3.,-3.00000000000001));
#1867=CARTESIAN_POINT('',(13.2,0.,-3.));
#1868=CARTESIAN_POINT('',(13.2,3.,0.));
#1869=CARTESIAN_POINT('Origin',(153.8,0.,-12.6));
#1870=CARTESIAN_POINT('',(144.8,0.,-12.6));
#1871=CARTESIAN_POINT('',(153.8,0.,-21.6));
#1872=CARTESIAN_POINT('Origin',(153.8,0.,-12.6));
#1873=CARTESIAN_POINT('',(153.8,3.,-21.6));
#1874=CARTESIAN_POINT('',(153.8,0.,-21.6));
#1875=CARTESIAN_POINT('',(144.8,3.,-12.6));
#1876=CARTESIAN_POINT('Origin',(153.8,3.,-12.6));
#1877=CARTESIAN_POINT('',(144.8,0.,-12.6));
#1878=CARTESIAN_POINT('Origin',(144.8,0.,-21.6));
#1879=CARTESIAN_POINT('',(155.,0.,-21.6));
#1880=CARTESIAN_POINT('',(144.8,0.,-21.6));
#1881=CARTESIAN_POINT('',(155.,3.,-21.6));
#1882=CARTESIAN_POINT('',(155.,0.,-21.6));
#1883=CARTESIAN_POINT('',(144.8,3.,-21.6));
#1884=CARTESIAN_POINT('Origin',(4.2,0.,-77.4));
#1885=CARTESIAN_POINT('',(13.2,0.,-77.4));
#1886=CARTESIAN_POINT('',(4.2,0.,-68.4));
#1887=CARTESIAN_POINT('Origin',(4.2,0.,-77.4));
#1888=CARTESIAN_POINT('',(4.2,3.,-68.4));
#1889=CARTESIAN_POINT('',(4.2,0.,-68.4));
#1890=CARTESIAN_POINT('',(13.2,3.,-77.4));
#1891=CARTESIAN_POINT('Origin',(4.2,3.,-77.4));
#1892=CARTESIAN_POINT('',(13.2,0.,-77.4));
#1893=CARTESIAN_POINT('Origin',(13.2,0.,-68.4));
#1894=CARTESIAN_POINT('',(3.,0.,-68.4));
#1895=CARTESIAN_POINT('',(13.2,0.,-68.4));
#1896=CARTESIAN_POINT('',(3.00000000000001,3.,-68.4));
#1897=CARTESIAN_POINT('',(3.,0.,-68.4));
#1898=CARTESIAN_POINT('',(13.2,3.,-68.4));
#1899=CARTESIAN_POINT('Origin',(155.,0.,-68.4));
#1900=CARTESIAN_POINT('',(155.,3.,-68.4));
#1901=CARTESIAN_POINT('',(144.8,3.,-68.4));
#1902=CARTESIAN_POINT('',(155.,0.,-68.4));
#1903=CARTESIAN_POINT('',(155.,0.,-68.4));
#1904=CARTESIAN_POINT('',(144.8,0.,-68.4));
#1905=CARTESIAN_POINT('Origin',(155.,0.,-21.6));
#1906=CARTESIAN_POINT('',(155.,0.,-3.));
#1907=CARTESIAN_POINT('',(155.,3.,-3.));
#1908=CARTESIAN_POINT('Origin',(144.8,0.,-3.));
#1909=CARTESIAN_POINT('',(144.8,3.,-3.00000000000001));
#1910=CARTESIAN_POINT('',(144.8,3.,-3.20776305566371E-17));
#1911=CARTESIAN_POINT('',(144.8,0.,-3.));
#1912=CARTESIAN_POINT('',(144.8,0.,-3.));
#1913=CARTESIAN_POINT('',(144.8,0.,-3.20776305566371E-17));
#1914=CARTESIAN_POINT('Origin',(13.2,0.,-3.));
#1915=CARTESIAN_POINT('',(3.,0.,-3.));
#1916=CARTESIAN_POINT('',(3.,3.,-3.));
#1917=CARTESIAN_POINT('Origin',(3.,0.,-21.6));
#1918=CARTESIAN_POINT('',(3.00000000000001,3.,-21.6));
#1919=CARTESIAN_POINT('',(13.2,3.,-21.6));
#1920=CARTESIAN_POINT('',(3.,0.,-21.6));
#1921=CARTESIAN_POINT('',(3.,0.,-21.6));
#1922=CARTESIAN_POINT('',(13.2,0.,-21.6));
#1923=CARTESIAN_POINT('Origin',(3.00000000000001,0.,-68.4));
#1924=CARTESIAN_POINT('',(3.00000000000001,0.,-87.));
#1925=CARTESIAN_POINT('',(3.00000000000001,3.,-87.));
#1926=CARTESIAN_POINT('Origin',(13.2,0.,-87.));
#1927=CARTESIAN_POINT('',(13.2,3.,-87.));
#1928=CARTESIAN_POINT('',(13.2,3.,-90.));
#1929=CARTESIAN_POINT('',(13.2,0.,-87.));
#1930=CARTESIAN_POINT('',(13.2,0.,-87.));
#1931=CARTESIAN_POINT('',(13.2,0.,-90.));
#1932=CARTESIAN_POINT('Origin',(144.8,0.,-87.));
#1933=CARTESIAN_POINT('',(155.,0.,-87.));
#1934=CARTESIAN_POINT('',(155.,3.,-87.));
#1935=CARTESIAN_POINT('Origin',(79.,3.,-45.));
#1936=CARTESIAN_POINT('Origin',(79.,0.,-45.));
#1937=CARTESIAN_POINT('',(0.,0.,0.));
#1938=CARTESIAN_POINT('Origin',(9.,0.,-9.));
#1939=CARTESIAN_POINT('',(9.,27.,0.));
#1940=CARTESIAN_POINT('',(3.69778549322349E-30,27.,-9.));
#1941=CARTESIAN_POINT('Origin',(9.,27.,-9.));
#1942=CARTESIAN_POINT('',(3.69778549322349E-30,0.,-9.));
#1943=CARTESIAN_POINT('',(0.,0.,-9.));
#1944=CARTESIAN_POINT('',(9.,0.,0.));
#1945=CARTESIAN_POINT('Origin',(9.,0.,-9.));
#1946=CARTESIAN_POINT('',(9.,0.,0.));
#1947=CARTESIAN_POINT('Origin',(0.,0.,0.));
#1948=CARTESIAN_POINT('',(149.,0.,0.));
#1949=CARTESIAN_POINT('',(0.,0.,0.));
#1950=CARTESIAN_POINT('',(149.,27.,0.));
#1951=CARTESIAN_POINT('',(149.,0.,0.));
#1952=CARTESIAN_POINT('',(0.,27.,0.));
#1953=CARTESIAN_POINT('Origin',(79.,0.,-45.));
#1954=CARTESIAN_POINT('',(4.1086505480261E-31,0.,-81.));
#1955=CARTESIAN_POINT('',(9.86076131526265E-31,0.,-68.4));
#1956=CARTESIAN_POINT('',(9.,0.,-90.));
#1957=CARTESIAN_POINT('Origin',(9.,0.,-81.));
#1958=CARTESIAN_POINT('',(149.,0.,-90.));
#1959=CARTESIAN_POINT('',(158.,0.,-90.));
#1960=CARTESIAN_POINT('',(158.,0.,-81.));
#1961=CARTESIAN_POINT('Origin',(149.,0.,-81.));
#1962=CARTESIAN_POINT('',(158.,0.,-9.));
#1963=CARTESIAN_POINT('',(158.,0.,-21.6));
#1964=CARTESIAN_POINT('Origin',(149.,0.,-9.));
#1965=CARTESIAN_POINT('',(13.2,0.,-12.6));
#1966=CARTESIAN_POINT('',(4.2,0.,-21.6));
#1967=CARTESIAN_POINT('Origin',(4.2,0.,-12.6));
#1968=CARTESIAN_POINT('',(13.2,0.,-3.));
#1969=CARTESIAN_POINT('',(13.2,0.,0.));
#1970=CARTESIAN_POINT('',(144.8,0.,-3.));
#1971=CARTESIAN_POINT('',(3.,0.,-3.));
#1972=CARTESIAN_POINT('',(144.8,0.,-12.6));
#1973=CARTESIAN_POINT('',(144.8,0.,-3.20776305566371E-17));
#1974=CARTESIAN_POINT('',(153.8,0.,-21.6));
#1975=CARTESIAN_POINT('Origin',(153.8,0.,-12.6));
#1976=CARTESIAN_POINT('',(155.,0.,-21.6));
#1977=CARTESIAN_POINT('',(144.8,0.,-21.6));
#1978=CARTESIAN_POINT('',(155.,0.,-68.4));
#1979=CARTESIAN_POINT('',(155.,0.,-3.));
#1980=CARTESIAN_POINT('',(153.8,0.,-68.4));
#1981=CARTESIAN_POINT('',(144.8,0.,-68.4));
#1982=CARTESIAN_POINT('',(144.8,0.,-77.4));
#1983=CARTESIAN_POINT('Origin',(153.8,0.,-77.4));
#1984=CARTESIAN_POINT('',(144.8,0.,-87.));
#1985=CARTESIAN_POINT('',(144.8,0.,-90.));
#1986=CARTESIAN_POINT('',(13.2,0.,-87.));
#1987=CARTESIAN_POINT('',(155.,0.,-87.));
#1988=CARTESIAN_POINT('',(13.2,0.,-77.4));
#1989=CARTESIAN_POINT('',(13.2,0.,-90.));
#1990=CARTESIAN_POINT('',(4.2,0.,-68.4));
#1991=CARTESIAN_POINT('Origin',(4.2,0.,-77.4));
#1992=CARTESIAN_POINT('',(3.,0.,-68.4));
#1993=CARTESIAN_POINT('',(13.2,0.,-68.4));
#1994=CARTESIAN_POINT('',(3.,0.,-21.6));
#1995=CARTESIAN_POINT('',(3.00000000000001,0.,-87.));
#1996=CARTESIAN_POINT('',(13.2,0.,-21.6));
#1997=CARTESIAN_POINT('Origin',(149.,0.,-9.));
#1998=CARTESIAN_POINT('',(158.,27.,-9.));
#1999=CARTESIAN_POINT('Origin',(149.,27.,-9.));
#2000=CARTESIAN_POINT('',(158.,0.,-9.));
#2001=CARTESIAN_POINT('Origin',(158.,0.,0.));
#2002=CARTESIAN_POINT('',(158.,27.,-81.));
#2003=CARTESIAN_POINT('',(158.,0.,-81.));
#2004=CARTESIAN_POINT('',(158.,27.,-21.6));
#2005=CARTESIAN_POINT('Origin',(4.2,0.,-12.6));
#2006=CARTESIAN_POINT('',(4.2,27.,-21.6));
#2007=CARTESIAN_POINT('',(13.2,27.,-12.6));
#2008=CARTESIAN_POINT('Origin',(4.2,27.,-12.6));
#2009=CARTESIAN_POINT('',(13.2,0.,-12.6));
#2010=CARTESIAN_POINT('',(4.2,0.,-21.6));
#2011=CARTESIAN_POINT('Origin',(13.2,0.,-21.6));
#2012=CARTESIAN_POINT('',(3.,27.,-21.6));
#2013=CARTESIAN_POINT('',(3.,0.,-21.6));
#2014=CARTESIAN_POINT('',(13.2,27.,-21.6));
#2015=CARTESIAN_POINT('Origin',(153.8,0.,-12.6));
#2016=CARTESIAN_POINT('',(144.8,27.,-12.6));
#2017=CARTESIAN_POINT('',(153.8,27.,-21.6));
#2018=CARTESIAN_POINT('Origin',(153.8,27.,-12.6));
#2019=CARTESIAN_POINT('',(153.8,0.,-21.6));
#2020=CARTESIAN_POINT('',(144.8,0.,-12.6));
#2021=CARTESIAN_POINT('Origin',(144.8,0.,-21.6));
#2022=CARTESIAN_POINT('',(144.8,27.,-3.00000000000001));
#2023=CARTESIAN_POINT('',(144.8,0.,-3.));
#2024=CARTESIAN_POINT('',(144.8,27.,-3.20776305566371E-17));
#2025=CARTESIAN_POINT('Origin',(9.,0.,-81.));
#2026=CARTESIAN_POINT('',(4.1086505480261E-31,27.,-81.));
#2027=CARTESIAN_POINT('',(9.,27.,-90.));
#2028=CARTESIAN_POINT('Origin',(9.,27.,-81.));
#2029=CARTESIAN_POINT('',(9.,0.,-90.));
#2030=CARTESIAN_POINT('',(0.,0.,-81.));
#2031=CARTESIAN_POINT('Origin',(158.,0.,-90.));
#2032=CARTESIAN_POINT('',(149.,27.,-90.));
#2033=CARTESIAN_POINT('',(158.,27.,-90.));
#2034=CARTESIAN_POINT('',(149.,0.,-90.));
#2035=CARTESIAN_POINT('Origin',(149.,0.,-81.));
#2036=CARTESIAN_POINT('Origin',(149.,27.,-81.));
#2037=CARTESIAN_POINT('Origin',(153.8,0.,-77.4));
#2038=CARTESIAN_POINT('',(153.8,27.,-68.4));
#2039=CARTESIAN_POINT('',(144.8,27.,-77.4));
#2040=CARTESIAN_POINT('Origin',(153.8,27.,-77.4));
#2041=CARTESIAN_POINT('',(144.8,0.,-77.4));
#2042=CARTESIAN_POINT('',(153.8,0.,-68.4));
#2043=CARTESIAN_POINT('Origin',(144.8,0.,-68.4));
#2044=CARTESIAN_POINT('',(155.,27.,-68.4));
#2045=CARTESIAN_POINT('',(155.,0.,-68.4));
#2046=CARTESIAN_POINT('',(144.8,27.,-68.4));
#2047=CARTESIAN_POINT('Origin',(4.2,0.,-77.4));
#2048=CARTESIAN_POINT('',(13.2,27.,-77.4));
#2049=CARTESIAN_POINT('',(4.2,27.,-68.4));
#2050=CARTESIAN_POINT('Origin',(4.2,27.,-77.4));
#2051=CARTESIAN_POINT('',(4.2,0.,-68.4));
#2052=CARTESIAN_POINT('',(13.2,0.,-77.4));
#2053=CARTESIAN_POINT('Origin',(3.,0.,-68.4));
#2054=CARTESIAN_POINT('',(3.,27.,-68.4));
#2055=CARTESIAN_POINT('',(13.2,27.,-68.4));
#2056=CARTESIAN_POINT('',(3.,0.,-68.4));
#2057=CARTESIAN_POINT('Origin',(13.2,0.,-68.4));
#2058=CARTESIAN_POINT('',(13.2,27.,-87.));
#2059=CARTESIAN_POINT('',(13.2,0.,-87.));
#2060=CARTESIAN_POINT('',(13.2,27.,-90.));
#2061=CARTESIAN_POINT('Origin',(3.,0.,-21.6));
#2062=CARTESIAN_POINT('',(3.00000000000001,27.,-87.));
#2063=CARTESIAN_POINT('Origin',(13.2,0.,-3.));
#2064=CARTESIAN_POINT('',(13.2,27.,-3.00000000000001));
#2065=CARTESIAN_POINT('',(13.2,27.,0.));
#2066=CARTESIAN_POINT('',(13.2,0.,-3.));
#2067=CARTESIAN_POINT('Origin',(144.8,0.,-3.));
#2068=CARTESIAN_POINT('',(3.,27.,-3.));
#2069=CARTESIAN_POINT('Origin',(155.,0.,-21.6));
#2070=CARTESIAN_POINT('',(155.,27.,-21.6));
#2071=CARTESIAN_POINT('',(144.8,27.,-21.6));
#2072=CARTESIAN_POINT('',(155.,0.,-21.6));
#2073=CARTESIAN_POINT('Origin',(155.,0.,-68.4));
#2074=CARTESIAN_POINT('',(155.,27.,-3.));
#2075=CARTESIAN_POINT('Origin',(144.8,0.,-87.));
#2076=CARTESIAN_POINT('',(144.8,27.,-87.));
#2077=CARTESIAN_POINT('',(144.8,27.,-90.));
#2078=CARTESIAN_POINT('',(144.8,0.,-87.));
#2079=CARTESIAN_POINT('Origin',(13.2,0.,-87.));
#2080=CARTESIAN_POINT('',(155.,27.,-87.));
#2081=CARTESIAN_POINT('Origin',(0.,0.,-90.));
#2082=CARTESIAN_POINT('',(9.86076131526265E-31,27.,-68.4));
#2083=CARTESIAN_POINT('Origin',(79.,27.,-45.));
#2084=CARTESIAN_POINT('Origin',(146.5,0.,-60.0000008940697));
#2085=CARTESIAN_POINT('',(145.,5.,-60.0000008940697));
#2086=CARTESIAN_POINT('Origin',(146.5,5.,-60.0000008940697));
#2087=CARTESIAN_POINT('',(145.,0.,-60.0000008940697));
#2088=CARTESIAN_POINT('',(145.,0.,-60.0000008940697));
#2089=CARTESIAN_POINT('Origin',(146.5,0.,-60.0000008940697));
#2090=CARTESIAN_POINT('Origin',(146.5,0.,-60.0000008940697));
#2091=CARTESIAN_POINT('',(143.999999985099,5.,-60.0000008940697));
#2092=CARTESIAN_POINT('Origin',(146.5,5.,-60.0000008940697));
#2093=CARTESIAN_POINT('',(143.999999985099,0.,-60.0000008940697));
#2094=CARTESIAN_POINT('',(143.999999985099,0.,-60.0000008940697));
#2095=CARTESIAN_POINT('Origin',(146.5,0.,-60.0000008940697));
#2096=CARTESIAN_POINT('Origin',(146.5,5.,-60.0000008940697));
#2097=CARTESIAN_POINT('Origin',(146.5,0.,-60.0000008940697));
#2098=CARTESIAN_POINT('Origin',(11.5,0.,-30.0000008940697));
#2099=CARTESIAN_POINT('',(10.,5.,-30.0000008940697));
#2100=CARTESIAN_POINT('Origin',(11.5,5.,-30.0000008940697));
#2101=CARTESIAN_POINT('',(10.,0.,-30.0000008940697));
#2102=CARTESIAN_POINT('',(10.,0.,-30.0000008940697));
#2103=CARTESIAN_POINT('Origin',(11.5,0.,-30.0000008940697));
#2104=CARTESIAN_POINT('Origin',(11.5,0.,-30.0000008940697));
#2105=CARTESIAN_POINT('',(9.,5.,-30.0000008940697));
#2106=CARTESIAN_POINT('Origin',(11.5,5.,-30.0000008940697));
#2107=CARTESIAN_POINT('',(9.,0.,-30.0000008940697));
#2108=CARTESIAN_POINT('',(9.,0.,-30.0000008940697));
#2109=CARTESIAN_POINT('Origin',(11.5,0.,-30.0000008940697));
#2110=CARTESIAN_POINT('Origin',(11.5,5.,-30.0000008940697));
#2111=CARTESIAN_POINT('Origin',(11.5,0.,-30.0000008940697));
#2112=CARTESIAN_POINT('Origin',(11.5,0.,-60.));
#2113=CARTESIAN_POINT('',(10.,5.,-60.));
#2114=CARTESIAN_POINT('Origin',(11.5,5.,-60.));
#2115=CARTESIAN_POINT('',(10.,0.,-60.));
#2116=CARTESIAN_POINT('',(10.,0.,-60.));
#2117=CARTESIAN_POINT('Origin',(11.5,0.,-60.));
#2118=CARTESIAN_POINT('Origin',(11.5,0.,-60.));
#2119=CARTESIAN_POINT('',(8.99999998509884,5.,-60.));
#2120=CARTESIAN_POINT('Origin',(11.5,5.,-60.));
#2121=CARTESIAN_POINT('',(8.99999998509884,0.,-60.));
#2122=CARTESIAN_POINT('',(8.99999998509884,0.,-60.));
#2123=CARTESIAN_POINT('Origin',(11.5,0.,-60.));
#2124=CARTESIAN_POINT('Origin',(11.5,5.,-60.));
#2125=CARTESIAN_POINT('Origin',(11.5,0.,-60.));
#2126=CARTESIAN_POINT('Origin',(146.5,0.,-30.0000008940697));
#2127=CARTESIAN_POINT('',(145.,5.,-30.0000008940697));
#2128=CARTESIAN_POINT('Origin',(146.5,5.,-30.0000008940697));
#2129=CARTESIAN_POINT('',(145.,0.,-30.0000008940697));
#2130=CARTESIAN_POINT('',(145.,0.,-30.0000008940697));
#2131=CARTESIAN_POINT('Origin',(146.5,0.,-30.0000008940697));
#2132=CARTESIAN_POINT('Origin',(146.5,0.,-30.0000008940697));
#2133=CARTESIAN_POINT('',(143.999999985099,5.,-30.0000008940697));
#2134=CARTESIAN_POINT('Origin',(146.5,5.,-30.0000008940697));
#2135=CARTESIAN_POINT('',(143.999999985099,0.,-30.0000008940697));
#2136=CARTESIAN_POINT('',(143.999999985099,0.,-30.0000008940697));
#2137=CARTESIAN_POINT('Origin',(146.5,0.,-30.0000008940697));
#2138=CARTESIAN_POINT('Origin',(146.5,5.,-30.0000008940697));
#2139=CARTESIAN_POINT('Origin',(146.5,0.,-30.0000008940697));
#2140=CARTESIAN_POINT('Origin',(137.5,0.,-77.5));
#2141=CARTESIAN_POINT('',(136.,5.,-77.5));
#2142=CARTESIAN_POINT('Origin',(137.5,5.,-77.5));
#2143=CARTESIAN_POINT('',(136.,0.,-77.5));
#2144=CARTESIAN_POINT('',(136.,0.,-77.5));
#2145=CARTESIAN_POINT('Origin',(137.5,0.,-77.5));
#2146=CARTESIAN_POINT('Origin',(137.5,0.,-77.5));
#2147=CARTESIAN_POINT('',(134.999999985099,5.,-77.5));
#2148=CARTESIAN_POINT('Origin',(137.5,5.,-77.5));
#2149=CARTESIAN_POINT('',(134.999999985099,0.,-77.5));
#2150=CARTESIAN_POINT('',(134.999999985099,0.,-77.5));
#2151=CARTESIAN_POINT('Origin',(137.5,0.,-77.5));
#2152=CARTESIAN_POINT('Origin',(137.5,5.,-77.5));
#2153=CARTESIAN_POINT('Origin',(137.5,0.,-77.5));
#2154=CARTESIAN_POINT('Origin',(20.5,0.,-12.5));
#2155=CARTESIAN_POINT('',(19.,5.,-12.5));
#2156=CARTESIAN_POINT('Origin',(20.5,5.,-12.5));
#2157=CARTESIAN_POINT('',(19.,0.,-12.5));
#2158=CARTESIAN_POINT('',(19.,0.,-12.5));
#2159=CARTESIAN_POINT('Origin',(20.5,0.,-12.5));
#2160=CARTESIAN_POINT('Origin',(20.5,0.,-12.5));
#2161=CARTESIAN_POINT('',(17.9999999850988,5.,-12.5));
#2162=CARTESIAN_POINT('Origin',(20.5,5.,-12.5));
#2163=CARTESIAN_POINT('',(17.9999999850988,0.,-12.5));
#2164=CARTESIAN_POINT('',(17.9999999850988,0.,-12.5));
#2165=CARTESIAN_POINT('Origin',(20.5,0.,-12.5));
#2166=CARTESIAN_POINT('Origin',(20.5,5.,-12.5));
#2167=CARTESIAN_POINT('Origin',(20.5,0.,-12.5));
#2168=CARTESIAN_POINT('Origin',(20.5,0.,-77.5));
#2169=CARTESIAN_POINT('',(19.,5.,-77.5));
#2170=CARTESIAN_POINT('Origin',(20.5,5.,-77.5));
#2171=CARTESIAN_POINT('',(19.,0.,-77.5));
#2172=CARTESIAN_POINT('',(19.,0.,-77.5));
#2173=CARTESIAN_POINT('Origin',(20.5,0.,-77.5));
#2174=CARTESIAN_POINT('Origin',(20.5,0.,-77.5));
#2175=CARTESIAN_POINT('',(17.9999999850988,5.,-77.5));
#2176=CARTESIAN_POINT('Origin',(20.5,5.,-77.5));
#2177=CARTESIAN_POINT('',(17.9999999850988,0.,-77.5));
#2178=CARTESIAN_POINT('',(17.9999999850988,0.,-77.5));
#2179=CARTESIAN_POINT('Origin',(20.5,0.,-77.5));
#2180=CARTESIAN_POINT('Origin',(20.5,5.,-77.5));
#2181=CARTESIAN_POINT('Origin',(20.5,0.,-77.5));
#2182=CARTESIAN_POINT('Origin',(137.5,0.,-12.5));
#2183=CARTESIAN_POINT('',(136.,5.,-12.5));
#2184=CARTESIAN_POINT('Origin',(137.5,5.,-12.5));
#2185=CARTESIAN_POINT('',(136.,0.,-12.5));
#2186=CARTESIAN_POINT('',(136.,0.,-12.5));
#2187=CARTESIAN_POINT('Origin',(137.5,0.,-12.5));
#2188=CARTESIAN_POINT('Origin',(137.5,0.,-12.5));
#2189=CARTESIAN_POINT('',(134.999999985099,5.,-12.5));
#2190=CARTESIAN_POINT('Origin',(137.5,5.,-12.5));
#2191=CARTESIAN_POINT('',(134.999999985099,0.,-12.5));
#2192=CARTESIAN_POINT('',(134.999999985099,0.,-12.5));
#2193=CARTESIAN_POINT('Origin',(137.5,0.,-12.5));
#2194=CARTESIAN_POINT('Origin',(137.5,5.,-12.5));
#2195=CARTESIAN_POINT('Origin',(137.5,0.,-12.5));
#2196=CARTESIAN_POINT('',(0.,0.,0.));
#2197=CARTESIAN_POINT('',(0.,0.,0.));
#2198=UNCERTAINTY_MEASURE_WITH_UNIT(LENGTH_MEASURE(0.01),#2206,
'DISTANCE_ACCURACY_VALUE',
'Maximum model space distance between geometric entities at asserted c
onnectivities');
#2199=UNCERTAINTY_MEASURE_WITH_UNIT(LENGTH_MEASURE(0.01),#2206,
'DISTANCE_ACCURACY_VALUE',
'Maximum model space distance between geometric entities at asserted c
onnectivities');
#2200=UNCERTAINTY_MEASURE_WITH_UNIT(LENGTH_MEASURE(0.01),#2206,
'DISTANCE_ACCURACY_VALUE',
'Maximum model space distance between geometric entities at asserted c
onnectivities');
#2201=UNCERTAINTY_MEASURE_WITH_UNIT(LENGTH_MEASURE(0.01),#2206,
'DISTANCE_ACCURACY_VALUE',
'Maximum model space distance between geometric entities at asserted c
onnectivities');
#2202=(
GEOMETRIC_REPRESENTATION_CONTEXT(3)
GLOBAL_UNCERTAINTY_ASSIGNED_CONTEXT((#2198))
GLOBAL_UNIT_ASSIGNED_CONTEXT((#2206,#2208,#2209))
REPRESENTATION_CONTEXT('','3D')
);
#2203=(
GEOMETRIC_REPRESENTATION_CONTEXT(3)
GLOBAL_UNCERTAINTY_ASSIGNED_CONTEXT((#2199))
GLOBAL_UNIT_ASSIGNED_CONTEXT((#2206,#2208,#2209))
REPRESENTATION_CONTEXT('','3D')
);
#2204=(
GEOMETRIC_REPRESENTATION_CONTEXT(3)
GLOBAL_UNCERTAINTY_ASSIGNED_CONTEXT((#2200))
GLOBAL_UNIT_ASSIGNED_CONTEXT((#2206,#2208,#2209))
REPRESENTATION_CONTEXT('','3D')
);
#2205=(
GEOMETRIC_REPRESENTATION_CONTEXT(3)
GLOBAL_UNCERTAINTY_ASSIGNED_CONTEXT((#2201))
GLOBAL_UNIT_ASSIGNED_CONTEXT((#2206,#2208,#2209))
REPRESENTATION_CONTEXT('','3D')
);
#2206=(
LENGTH_UNIT()
NAMED_UNIT(*)
SI_UNIT(.MILLI.,.METRE.)
);
#2207=(
LENGTH_UNIT()
NAMED_UNIT(*)
SI_UNIT($,.METRE.)
);
#2208=(
NAMED_UNIT(*)
PLANE_ANGLE_UNIT()
SI_UNIT($,.RADIAN.)
);
#2209=(
NAMED_UNIT(*)
SI_UNIT($,.STERADIAN.)
SOLID_ANGLE_UNIT()
);
#2210=SHAPE_DEFINITION_REPRESENTATION(#2213,#2218);
#2211=SHAPE_DEFINITION_REPRESENTATION(#2214,#2219);
#2212=SHAPE_DEFINITION_REPRESENTATION(#2215,#2220);
#2213=PRODUCT_DEFINITION_SHAPE('',$,#2222);
#2214=PRODUCT_DEFINITION_SHAPE('',$,#2223);
#2215=PRODUCT_DEFINITION_SHAPE('',$,#2224);
#2216=PRODUCT_DEFINITION_SHAPE($,$,#17);
#2217=PRODUCT_DEFINITION_SHAPE($,$,#18);
#2218=SHAPE_REPRESENTATION('',(#1314,#1449,#1450),#2202);
#2219=SHAPE_REPRESENTATION('',(#1315),#2203);
#2220=SHAPE_REPRESENTATION('',(#1342),#2204);
#2221=PRODUCT_DEFINITION_CONTEXT('part definition',#2232,'design');
#2222=PRODUCT_DEFINITION('13.6*9*5.4cm enclosure',
'13.6*9*5.4cm enclosure v7',#2225,#2221);
#2223=PRODUCT_DEFINITION('Component1','Component1',#2226,#2221);
#2224=PRODUCT_DEFINITION('Component2','Component2',#2227,#2221);
#2225=PRODUCT_DEFINITION_FORMATION('',$,#2234);
#2226=PRODUCT_DEFINITION_FORMATION('',$,#2235);
#2227=PRODUCT_DEFINITION_FORMATION('',$,#2236);
#2228=PRODUCT_RELATED_PRODUCT_CATEGORY('13.6*9*5.4cm enclosure v7',
'13.6*9*5.4cm enclosure v7',(#2234));
#2229=PRODUCT_RELATED_PRODUCT_CATEGORY('Component1','Component1',(#2235));
#2230=PRODUCT_RELATED_PRODUCT_CATEGORY('Component2','Component2',(#2236));
#2231=APPLICATION_PROTOCOL_DEFINITION('international standard',
'automotive_design',2009,#2232);
#2232=APPLICATION_CONTEXT(
'Core Data for Automotive Mechanical Design Process');
#2233=PRODUCT_CONTEXT('part definition',#2232,'mechanical');
#2234=PRODUCT('13.6*9*5.4cm enclosure','13.6*9*5.4cm enclosure v7',$,(#2233));
#2235=PRODUCT('Component1','Component1',$,(#2233));
#2236=PRODUCT('Component2','Component2',$,(#2233));
#2237=PRESENTATION_STYLE_ASSIGNMENT((#2238));
#2238=SURFACE_STYLE_USAGE(.BOTH.,#2239);
#2239=SURFACE_SIDE_STYLE('',(#2240));
#2240=SURFACE_STYLE_FILL_AREA(#2241);
#2241=FILL_AREA_STYLE('Steel - Satin',(#2242));
#2242=FILL_AREA_STYLE_COLOUR('Steel - Satin',#2243);
#2243=COLOUR_RGB('Steel - Satin',0.627450980392157,0.627450980392157,0.627450980392157);
ENDSEC;
END-ISO-10303-21;
