#VRML V2.0 utf8
# 3D model generated by easyeda2kicad.py (https://github.com/uPesy/easyeda2kicad.py)

Shape{
    appearance Appearance {
        material  Material 	{
            diffuseColor 1.0 1.0 1.0
            specularColor 0.5019607843137255 0.5019607843137255 0.5019607843137255
            ambientIntensity 1.0
            transparency 0.0
            shininess 0.5
        }
    }
    geometry IndexedFaceSet {
        ccw TRUE
        solid FALSE
        coord DEF co Coordinate {
            point [
                -0.4626 0.5807 0.0, -0.5807 0.4626 0.0, -0.4626 0.5807 0.0394, -0.5807 0.4626 0.0394, -0.2303 0.5807 0.0, -0.2303 0.5807 0.0394, -0.2303 0.3667 0.0, -0.2303 0.3667 0.0394, -0.2699 0.3386 0.0, -0.2699 0.3386 0.0394, -0.3062 0.3063 0.0, -0.3062 0.3063 0.0394, -0.3385 0.2701 0.0, -0.3385 0.2701 0.0394, -0.3667 0.2305 0.0, -0.3667 0.2305 0.0394, -0.3902 0.1879 0.0, -0.3902 0.1879 0.0394, -0.4088 0.1431 0.0, -0.4088 0.1431 0.0394, -0.4222 0.0964 0.0, -0.4222 0.0964 0.0394, -0.4303 0.0485 0.0, -0.4303 0.0485 0.0394, -0.4331 0.0 0.0, -0.4331 0.0 0.0394, -0.4303 -0.0485 0.0, -0.4303 -0.0485 0.0394, -0.4222 -0.0964 0.0, -0.4222 -0.0964 0.0394, -0.4088 -0.1431 0.0, -0.4088 -0.1431 0.0394, -0.3902 -0.1879 0.0, -0.3902 -0.1879 0.0394, -0.3667 -0.2305 0.0, -0.3667 -0.2305 0.0394, -0.3385 -0.2701 0.0, -0.3385 -0.2701 0.0394, -0.3062 -0.3063 0.0, -0.3062 -0.3063 0.0394, -0.2699 -0.3386 0.0, -0.2699 -0.3386 0.0394, -0.2303 -0.3667 0.0, -0.2303 -0.3667 0.0394, -0.2303 -0.5807 0.0, -0.2303 -0.5807 0.0394, -0.4626 -0.5807 0.0, -0.4626 -0.5807 0.0394, -0.5807 -0.4626 0.0, -0.5807 -0.4626 0.0394, 0.5807 0.4626 0.0, 0.4626 0.5807 0.0, 0.5807 0.4626 0.0394, 0.4626 0.5807 0.0394, 0.2303 0.5807 0.0, 0.2303 0.5807 0.0394, 0.2303 0.3667 0.0, 0.2303 0.3667 0.0394, 0.2303 -0.3667 0.0, 0.2303 -0.3667 0.0394, 0.2699 -0.3386 0.0, 0.2699 -0.3386 0.0394, 0.3062 -0.3063 0.0, 0.3062 -0.3063 0.0394, 0.3385 -0.2701 0.0, 0.3385 -0.2701 0.0394, 0.3667 -0.2305 0.0, 0.3667 -0.2305 0.0394, 0.3902 -0.1879 0.0, 0.3902 -0.1879 0.0394, 0.4088 -0.1431 0.0, 0.4088 -0.1431 0.0394, 0.4222 -0.0964 0.0, 0.4222 -0.0964 0.0394, 0.4303 -0.0485 0.0, 0.4303 -0.0485 0.0394, 0.4331 -0.0 0.0, 0.4331 -0.0 0.0394, 0.4303 0.0485 0.0, 0.4303 0.0485 0.0394, 0.4222 0.0964 0.0, 0.4222 0.0964 0.0394, 0.4088 0.1431 0.0, 0.4088 0.1431 0.0394, 0.3902 0.1879 0.0, 0.3902 0.1879 0.0394, 0.3667 0.2305 0.0, 0.3667 0.2305 0.0394, 0.3385 0.2701 0.0, 0.3385 0.2701 0.0394, 0.3062 0.3063 0.0, 0.3062 0.3063 0.0394, 0.2699 0.3386 0.0, 0.2699 0.3386 0.0394, 0.2303 -0.5807 0.0, 0.2303 -0.5807 0.0394, 0.4626 -0.5807 0.0, 0.4626 -0.5807 0.0394, 0.5807 -0.4626 0.0, 0.5807 -0.4626 0.0394
            ]
        }
        coordIndex [
            0,1,2,-1,2,1,3,-1,4,0,5,-1,5,0,2,-1,6,4,7,-1,7,4,5,-1,6,7,8,-1,8,7,9,-1,8,9,10,-1,10,9,11,-1,10,11,12,-1,12,11,13,-1,12,13,14,-1,14,13,15,-1,14,15,16,-1,16,15,17,-1,16,17,18,-1,18,17,19,-1,18,19,20,-1,20,19,21,-1,20,21,22,-1,22,21,23,-1,22,23,24,-1,24,23,25,-1,24,25,26,-1,26,25,27,-1,26,27,28,-1,28,27,29,-1,28,29,30,-1,30,29,31,-1,30,31,32,-1,32,31,33,-1,32,33,34,-1,34,33,35,-1,34,35,36,-1,36,35,37,-1,36,37,38,-1,38,37,39,-1,38,39,40,-1,40,39,41,-1,40,41,42,-1,42,41,43,-1,44,42,45,-1,45,42,43,-1,46,44,47,-1,47,44,45,-1,48,46,49,-1,49,46,47,-1,1,48,3,-1,3,48,49,-1,0,4,6,-1,18,1,16,-1,16,1,14,-1,26,48,24,-1,24,48,1,-1,18,20,1,-1,1,20,22,-1,1,22,24,-1,42,44,40,-1,40,44,46,-1,6,8,0,-1,0,8,10,-1,0,10,1,-1,1,10,12,-1,1,12,14,-1,26,28,48,-1,48,28,30,-1,48,30,32,-1,32,34,48,-1,48,34,36,-1,48,36,46,-1,46,36,38,-1,46,38,40,-1,21,19,3,-1,3,19,17,-1,47,45,43,-1,35,33,49,-1,49,27,25,-1,7,5,9,-1,9,5,2,-1,49,25,3,-1,3,25,23,-1,3,23,21,-1,33,31,49,-1,49,31,29,-1,49,29,27,-1,17,15,3,-1,3,15,13,-1,3,13,2,-1,2,13,11,-1,2,11,9,-1,43,41,47,-1,47,41,39,-1,47,39,49,-1,49,39,37,-1,49,37,35,-1,50,51,52,-1,52,51,53,-1,51,54,53,-1,53,54,55,-1,54,56,55,-1,55,56,57,-1,58,59,60,-1,60,59,61,-1,60,61,62,-1,62,61,63,-1,62,63,64,-1,64,63,65,-1,64,65,66,-1,66,65,67,-1,66,67,68,-1,68,67,69,-1,68,69,70,-1,70,69,71,-1,70,71,72,-1,72,71,73,-1,72,73,74,-1,74,73,75,-1,74,75,76,-1,76,75,77,-1,76,77,78,-1,78,77,79,-1,78,79,80,-1,80,79,81,-1,80,81,82,-1,82,81,83,-1,82,83,84,-1,84,83,85,-1,84,85,86,-1,86,85,87,-1,86,87,88,-1,88,87,89,-1,88,89,90,-1,90,89,91,-1,90,91,92,-1,92,91,93,-1,92,93,56,-1,56,93,57,-1,58,94,59,-1,59,94,95,-1,94,96,95,-1,95,96,97,-1,96,98,97,-1,97,98,99,-1,98,50,99,-1,99,50,52,-1,96,94,58,-1,56,54,92,-1,92,54,51,-1,66,68,98,-1,98,68,70,-1,98,70,72,-1,78,50,76,-1,76,50,98,-1,76,98,74,-1,74,98,72,-1,78,80,50,-1,50,80,82,-1,50,82,84,-1,58,60,96,-1,96,60,62,-1,96,62,98,-1,98,62,64,-1,98,64,66,-1,84,86,50,-1,50,86,88,-1,50,88,51,-1,51,88,90,-1,51,90,92,-1,53,55,57,-1,73,71,99,-1,99,71,69,-1,59,95,61,-1,61,95,97,-1,87,85,52,-1,52,85,83,-1,52,83,81,-1,81,79,52,-1,52,79,77,-1,52,77,99,-1,99,77,75,-1,99,75,73,-1,69,67,99,-1,99,67,65,-1,99,65,97,-1,97,65,63,-1,97,63,61,-1,57,93,53,-1,53,93,91,-1,53,91,52,-1,52,91,89,-1,52,89,87,-1,
        ]
    }
}
Shape{
    appearance Appearance {
        material  Material 	{
            diffuseColor 0.25098039215686274 0.25098039215686274 0.25098039215686274
            specularColor 0.12549019607843137 0.12549019607843137 0.12549019607843137
            ambientIntensity 0.251
            transparency 0.0
            shininess 0.5
        }
    }
    geometry IndexedFaceSet {
        ccw TRUE
        solid FALSE
        coord DEF co Coordinate {
            point [
                0.0558 0.0379 0.0394, 0.0635 0.0371 0.0394, 0.0388 -0.0212 0.0394, 0.143 -0.0331 0.0394, 0.0636 -0.0336 0.0394, 0.1026 -0.0331 0.0394, 0.0687 -0.0331 0.0394, 0.0763 -0.0304 0.0394, 0.0918 0.0249 0.0394, 0.0871 0.0322 0.0394, 0.1324 0.0456 0.0394, 0.0462 0.0367 0.0394, 0.0373 -0.0204 0.0394, 0.0373 0.0329 0.0394, 0.0297 0.3918 0.0394, 0.0373 0.0435 0.0394, 0.0694 0.0349 0.0394, 0.0749 0.0313 0.0394, 0.0796 0.0261 0.0394, 0.0854 0.0054 0.0394, 0.0846 -0.0031 0.0394, 0.0824 -0.0099 0.0394, 0.0649 -0.0246 0.0394, 0.0576 -0.0254 0.0394, 0.0706 -0.0225 0.0394, 0.0755 -0.0192 0.0394, 0.0792 -0.0153 0.0394, 0.0471 -0.0243 0.0394, 0.0829 0.02 0.0394, 0.085 0.0115 0.0394, 0.3677 0.1406 0.0394, 0.3843 0.0856 0.0394, 0.3927 0.0287 0.0394, 0.0715 0.3872 0.0394, 0.1271 0.3726 0.0394, 0.18 0.3501 0.0394, 0.2291 0.3202 0.0394, 0.2733 0.2834 0.0394, 0.143 0.0456 0.0394, 0.3116 0.2406 0.0394, 0.3433 0.1927 0.0394, 0.0827 -0.0264 0.0394, 0.0886 -0.0202 0.0394, 0.1026 -0.0245 0.0394, 0.0928 -0.0127 0.0394, 0.1324 -0.0245 0.0394, 0.08 0.0391 0.0394, 0.0726 0.0434 0.0394, 0.0638 0.0459 0.0394, 0.0952 -0.0043 0.0394, 0.0959 0.0048 0.0394, 0.0948 0.016 0.0394, 0.0559 0.0466 0.0394, 0.0464 0.0459 0.0394, 0.0373 -0.029 0.0394, 0.0457 -0.0325 0.0394, 0.0297 -0.0336 0.0394, 0.0537 -0.0336 0.0394, 0.0297 -0.3918 0.0394, 0.0569 -0.034 0.0394, 0.0715 -0.3872 0.0394, 0.3927 -0.0287 0.0394, 0.3919 -0.0336 0.0394, 0.3843 -0.0856 0.0394, 0.3677 -0.1406 0.0394, 0.3433 -0.1927 0.0394, 0.3116 -0.2406 0.0394, 0.2733 -0.2834 0.0394, 0.2291 -0.3202 0.0394, 0.18 -0.3501 0.0394, 0.059 -0.0341 0.0394, 0.1271 -0.3726 0.0394, -0.1048 -0.0331 0.0394, -0.0951 -0.0115 0.0394, -0.0906 -0.0186 0.0394, -0.0203 -0.0331 0.0394, 0.022 -0.0331 0.0394, 0.022 0.0456 0.0394, -0.154 0.3623 0.0394, -0.0996 0.3809 0.0394, -0.0184 0.0456 0.0394, -0.0184 0.037 0.0394, 0.0114 0.037 0.0394, 0.0114 0.0111 0.0394, -0.0841 -0.0248 0.0394, -0.0759 -0.0296 0.0394, -0.0668 -0.0323 0.0394, -0.0431 0.3913 0.0394, 0.0144 0.3934 0.0394, -0.2518 0.3026 0.0394, -0.2051 0.3361 0.0394, -0.1451 0.0456 0.0394, -0.2932 0.2627 0.0394, -0.1345 0.0456 0.0394, -0.0356 0.0456 0.0394, -0.0164 0.0111 0.0394, -0.0164 0.0024 0.0394, 0.0114 0.0024 0.0394, 0.0114 -0.0245 0.0394, -0.0203 -0.0245 0.0394, -0.0356 -0.0331 0.0394, -0.057 -0.0331 0.0394, -0.1758 -0.0331 0.0394, -0.1643 -0.0331 0.0394, -0.3912 -0.0336 0.0394, -0.3937 -0.0 0.0394, -0.3895 0.0573 0.0394, -0.377 0.1134 0.0394, -0.0579 0.0456 0.0394, -0.0692 0.0444 0.0394, -0.0927 0.0292 0.0394, -0.0963 0.0224 0.0394, -0.3565 0.1671 0.0394, -0.3283 0.2172 0.0394, -0.1563 -0.011 0.0394, -0.1238 -0.011 0.0394, -0.1163 -0.0331 0.0394, -0.0984 0.0147 0.0394, -0.099 0.0072 0.0394, -0.0979 -0.0033 0.0394, -0.0784 0.0412 0.0394, -0.087 0.0354 0.0394, -0.0871 0.0354 0.0394, 0.0144 -0.3934 0.0394, -0.0431 -0.3913 0.0394, -0.0996 -0.3809 0.0394, -0.154 -0.3623 0.0394, -0.2051 -0.3361 0.0394, -0.2518 -0.3026 0.0394, -0.2932 -0.2627 0.0394, -0.3283 -0.2172 0.0394, -0.3565 -0.1671 0.0394, -0.377 -0.1134 0.0394, -0.3895 -0.0573 0.0394, 0.43 0.502 0.5512, 0.4626 0.5807 0.5512, -0.43 0.502 0.5512, -0.4626 0.5807 0.5512, -0.502 0.43 0.5512, -0.5807 0.4626 0.5512, -0.502 -0.43 0.5512, -0.5807 -0.4626 0.5512, -0.43 -0.502 0.5512, -0.4626 -0.5807 0.5512, 0.43 -0.502 0.5512, 0.4626 -0.5807 0.5512, 0.502 -0.43 0.5512, 0.5807 -0.4626 0.5512, 0.502 0.43 0.5512, 0.5807 0.4626 0.5512, -0.4626 0.5807 0.0394, 0.4626 0.5807 0.0394, -0.5807 0.4626 0.0394, -0.5807 -0.4626 0.0394, -0.4626 -0.5807 0.0394, 0.4626 -0.5807 0.0394, 0.5807 -0.4626 0.0394, 0.5807 0.4626 0.0394, 0.1048 -0.4202 0.0394, 0.1622 -0.4015 0.0394, -0.0151 0.4328 0.0394, -0.4163 0.1194 0.0394, -0.3956 0.1761 0.0394, -0.3673 0.2295 0.0394, -0.4163 -0.1194 0.0394, -0.3956 -0.1761 0.0394, -0.4289 0.0603 0.0394, -0.4331 0.0 0.0394, -0.4289 -0.0603 0.0394, -0.2422 -0.359 0.0394, -0.1898 -0.3892 0.0394, -0.1338 -0.4119 0.0394, -0.3673 -0.2295 0.0394, -0.3318 -0.2784 0.0394, -0.2898 -0.3218 0.0394, 0.432 0.0302 0.0394, 0.432 -0.0302 0.0394, 0.4236 -0.09 0.0394, -0.0752 0.4265 0.0394, -0.1338 0.4119 0.0394, -0.1898 0.3892 0.0394, -0.2422 0.359 0.0394, -0.2898 0.3218 0.0394, -0.3318 0.2784 0.0394, 0.2165 -0.3751 0.0394, 0.2666 -0.3413 0.0394, 0.3115 -0.3008 0.0394, 0.3504 -0.2546 0.0394, 0.4236 0.09 0.0394, 0.407 0.1481 0.0394, 0.3824 0.2033 0.0394, -0.0752 -0.4265 0.0394, -0.0151 -0.4328 0.0394, 0.0453 -0.4307 0.0394, 0.3824 -0.2033 0.0394, 0.407 -0.1481 0.0394, 0.2165 0.3751 0.0394, 0.1622 0.4015 0.0394, 0.3504 0.2546 0.0394, 0.3115 0.3008 0.0394, 0.2666 0.3413 0.0394, 0.1048 0.4202 0.0394, 0.0453 0.4307 0.0394
            ]
        }
        coordIndex [
            0,1,2,-1,3,4,5,-1,5,4,6,-1,5,6,7,-1,8,9,10,-1,0,2,11,-1,11,2,12,-1,11,12,13,-1,13,12,14,-1,13,14,15,-1,1,16,2,-1,2,16,17,-1,2,17,18,-1,19,20,2,-1,2,20,21,-1,22,23,24,-1,24,23,25,-1,21,26,2,-1,2,26,25,-1,2,25,27,-1,27,25,23,-1,10,9,14,-1,18,28,2,-1,2,28,29,-1,2,29,19,-1,30,31,3,-1,3,31,32,-1,14,33,10,-1,10,33,34,-1,10,34,35,-1,35,36,10,-1,10,36,37,-1,10,37,38,-1,38,37,39,-1,38,39,3,-1,3,39,40,-1,3,40,30,-1,7,41,5,-1,5,41,42,-1,5,42,43,-1,43,42,44,-1,43,44,45,-1,9,46,14,-1,14,46,47,-1,14,47,48,-1,44,49,45,-1,45,49,50,-1,45,50,10,-1,10,50,51,-1,10,51,8,-1,48,52,14,-1,14,52,53,-1,14,53,15,-1,54,55,56,-1,56,55,57,-1,56,57,58,-1,58,57,59,-1,58,59,60,-1,32,61,3,-1,3,61,62,-1,3,62,4,-1,4,62,63,-1,63,64,4,-1,4,64,65,-1,4,65,66,-1,66,67,4,-1,4,67,68,-1,4,68,69,-1,59,70,60,-1,60,70,4,-1,60,4,71,-1,71,4,69,-1,72,73,74,-1,75,76,56,-1,56,76,77,-1,78,79,80,-1,81,82,83,-1,74,84,72,-1,72,84,85,-1,72,85,86,-1,79,87,80,-1,80,87,88,-1,80,88,77,-1,77,88,14,-1,77,14,56,-1,56,14,12,-1,56,12,54,-1,81,89,80,-1,80,89,90,-1,80,90,78,-1,91,92,93,-1,93,92,89,-1,94,95,96,-1,97,98,96,-1,96,98,99,-1,96,99,94,-1,94,99,75,-1,94,75,100,-1,100,75,56,-1,100,56,101,-1,102,103,56,-1,56,104,102,-1,102,104,105,-1,102,105,91,-1,91,105,106,-1,91,106,107,-1,83,95,81,-1,81,95,94,-1,81,94,89,-1,89,94,108,-1,89,108,109,-1,93,110,111,-1,107,112,91,-1,91,112,113,-1,91,113,92,-1,114,115,103,-1,103,115,116,-1,103,116,56,-1,56,116,72,-1,56,72,101,-1,101,72,86,-1,111,117,93,-1,93,117,118,-1,93,118,72,-1,72,118,119,-1,72,119,73,-1,109,120,89,-1,89,120,121,-1,89,121,93,-1,93,121,122,-1,93,122,110,-1,58,123,56,-1,56,123,124,-1,56,124,125,-1,125,126,56,-1,56,126,127,-1,56,127,128,-1,128,129,56,-1,56,129,130,-1,56,130,131,-1,131,132,56,-1,56,132,133,-1,56,133,104,-1,134,135,136,-1,136,135,137,-1,136,137,138,-1,138,137,139,-1,138,139,140,-1,140,139,141,-1,140,141,142,-1,142,141,143,-1,142,143,144,-1,144,143,145,-1,144,145,146,-1,146,145,147,-1,146,147,148,-1,148,147,149,-1,148,149,134,-1,134,149,135,-1,137,135,150,-1,150,135,151,-1,139,137,152,-1,152,137,150,-1,141,139,153,-1,153,139,152,-1,143,141,154,-1,154,141,153,-1,145,143,155,-1,155,143,154,-1,147,145,156,-1,156,145,155,-1,149,147,157,-1,157,147,156,-1,135,149,151,-1,151,149,157,-1,158,159,155,-1,160,150,151,-1,161,152,162,-1,162,152,163,-1,153,164,165,-1,161,166,152,-1,152,166,167,-1,152,167,153,-1,153,167,168,-1,153,168,164,-1,169,170,154,-1,154,170,171,-1,165,172,153,-1,153,172,173,-1,153,173,154,-1,154,173,174,-1,154,174,169,-1,175,157,176,-1,176,157,156,-1,176,156,177,-1,160,178,150,-1,150,178,179,-1,150,179,180,-1,180,181,150,-1,150,181,182,-1,150,182,152,-1,152,182,183,-1,152,183,163,-1,159,184,155,-1,155,184,185,-1,155,185,156,-1,156,185,186,-1,156,186,187,-1,175,188,157,-1,157,188,189,-1,157,189,190,-1,171,191,154,-1,154,191,192,-1,154,192,155,-1,155,192,193,-1,155,193,158,-1,187,194,156,-1,156,194,195,-1,156,195,177,-1,151,196,197,-1,190,198,157,-1,157,198,199,-1,157,199,151,-1,151,199,200,-1,151,200,196,-1,197,201,151,-1,151,201,202,-1,151,202,160,-1,
        ]
    }
}
Shape{
    appearance Appearance {
        material  Material 	{
            diffuseColor 1.0 1.0 1.0
            specularColor 0.5019607843137255 0.5019607843137255 0.5019607843137255
            ambientIntensity 1.0
            transparency 0.0
            shininess 0.5
        }
    }
    geometry IndexedFaceSet {
        ccw TRUE
        solid FALSE
        coord DEF co Coordinate {
            point [
                0.43 0.502 0.5551, 0.502 0.43 0.5551, 0.43 0.502 0.5512, 0.502 0.43 0.5512, -0.43 0.502 0.5551, -0.43 0.502 0.5512, -0.502 0.43 0.5551, -0.502 0.43 0.5512, -0.502 -0.43 0.5551, -0.502 -0.43 0.5512, -0.43 -0.502 0.5551, -0.43 -0.502 0.5512, 0.43 -0.502 0.5551, 0.43 -0.502 0.5512, 0.502 -0.43 0.5551, 0.502 -0.43 0.5512, -0.4338 -0.0374 0.5551, -0.4422 -0.0265 0.5551, -0.4229 -0.0459 0.5551, -0.3505 -0.0265 0.5551, -0.3452 -0.0137 0.5551, -0.3434 0.0 0.5551, -0.3452 0.0137 0.5551, -0.4422 0.0265 0.5551, -0.4338 0.0374 0.5551, -0.3964 -0.053 0.5551, -0.4101 -0.0512 0.5551, -0.4475 -0.0137 0.5551, -0.4493 0.0 0.5551, -0.4475 0.0137 0.5551, -0.3505 0.0265 0.5551, -0.3589 0.0374 0.5551, -0.4229 0.0459 0.5551, -0.4101 0.0512 0.5551, -0.3589 -0.0374 0.5551, -0.3699 -0.0459 0.5551, -0.3827 -0.0512 0.5551, -0.3964 0.053 0.5551, -0.3827 0.0512 0.5551, -0.3699 0.0459 0.5551
            ]
        }
        coordIndex [
            0,1,2,-1,2,1,3,-1,4,0,5,-1,5,0,2,-1,6,4,7,-1,7,4,5,-1,8,6,9,-1,9,6,7,-1,10,8,11,-1,11,8,9,-1,12,10,13,-1,13,10,11,-1,14,12,15,-1,15,12,13,-1,1,14,3,-1,3,14,15,-1,16,17,8,-1,16,8,18,-1,19,12,20,-1,20,12,14,-1,20,14,21,-1,21,14,1,-1,21,1,22,-1,23,24,6,-1,10,25,8,-1,8,25,26,-1,8,26,18,-1,17,27,8,-1,8,27,28,-1,8,28,6,-1,6,28,29,-1,6,29,23,-1,22,1,30,-1,30,1,0,-1,30,0,31,-1,24,32,6,-1,6,32,33,-1,6,33,4,-1,19,34,12,-1,12,34,35,-1,12,35,10,-1,10,35,36,-1,10,36,25,-1,33,37,4,-1,4,37,38,-1,4,38,0,-1,0,38,39,-1,0,39,31,-1,
        ]
    }
}
Shape{
    appearance Appearance {
        material  Material 	{
            diffuseColor 0.5019607843137255 0.5019607843137255 0.5019607843137255
            specularColor 0.25098039215686274 0.25098039215686274 0.25098039215686274
            ambientIntensity 0.502
            transparency 0.0
            shininess 0.5
        }
    }
    geometry IndexedFaceSet {
        ccw TRUE
        solid FALSE
        coord DEF co Coordinate {
            point [
                -0.3434 -0.0 0.5547, -0.3434 0.0 0.5551, -0.3452 0.0137 0.5547, -0.3452 0.0137 0.5551, -0.3505 0.0265 0.5547, -0.3505 0.0265 0.5551, -0.3589 0.0374 0.5547, -0.3589 0.0374 0.5551, -0.3699 0.0459 0.5547, -0.3699 0.0459 0.5551, -0.3827 0.0512 0.5547, -0.3827 0.0512 0.5551, -0.3964 0.053 0.5547, -0.3964 0.053 0.5551, -0.4101 0.0512 0.5547, -0.4101 0.0512 0.5551, -0.4229 0.0459 0.5547, -0.4229 0.0459 0.5551, -0.4338 0.0374 0.5547, -0.4338 0.0374 0.5551, -0.4422 0.0265 0.5547, -0.4422 0.0265 0.5551, -0.4475 0.0137 0.5547, -0.4475 0.0137 0.5551, -0.4493 0.0 0.5547, -0.4493 0.0 0.5551, -0.4475 -0.0137 0.5547, -0.4475 -0.0137 0.5551, -0.4422 -0.0265 0.5547, -0.4422 -0.0265 0.5551, -0.4338 -0.0374 0.5547, -0.4338 -0.0374 0.5551, -0.4229 -0.0459 0.5547, -0.4229 -0.0459 0.5551, -0.4101 -0.0512 0.5547, -0.4101 -0.0512 0.5551, -0.3964 -0.053 0.5547, -0.3964 -0.053 0.5551, -0.3827 -0.0512 0.5547, -0.3827 -0.0512 0.5551, -0.3699 -0.0459 0.5547, -0.3699 -0.0459 0.5551, -0.3589 -0.0374 0.5547, -0.3589 -0.0374 0.5551, -0.3505 -0.0265 0.5547, -0.3505 -0.0265 0.5551, -0.3452 -0.0137 0.5547, -0.3452 -0.0137 0.5551, -0.3964 0.0 0.5547
            ]
        }
        coordIndex [
            0,1,2,-1,2,1,3,-1,2,3,4,-1,4,3,5,-1,4,5,6,-1,6,5,7,-1,6,7,8,-1,8,7,9,-1,8,9,10,-1,10,9,11,-1,10,11,12,-1,12,11,13,-1,12,13,14,-1,14,13,15,-1,14,15,16,-1,16,15,17,-1,16,17,18,-1,18,17,19,-1,18,19,20,-1,20,19,21,-1,20,21,22,-1,22,21,23,-1,22,23,24,-1,24,23,25,-1,24,25,26,-1,26,25,27,-1,26,27,28,-1,28,27,29,-1,28,29,30,-1,30,29,31,-1,30,31,32,-1,32,31,33,-1,32,33,34,-1,34,33,35,-1,34,35,36,-1,36,35,37,-1,36,37,38,-1,38,37,39,-1,38,39,40,-1,40,39,41,-1,40,41,42,-1,42,41,43,-1,42,43,44,-1,44,43,45,-1,44,45,46,-1,46,45,47,-1,46,47,0,-1,0,47,1,-1,44,46,48,-1,48,46,0,-1,48,0,2,-1,38,40,48,-1,48,40,42,-1,48,42,44,-1,32,34,48,-1,48,34,36,-1,48,36,38,-1,26,28,48,-1,48,28,30,-1,48,30,32,-1,20,22,48,-1,48,22,24,-1,48,24,26,-1,14,16,48,-1,48,16,18,-1,48,18,20,-1,8,10,48,-1,48,10,12,-1,48,12,14,-1,2,4,48,-1,48,4,6,-1,48,6,8,-1,
        ]
    }
}
Shape{
    appearance Appearance {
        material  Material 	{
            diffuseColor 0.25098039215686274 0.25098039215686274 0.25098039215686274
            specularColor 0.12549019607843137 0.12549019607843137 0.12549019607843137
            ambientIntensity 0.251
            transparency 0.0
            shininess 0.5
        }
    }
    geometry IndexedFaceSet {
        ccw TRUE
        solid FALSE
        coord DEF co Coordinate {
            point [
                -0.4331 -0.0 0.0787, -0.4331 0.0 0.0394, -0.4289 0.0603 0.0787, -0.4289 0.0603 0.0394, -0.4163 0.1194 0.0787, -0.4163 0.1194 0.0394, -0.3956 0.1761 0.0787, -0.3956 0.1761 0.0394, -0.3673 0.2295 0.0787, -0.3673 0.2295 0.0394, -0.3318 0.2784 0.0787, -0.3318 0.2784 0.0394, -0.2898 0.3218 0.0787, -0.2898 0.3218 0.0394, -0.2422 0.359 0.0787, -0.2422 0.359 0.0394, -0.1898 0.3892 0.0787, -0.1898 0.3892 0.0394, -0.1338 0.4119 0.0787, -0.1338 0.4119 0.0394, -0.0752 0.4265 0.0787, -0.0752 0.4265 0.0394, -0.0151 0.4328 0.0787, -0.0151 0.4328 0.0394, 0.0453 0.4307 0.0787, 0.0453 0.4307 0.0394, 0.1048 0.4202 0.0787, 0.1048 0.4202 0.0394, 0.1622 0.4015 0.0787, 0.1622 0.4015 0.0394, 0.2165 0.3751 0.0787, 0.2165 0.3751 0.0394, 0.2666 0.3413 0.0787, 0.2666 0.3413 0.0394, 0.3115 0.3008 0.0787, 0.3115 0.3008 0.0394, 0.3504 0.2546 0.0787, 0.3504 0.2546 0.0394, 0.3824 0.2033 0.0787, 0.3824 0.2033 0.0394, 0.407 0.1481 0.0787, 0.407 0.1481 0.0394, 0.4236 0.09 0.0787, 0.4236 0.09 0.0394, 0.432 0.0302 0.0787, 0.432 0.0302 0.0394, 0.432 -0.0302 0.0787, 0.432 -0.0302 0.0394, 0.4236 -0.09 0.0787, 0.4236 -0.09 0.0394, 0.407 -0.1481 0.0787, 0.407 -0.1481 0.0394, 0.3824 -0.2033 0.0787, 0.3824 -0.2033 0.0394, 0.3504 -0.2546 0.0787, 0.3504 -0.2546 0.0394, 0.3115 -0.3008 0.0787, 0.3115 -0.3008 0.0394, 0.2666 -0.3413 0.0787, 0.2666 -0.3413 0.0394, 0.2165 -0.3751 0.0787, 0.2165 -0.3751 0.0394, 0.1622 -0.4015 0.0787, 0.1622 -0.4015 0.0394, 0.1048 -0.4202 0.0787, 0.1048 -0.4202 0.0394, 0.0453 -0.4307 0.0787, 0.0453 -0.4307 0.0394, -0.0151 -0.4328 0.0787, -0.0151 -0.4328 0.0394, -0.0752 -0.4265 0.0787, -0.0752 -0.4265 0.0394, -0.1338 -0.4119 0.0787, -0.1338 -0.4119 0.0394, -0.1898 -0.3892 0.0787, -0.1898 -0.3892 0.0394, -0.2422 -0.359 0.0787, -0.2422 -0.359 0.0394, -0.2898 -0.3218 0.0787, -0.2898 -0.3218 0.0394, -0.3318 -0.2784 0.0787, -0.3318 -0.2784 0.0394, -0.3673 -0.2295 0.0787, -0.3673 -0.2295 0.0394, -0.3956 -0.1761 0.0787, -0.3956 -0.1761 0.0394, -0.4163 -0.1194 0.0787, -0.4163 -0.1194 0.0394, -0.4289 -0.0603 0.0787, -0.4289 -0.0603 0.0394, 0.0144 0.3934 0.0787, 0.0715 0.3872 0.0787, 0.1271 0.3726 0.0787, 0.18 0.3501 0.0787, 0.2291 0.3202 0.0787, 0.2733 0.2834 0.0787, 0.3116 0.2406 0.0787, 0.3433 0.1927 0.0787, 0.3677 0.1406 0.0787, 0.3843 0.0856 0.0787, 0.3927 0.0287 0.0787, 0.3927 -0.0287 0.0787, 0.3843 -0.0856 0.0787, 0.3677 -0.1406 0.0787, 0.3433 -0.1927 0.0787, 0.3116 -0.2406 0.0787, 0.2733 -0.2834 0.0787, 0.2291 -0.3202 0.0787, 0.18 -0.3501 0.0787, 0.1271 -0.3726 0.0787, 0.0715 -0.3872 0.0787, 0.0144 -0.3934 0.0787, -0.0431 -0.3913 0.0787, -0.0996 -0.3809 0.0787, -0.154 -0.3623 0.0787, -0.2051 -0.3361 0.0787, -0.2518 -0.3026 0.0787, -0.2932 -0.2627 0.0787, -0.3283 -0.2172 0.0787, -0.3565 -0.1671 0.0787, -0.377 -0.1134 0.0787, -0.3895 -0.0573 0.0787, -0.3937 0.0 0.0787, -0.3895 0.0573 0.0787, -0.377 0.1134 0.0787, -0.3565 0.1671 0.0787, -0.3283 0.2172 0.0787, -0.2932 0.2627 0.0787, -0.2518 0.3026 0.0787, -0.2051 0.3361 0.0787, -0.154 0.3623 0.0787, -0.0996 0.3809 0.0787, -0.0431 0.3913 0.0787, -0.3937 -0.0 0.0394, -0.3912 -0.0336 0.0394, -0.3895 -0.0573 0.0394, -0.377 -0.1134 0.0394, -0.3565 -0.1671 0.0394, -0.3283 -0.2172 0.0394, -0.2932 -0.2627 0.0394, -0.2518 -0.3026 0.0394, -0.2051 -0.3361 0.0394, -0.154 -0.3623 0.0394, -0.0996 -0.3809 0.0394, -0.0431 -0.3913 0.0394, 0.0144 -0.3934 0.0394, 0.0297 -0.3918 0.0394, 0.0715 -0.3872 0.0394, 0.1271 -0.3726 0.0394, 0.18 -0.3501 0.0394, 0.2291 -0.3202 0.0394, 0.2733 -0.2834 0.0394, 0.3116 -0.2406 0.0394, 0.3433 -0.1927 0.0394, 0.3677 -0.1406 0.0394, 0.3843 -0.0856 0.0394, 0.3919 -0.0336 0.0394, 0.3927 -0.0287 0.0394, 0.3927 0.0287 0.0394, 0.3843 0.0856 0.0394, 0.3677 0.1406 0.0394, 0.3433 0.1927 0.0394, 0.3116 0.2406 0.0394, 0.2733 0.2834 0.0394, 0.2291 0.3202 0.0394, 0.18 0.3501 0.0394, 0.1271 0.3726 0.0394, 0.0715 0.3872 0.0394, 0.0297 0.3918 0.0394, -0.3895 0.0573 0.0394, -0.377 0.1134 0.0394, -0.3565 0.1671 0.0394, -0.3283 0.2172 0.0394, -0.2932 0.2627 0.0394, -0.2518 0.3026 0.0394, -0.2051 0.3361 0.0394, -0.154 0.3623 0.0394, -0.0996 0.3809 0.0394, -0.0431 0.3913 0.0394, 0.0144 0.3934 0.0394
            ]
        }
        coordIndex [
            0,1,2,-1,2,1,3,-1,2,3,4,-1,4,3,5,-1,4,5,6,-1,6,5,7,-1,6,7,8,-1,8,7,9,-1,8,9,10,-1,10,9,11,-1,10,11,12,-1,12,11,13,-1,12,13,14,-1,14,13,15,-1,14,15,16,-1,16,15,17,-1,16,17,18,-1,18,17,19,-1,18,19,20,-1,20,19,21,-1,20,21,22,-1,22,21,23,-1,22,23,24,-1,24,23,25,-1,24,25,26,-1,26,25,27,-1,26,27,28,-1,28,27,29,-1,28,29,30,-1,30,29,31,-1,30,31,32,-1,32,31,33,-1,32,33,34,-1,34,33,35,-1,34,35,36,-1,36,35,37,-1,36,37,38,-1,38,37,39,-1,38,39,40,-1,40,39,41,-1,40,41,42,-1,42,41,43,-1,42,43,44,-1,44,43,45,-1,44,45,46,-1,46,45,47,-1,46,47,48,-1,48,47,49,-1,48,49,50,-1,50,49,51,-1,50,51,52,-1,52,51,53,-1,52,53,54,-1,54,53,55,-1,54,55,56,-1,56,55,57,-1,56,57,58,-1,58,57,59,-1,58,59,60,-1,60,59,61,-1,60,61,62,-1,62,61,63,-1,62,63,64,-1,64,63,65,-1,64,65,66,-1,66,65,67,-1,66,67,68,-1,68,67,69,-1,68,69,70,-1,70,69,71,-1,70,71,72,-1,72,71,73,-1,72,73,74,-1,74,73,75,-1,74,75,76,-1,76,75,77,-1,76,77,78,-1,78,77,79,-1,78,79,80,-1,80,79,81,-1,80,81,82,-1,82,81,83,-1,82,83,84,-1,84,83,85,-1,84,85,86,-1,86,85,87,-1,86,87,88,-1,88,87,89,-1,88,89,0,-1,0,89,1,-1,90,24,91,-1,91,24,26,-1,91,26,92,-1,92,26,28,-1,92,28,93,-1,93,28,30,-1,93,30,94,-1,94,30,32,-1,94,32,95,-1,95,32,34,-1,95,34,96,-1,96,34,36,-1,96,36,97,-1,97,36,38,-1,97,38,98,-1,98,38,40,-1,98,40,99,-1,99,40,42,-1,99,42,100,-1,100,42,44,-1,100,44,101,-1,101,44,46,-1,101,46,102,-1,102,46,48,-1,102,48,103,-1,103,48,50,-1,103,50,104,-1,104,50,52,-1,104,52,105,-1,105,52,54,-1,105,54,106,-1,106,54,56,-1,106,56,107,-1,107,56,58,-1,107,58,108,-1,108,58,60,-1,108,60,109,-1,109,60,62,-1,109,62,110,-1,110,62,64,-1,110,64,111,-1,64,66,111,-1,111,66,68,-1,111,68,112,-1,112,68,70,-1,112,70,113,-1,113,70,72,-1,113,72,114,-1,114,72,74,-1,114,74,115,-1,115,74,76,-1,115,76,116,-1,116,76,78,-1,116,78,117,-1,117,78,80,-1,117,80,118,-1,118,80,82,-1,118,82,119,-1,119,82,84,-1,119,84,120,-1,120,84,86,-1,120,86,121,-1,121,86,88,-1,121,88,122,-1,122,88,0,-1,122,0,123,-1,123,0,2,-1,123,2,124,-1,124,2,4,-1,124,4,125,-1,125,4,6,-1,125,6,126,-1,126,6,8,-1,126,8,127,-1,127,8,10,-1,127,10,128,-1,128,10,12,-1,128,12,129,-1,129,12,14,-1,129,14,130,-1,130,14,16,-1,130,16,131,-1,131,16,18,-1,131,18,132,-1,132,18,20,-1,132,20,90,-1,90,20,22,-1,90,22,24,-1,133,134,121,-1,134,135,121,-1,121,135,136,-1,121,136,120,-1,120,136,137,-1,120,137,119,-1,119,137,138,-1,119,138,118,-1,118,138,139,-1,118,139,117,-1,117,139,140,-1,117,140,116,-1,116,140,141,-1,116,141,115,-1,115,141,142,-1,115,142,114,-1,114,142,143,-1,114,143,113,-1,113,143,144,-1,113,144,112,-1,112,144,145,-1,112,145,111,-1,111,145,146,-1,111,146,110,-1,146,147,110,-1,110,147,148,-1,110,148,109,-1,109,148,149,-1,109,149,108,-1,108,149,150,-1,108,150,107,-1,107,150,151,-1,107,151,106,-1,106,151,152,-1,106,152,105,-1,105,152,153,-1,105,153,104,-1,104,153,154,-1,104,154,103,-1,103,154,155,-1,103,155,102,-1,102,155,156,-1,102,156,101,-1,156,157,101,-1,101,157,158,-1,101,158,100,-1,100,158,159,-1,100,159,99,-1,99,159,160,-1,99,160,98,-1,98,160,161,-1,98,161,97,-1,97,161,162,-1,97,162,96,-1,96,162,163,-1,96,163,95,-1,95,163,164,-1,95,164,94,-1,94,164,165,-1,94,165,93,-1,93,165,166,-1,93,166,92,-1,92,166,167,-1,92,167,91,-1,91,167,168,-1,91,168,90,-1,121,122,133,-1,133,122,123,-1,133,123,169,-1,169,123,124,-1,169,124,170,-1,170,124,125,-1,170,125,171,-1,171,125,126,-1,171,126,172,-1,172,126,127,-1,172,127,173,-1,173,127,128,-1,173,128,174,-1,174,128,129,-1,174,129,175,-1,175,129,130,-1,175,130,176,-1,176,130,131,-1,176,131,177,-1,177,131,132,-1,177,132,178,-1,178,132,90,-1,178,90,179,-1,179,90,168,-1,
        ]
    }
}
Shape{
    appearance Appearance {
        material  Material 	{
            diffuseColor 0.0 0.0 0.0
            specularColor 0.0 0.0 0.0
            ambientIntensity 0.0
            transparency 0.0
            shininess 0.5
        }
    }
    geometry IndexedFaceSet {
        ccw TRUE
        solid FALSE
        coord DEF co Coordinate {
            point [
                -0.1451 0.0456 0.0398, -0.1758 -0.0331 0.0398, -0.1451 0.0456 0.0394, -0.1758 -0.0331 0.0394, -0.1643 -0.0331 0.0398, -0.1643 -0.0331 0.0394, -0.1563 -0.011 0.0398, -0.1563 -0.011 0.0394, -0.1238 -0.011 0.0398, -0.1238 -0.011 0.0394, -0.1163 -0.0331 0.0398, -0.1163 -0.0331 0.0394, -0.1048 -0.0331 0.0398, -0.1048 -0.0331 0.0394, -0.1345 0.0456 0.0398, -0.1345 0.0456 0.0394, -0.1265 -0.0024 0.0398, -0.1528 -0.0024 0.0398, -0.1382 0.0305 0.0398, -0.139 0.0332 0.0398, -0.1395 0.036 0.0398, -0.1397 0.036 0.0398, -0.1402 0.0332 0.0398, -0.1409 0.0305 0.0398, -0.1265 -0.0024 0.0394, -0.1528 -0.0024 0.0394, -0.1382 0.0305 0.0394, -0.139 0.0332 0.0394, -0.1395 0.036 0.0394, -0.1397 0.036 0.0394, -0.1402 0.0332 0.0394, -0.1409 0.0305 0.0394, -0.057 -0.0331 0.0398, -0.0356 -0.0331 0.0398, -0.057 -0.0331 0.0394, -0.0356 -0.0331 0.0394, -0.0356 0.0456 0.0398, -0.0356 0.0456 0.0394, -0.0579 0.0456 0.0398, -0.0579 0.0456 0.0394, -0.099 0.0072 0.0398, -0.099 0.0072 0.0394, -0.0984 0.0147 0.0394, -0.0984 0.0147 0.0398, -0.0963 0.0224 0.0394, -0.0963 0.0224 0.0398, -0.0927 0.0292 0.0394, -0.0927 0.0292 0.0398, -0.0871 0.0354 0.0394, -0.0871 0.0354 0.0398, -0.087 0.0354 0.0394, -0.087 0.0354 0.0398, -0.0784 0.0412 0.0394, -0.0784 0.0412 0.0398, -0.0692 0.0444 0.0394, -0.0692 0.0444 0.0398, -0.0668 -0.0323 0.0394, -0.0668 -0.0323 0.0398, -0.0759 -0.0296 0.0394, -0.0759 -0.0296 0.0398, -0.0841 -0.0248 0.0394, -0.0841 -0.0248 0.0398, -0.0906 -0.0186 0.0394, -0.0906 -0.0186 0.0398, -0.0951 -0.0115 0.0394, -0.0951 -0.0115 0.0398, -0.0979 -0.0033 0.0394, -0.0979 -0.0033 0.0398, -0.0832 0.0259 0.0398, -0.0794 0.03 0.0398, -0.0736 0.0337 0.0398, -0.0671 0.036 0.0398, -0.0578 0.037 0.0398, -0.0462 0.037 0.0398, -0.0462 -0.0245 0.0398, -0.0574 -0.0245 0.0398, -0.0657 -0.0237 0.0398, -0.0723 -0.0216 0.0398, -0.0777 -0.0184 0.0398, -0.0821 -0.0141 0.0398, -0.0854 -0.0087 0.0398, -0.0877 -0.0012 0.0398, -0.0884 0.007 0.0398, -0.0878 0.0149 0.0398, -0.0859 0.0211 0.0398, -0.0578 0.037 0.0394, -0.0462 0.037 0.0394, -0.0671 0.036 0.0394, -0.0736 0.0337 0.0394, -0.0794 0.03 0.0394, -0.0832 0.0259 0.0394, -0.0859 0.0211 0.0394, -0.0878 0.0149 0.0394, -0.0884 0.007 0.0394, -0.0877 -0.0012 0.0394, -0.0854 -0.0087 0.0394, -0.0821 -0.0141 0.0394, -0.0777 -0.0184 0.0394, -0.0723 -0.0216 0.0394, -0.0657 -0.0237 0.0394, -0.0574 -0.0245 0.0394, -0.0462 -0.0245 0.0394, -0.0203 -0.0245 0.0398, -0.0203 -0.0331 0.0398, -0.0203 -0.0245 0.0394, -0.0203 -0.0331 0.0394, 0.022 -0.0331 0.0398, 0.022 -0.0331 0.0394, 0.022 0.0456 0.0398, 0.022 0.0456 0.0394, -0.0184 0.0456 0.0398, -0.0184 0.0456 0.0394, -0.0184 0.037 0.0398, -0.0184 0.037 0.0394, 0.0114 0.037 0.0398, 0.0114 0.037 0.0394, 0.0114 0.0111 0.0398, 0.0114 0.0111 0.0394, -0.0164 0.0111 0.0398, -0.0164 0.0111 0.0394, -0.0164 0.0024 0.0398, -0.0164 0.0024 0.0394, 0.0114 0.0024 0.0398, 0.0114 0.0024 0.0394, 0.0114 -0.0245 0.0398, 0.0114 -0.0245 0.0394, 0.0373 -0.0204 0.0398, 0.0373 -0.029 0.0398, 0.0373 -0.0204 0.0394, 0.0373 -0.029 0.0394, 0.0457 -0.0325 0.0398, 0.059 -0.0341 0.0398, 0.059 -0.0341 0.0394, 0.0569 -0.034 0.0394, 0.0569 -0.034 0.0398, 0.0537 -0.0336 0.0394, 0.0457 -0.0325 0.0394, 0.0636 -0.0336 0.0394, 0.0687 -0.0331 0.0398, 0.0687 -0.0331 0.0394, 0.0763 -0.0304 0.0398, 0.0763 -0.0304 0.0394, 0.0827 -0.0264 0.0398, 0.0827 -0.0264 0.0394, 0.0886 -0.0202 0.0398, 0.0886 -0.0202 0.0394, 0.0928 -0.0127 0.0398, 0.0928 -0.0127 0.0394, 0.0952 -0.0043 0.0398, 0.0952 -0.0043 0.0394, 0.0959 0.0048 0.0398, 0.0959 0.0048 0.0394, 0.0559 0.0466 0.0398, 0.0559 0.0466 0.0394, 0.0638 0.0459 0.0394, 0.0638 0.0459 0.0398, 0.0726 0.0434 0.0394, 0.0726 0.0434 0.0398, 0.08 0.0391 0.0394, 0.08 0.0391 0.0398, 0.0871 0.0322 0.0394, 0.0871 0.0322 0.0398, 0.0918 0.0249 0.0394, 0.0918 0.0249 0.0398, 0.0948 0.016 0.0394, 0.0948 0.016 0.0398, 0.0373 0.0435 0.0398, 0.0373 0.0435 0.0394, 0.0464 0.0459 0.0394, 0.0464 0.0459 0.0398, 0.0373 0.0329 0.0398, 0.0373 0.0329 0.0394, 0.0558 0.0379 0.0398, 0.0558 0.0379 0.0394, 0.0462 0.0367 0.0394, 0.0462 0.0367 0.0398, 0.0854 0.0054 0.0398, 0.0854 0.0054 0.0394, 0.085 0.0115 0.0394, 0.085 0.0115 0.0398, 0.0829 0.02 0.0394, 0.0829 0.02 0.0398, 0.0796 0.0261 0.0394, 0.0796 0.0261 0.0398, 0.0749 0.0313 0.0394, 0.0749 0.0313 0.0398, 0.0694 0.0349 0.0394, 0.0694 0.0349 0.0398, 0.0635 0.0371 0.0394, 0.0635 0.0371 0.0398, 0.0576 -0.0254 0.0398, 0.0576 -0.0254 0.0394, 0.0649 -0.0246 0.0394, 0.0649 -0.0246 0.0398, 0.0706 -0.0225 0.0394, 0.0706 -0.0225 0.0398, 0.0755 -0.0192 0.0394, 0.0755 -0.0192 0.0398, 0.0792 -0.0153 0.0394, 0.0792 -0.0153 0.0398, 0.0824 -0.0099 0.0394, 0.0824 -0.0099 0.0398, 0.0846 -0.0031 0.0394, 0.0846 -0.0031 0.0398, 0.0388 -0.0212 0.0394, 0.0388 -0.0212 0.0398, 0.0471 -0.0243 0.0394, 0.0471 -0.0243 0.0398, 0.1026 -0.0245 0.0398, 0.1026 -0.0331 0.0398, 0.1026 -0.0245 0.0394, 0.1026 -0.0331 0.0394, 0.143 -0.0331 0.0398, 0.143 -0.0331 0.0394, 0.143 0.0456 0.0398, 0.143 0.0456 0.0394, 0.1324 0.0456 0.0398, 0.1324 0.0456 0.0394, 0.1324 -0.0245 0.0398, 0.1324 -0.0245 0.0394
            ]
        }
        coordIndex [
            0,1,2,-1,2,1,3,-1,1,4,3,-1,3,4,5,-1,4,6,5,-1,5,6,7,-1,6,8,7,-1,7,8,9,-1,8,10,9,-1,9,10,11,-1,10,12,11,-1,11,12,13,-1,12,14,13,-1,13,14,15,-1,14,0,15,-1,15,0,2,-1,16,8,17,-1,17,8,6,-1,18,14,16,-1,16,14,12,-1,16,12,8,-1,8,12,10,-1,18,19,14,-1,14,19,20,-1,14,20,0,-1,0,20,21,-1,0,21,22,-1,22,23,0,-1,0,23,17,-1,0,17,1,-1,1,17,6,-1,1,6,4,-1,16,17,24,-1,24,17,25,-1,18,16,26,-1,26,16,24,-1,18,26,27,-1,18,27,19,-1,19,27,28,-1,19,28,20,-1,21,20,29,-1,29,20,28,-1,21,29,30,-1,21,30,22,-1,22,30,31,-1,22,31,23,-1,17,23,25,-1,25,23,31,-1,32,33,34,-1,34,33,35,-1,33,36,35,-1,35,36,37,-1,36,38,37,-1,37,38,39,-1,40,41,42,-1,40,42,43,-1,43,42,44,-1,43,44,45,-1,45,44,46,-1,45,46,47,-1,47,46,48,-1,47,48,49,-1,49,48,50,-1,49,50,51,-1,51,50,52,-1,51,52,53,-1,53,52,54,-1,53,54,55,-1,55,54,39,-1,55,39,38,-1,32,34,56,-1,32,56,57,-1,57,56,58,-1,57,58,59,-1,59,58,60,-1,59,60,61,-1,61,60,62,-1,61,62,63,-1,63,62,64,-1,63,64,65,-1,65,64,66,-1,65,66,67,-1,67,66,41,-1,67,41,40,-1,45,47,68,-1,68,47,49,-1,68,49,69,-1,69,49,51,-1,69,51,70,-1,70,51,53,-1,70,53,71,-1,71,53,55,-1,71,55,72,-1,72,55,38,-1,72,38,73,-1,73,38,36,-1,73,36,74,-1,74,36,33,-1,74,33,75,-1,75,33,32,-1,75,32,76,-1,76,32,57,-1,76,57,77,-1,77,57,59,-1,77,59,78,-1,78,59,61,-1,78,61,79,-1,79,61,63,-1,79,63,80,-1,80,63,65,-1,80,65,81,-1,81,65,67,-1,81,67,82,-1,82,67,40,-1,82,40,83,-1,83,40,43,-1,83,43,84,-1,84,43,45,-1,84,45,68,-1,72,73,85,-1,85,73,86,-1,72,85,87,-1,72,87,71,-1,71,87,88,-1,71,88,70,-1,70,88,89,-1,70,89,69,-1,69,89,90,-1,69,90,68,-1,68,90,91,-1,68,91,84,-1,84,91,92,-1,84,92,83,-1,83,92,93,-1,83,93,82,-1,82,93,94,-1,82,94,81,-1,81,94,95,-1,81,95,80,-1,80,95,96,-1,80,96,79,-1,79,96,97,-1,79,97,78,-1,78,97,98,-1,78,98,77,-1,77,98,99,-1,77,99,76,-1,76,99,100,-1,76,100,75,-1,74,75,101,-1,101,75,100,-1,73,74,86,-1,86,74,101,-1,102,103,104,-1,104,103,105,-1,103,106,105,-1,105,106,107,-1,106,108,107,-1,107,108,109,-1,108,110,109,-1,109,110,111,-1,110,112,111,-1,111,112,113,-1,112,114,113,-1,113,114,115,-1,114,116,115,-1,115,116,117,-1,116,118,117,-1,117,118,119,-1,118,120,119,-1,119,120,121,-1,120,122,121,-1,121,122,123,-1,122,124,123,-1,123,124,125,-1,124,102,125,-1,125,102,104,-1,106,103,102,-1,102,124,106,-1,106,124,122,-1,106,122,108,-1,112,110,114,-1,114,110,108,-1,114,108,116,-1,116,108,122,-1,116,122,118,-1,118,122,120,-1,126,127,128,-1,128,127,129,-1,129,127,130,-1,131,132,133,-1,131,133,134,-1,134,133,135,-1,134,135,130,-1,130,135,136,-1,130,136,129,-1,132,131,137,-1,137,131,138,-1,137,138,139,-1,139,138,140,-1,139,140,141,-1,141,140,142,-1,141,142,143,-1,143,142,144,-1,143,144,145,-1,145,144,146,-1,145,146,147,-1,147,146,148,-1,147,148,149,-1,149,148,150,-1,149,150,151,-1,152,153,154,-1,152,154,155,-1,155,154,156,-1,155,156,157,-1,157,156,158,-1,157,158,159,-1,159,158,160,-1,159,160,161,-1,161,160,162,-1,161,162,163,-1,163,162,164,-1,163,164,165,-1,165,164,151,-1,165,151,150,-1,166,167,168,-1,166,168,169,-1,169,168,153,-1,169,153,152,-1,166,170,167,-1,167,170,171,-1,172,173,174,-1,172,174,175,-1,175,174,171,-1,175,171,170,-1,176,177,178,-1,176,178,179,-1,179,178,180,-1,179,180,181,-1,181,180,182,-1,181,182,183,-1,183,182,184,-1,183,184,185,-1,185,184,186,-1,185,186,187,-1,187,186,188,-1,187,188,189,-1,189,188,173,-1,189,173,172,-1,190,191,192,-1,190,192,193,-1,193,192,194,-1,193,194,195,-1,195,194,196,-1,195,196,197,-1,197,196,198,-1,197,198,199,-1,199,198,200,-1,199,200,201,-1,201,200,202,-1,201,202,203,-1,203,202,177,-1,203,177,176,-1,126,128,204,-1,126,204,205,-1,205,204,206,-1,205,206,207,-1,207,206,191,-1,207,191,190,-1,193,131,190,-1,190,131,134,-1,190,134,207,-1,207,134,130,-1,207,130,205,-1,205,130,127,-1,205,127,126,-1,170,166,175,-1,175,166,169,-1,175,169,172,-1,172,169,152,-1,172,152,189,-1,189,152,155,-1,189,155,187,-1,187,155,157,-1,187,157,185,-1,185,157,159,-1,185,159,183,-1,183,159,161,-1,183,161,181,-1,181,161,163,-1,181,163,179,-1,179,163,165,-1,179,165,176,-1,176,165,150,-1,176,150,203,-1,203,150,148,-1,203,148,201,-1,201,148,146,-1,201,146,199,-1,199,146,144,-1,199,144,197,-1,197,144,142,-1,197,142,195,-1,195,142,140,-1,195,140,193,-1,193,140,138,-1,193,138,131,-1,208,209,210,-1,210,209,211,-1,209,212,211,-1,211,212,213,-1,212,214,213,-1,213,214,215,-1,214,216,215,-1,215,216,217,-1,216,218,217,-1,217,218,219,-1,218,208,219,-1,219,208,210,-1,216,214,218,-1,218,214,212,-1,218,212,208,-1,208,212,209,-1,
        ]
    }
}
Shape{
    appearance Appearance {
        material  Material 	{
            diffuseColor 0.25098039215686274 0.25098039215686274 0.25098039215686274
            specularColor 0.12549019607843137 0.12549019607843137 0.12549019607843137
            ambientIntensity 0.251
            transparency 0.0
            shininess 0.5
        }
    }
    geometry IndexedFaceSet {
        ccw TRUE
        solid FALSE
        coord DEF co Coordinate {
            point [
                -0.1265 -0.0024 0.0394, -0.1528 -0.0024 0.0394, -0.1382 0.0305 0.0394, -0.1409 0.0305 0.0394, -0.139 0.0332 0.0394, -0.1402 0.0332 0.0394, -0.1395 0.036 0.0394, -0.1397 0.036 0.0394, -0.0462 0.037 0.0394, -0.0462 -0.0245 0.0394, -0.0578 0.037 0.0394, -0.0574 -0.0245 0.0394, -0.0657 -0.0237 0.0394, -0.0884 0.007 0.0394, -0.0878 0.0149 0.0394, -0.0859 0.0211 0.0394, -0.0671 0.036 0.0394, -0.0723 -0.0216 0.0394, -0.0777 -0.0184 0.0394, -0.0821 -0.0141 0.0394, -0.0854 -0.0087 0.0394, -0.0877 -0.0012 0.0394, -0.0832 0.0259 0.0394, -0.0794 0.03 0.0394, -0.0736 0.0337 0.0394
            ]
        }
        coordIndex [
            0,1,2,-1,2,1,3,-1,2,3,4,-1,4,3,5,-1,4,5,6,-1,6,5,7,-1,8,9,10,-1,10,9,11,-1,10,11,12,-1,13,14,10,-1,10,14,15,-1,10,15,16,-1,12,17,10,-1,10,17,18,-1,10,18,19,-1,19,20,10,-1,10,20,21,-1,10,21,13,-1,22,23,15,-1,15,23,24,-1,15,24,16,-1,
        ]
    }
}